<svg width="40" height="40" viewBox="0 0 40 40" fill="none" xmlns="http://www.w3.org/2000/svg">
<path d="M7.50736 10.6771C7.38125 8.89045 8.89414 7.5 10.6815 7.5H14.5076C15.4251 7.5 16.2526 8.05282 16.6055 8.9015L18.2054 12.7493C18.5952 13.6867 18.3186 14.7693 17.5273 15.4036L16.5299 16.2032C16.0849 16.56 15.9335 17.1752 16.1974 17.681C17.5537 20.2801 19.558 22.486 21.9955 24.0833C22.51 24.4205 23.1896 24.2864 23.5735 23.8056L24.6127 22.5038C25.2458 21.7109 26.3262 21.4337 27.2616 21.8243L31.1014 23.4275C31.9483 23.7811 32.5 24.6104 32.5 25.5298V29.375C32.5 31.1661 31.0611 32.6194 29.2782 32.4926C17.8777 31.6815 8.31558 22.1272 7.50736 10.6771Z" fill="#303E30"/>
</svg>
