<svg width="40" height="40" viewBox="0 0 40 40" fill="none" xmlns="http://www.w3.org/2000/svg">
<path fill-rule="evenodd" clip-rule="evenodd" d="M19.232 34.7363L19.2289 34.7338L19.2212 34.7278L19.1937 34.7062C19.1702 34.6877 19.1363 34.6608 19.0928 34.626C19.0057 34.5563 18.8799 34.4546 18.7209 34.3234C18.403 34.061 17.9518 33.68 17.4117 33.1999C16.3333 32.2413 14.8916 30.8801 13.4459 29.2737C12.0038 27.6714 10.5337 25.7987 9.41834 23.816C8.30952 21.8447 7.5 19.6742 7.5 17.5C7.5 14.1848 8.81696 11.0054 11.1612 8.66116C13.5054 6.31696 16.6848 5 20 5C23.3152 5 26.4946 6.31696 28.8388 8.66116C31.183 11.0054 32.5 14.1848 32.5 17.5C32.5 19.6742 31.6905 21.8447 30.5817 23.816C29.4663 25.7987 27.9962 27.6714 26.5541 29.2737C25.1084 30.8801 23.6667 32.2413 22.5883 33.1999C22.0482 33.68 21.597 34.061 21.2791 34.3234C21.1201 34.4546 20.9943 34.5563 20.9072 34.626C20.8637 34.6608 20.8298 34.6877 20.8063 34.7062L20.7788 34.7278L20.7711 34.7338L20.7687 34.7357C20.7687 34.7357 20.7674 34.7367 20 33.75L20.7674 34.7367C20.316 35.0878 19.6834 35.0874 19.232 34.7363ZM20 33.75L19.232 34.7363C19.232 34.7363 19.2326 34.7367 20 33.75ZM23.75 17.5C23.75 19.5711 22.0711 21.25 20 21.25C17.9289 21.25 16.25 19.5711 16.25 17.5C16.25 15.4289 17.9289 13.75 20 13.75C22.0711 13.75 23.75 15.4289 23.75 17.5Z" fill="#F0EDE4"/>
</svg>
