<svg width="160" height="120" viewBox="0 0 160 120" fill="none" xmlns="http://www.w3.org/2000/svg">
<path d="M65.0141 33.47C65.0821 33.5617 65.15 33.7211 65.2414 33.82C65.8365 34.793 66.5067 35.7442 67.1675 36.6736C68.3953 38.4046 69.7941 40.1694 71.4859 41.4344C71.7389 41.6252 72.088 41.8955 72.4114 41.91C72.5871 41.9173 72.7863 41.8062 72.9573 41.7603C73.1612 41.7072 73.3252 41.6638 73.4916 41.5238C73.8852 41.193 73.9602 40.6377 74.1641 40.1911C74.3984 39.6721 74.5952 39.0299 74.9607 38.5929C75.3755 38.0956 75.7738 38.1415 76.2166 38.5108C76.7626 38.9647 77.1797 39.4717 77.66 39.9907C77.9365 40.2901 78.4215 40.7367 78.8621 40.715C79.08 40.7053 79.2463 40.5436 79.333 40.3505C79.7993 40.0897 80.1766 39.6648 80.4273 39.1747C80.432 39.1699 80.439 39.1699 80.4437 39.1627C80.9732 38.3587 81.2005 37.3665 81.4184 36.437C81.5543 35.8552 81.7465 35.2903 81.8824 34.7085C82.0159 34.146 82.0839 33.5714 82.2291 33.0137C82.5056 31.9466 82.5103 30.8868 82.4049 29.7883C82.3229 28.9289 82.3885 27.9149 82.0651 27.0844C82.0604 26.901 82.03 26.7199 81.9737 26.5412C81.805 25.998 81.6527 25.438 81.47 24.8948C81.245 24.2284 80.9615 23.5187 81.0037 22.8065C81.0131 22.6302 81.0295 22.4612 81.0669 22.3043C81.2685 22.0798 81.5496 21.8577 81.7465 21.6815C81.9667 21.4859 82.2081 21.3121 82.433 21.1238C82.7423 20.8655 83.0118 20.5999 83.3538 20.3874C83.7264 20.1533 84.1318 19.977 84.4762 19.6946C84.9308 19.3228 85.2588 18.8037 85.5517 18.2968C85.9782 17.558 86.3906 16.7806 86.6975 15.9743C87.2481 14.5258 87.7379 13.1086 87.8855 11.5467C87.9581 10.7717 87.9441 9.9895 88.1268 9.23144C88.3471 8.31887 88.5533 7.36285 88.8766 6.48166C89.0992 5.8757 89.3687 5.27939 89.4249 4.62515C89.4648 4.15921 89.4296 3.50979 89.0524 3.18146C88.6681 2.8483 88.1128 3.03419 87.7308 3.25871C87.1497 3.60153 86.5991 3.99504 86.0133 4.33786C84.6262 5.14903 83.1734 5.76223 81.9105 6.7762C80.8092 7.65738 79.8532 8.69548 79.1245 9.9219C78.295 11.3149 77.7233 12.8213 77.5757 14.463C77.489 15.4287 77.5546 16.3582 77.2992 17.2997C77.1656 17.7922 77.0016 18.2388 76.6361 18.6034C76.4135 18.8279 76.3666 18.8158 76.0948 18.8882C75.652 18.8665 75.1646 18.5889 74.7311 18.5092C74.3468 18.4392 73.9602 18.4513 73.5712 18.4561C72.7582 18.4633 71.9123 18.683 71.1297 18.9027C70.3424 19.1224 69.5481 19.4169 68.8053 19.7694C68.3835 19.9722 67.9618 20.1267 67.5095 20.2426C67.3174 20.2909 67.0854 20.3536 66.8886 20.3416C66.7316 20.3343 66.5676 20.2667 66.4059 20.2136L66.3872 20.204C65.9514 19.9722 65.8201 19.6777 65.5718 19.2721C65.3515 18.9124 65.0703 18.5792 64.9508 18.1591C64.8126 17.6739 64.8407 17.1331 64.7845 16.6334C64.7025 15.9043 64.4307 15.2259 64.0722 14.6006C63.7558 14.0478 63.2357 13.3718 62.7483 12.9662C62.1766 12.493 61.4057 12.1695 60.7426 11.8581C59.9389 11.4791 59.1399 11.129 58.383 10.6631C57.6379 10.2019 56.9022 9.69255 56.1313 9.27731C55.4822 8.92725 54.9222 8.47096 54.2849 8.10159C53.6171 7.71291 52.8977 7.5922 52.1315 7.59702C51.8363 7.59702 51.4309 7.65014 51.1919 7.85293C51.1779 7.865 51.1685 7.87707 51.1568 7.88673L51.138 7.89156C51.0888 7.90363 51.0701 7.94708 51.0748 7.99054C50.967 8.16919 50.9975 8.3744 51.0326 8.61099C51.0373 8.63513 51.049 8.64962 51.0654 8.65927C51.1193 8.90793 51.2154 9.15418 51.2833 9.34973C51.5129 10.0064 51.8316 10.6124 52.1479 11.2232C52.9915 12.8551 52.9118 14.6803 53.3851 16.4185C53.8233 18.0215 54.5637 19.5304 55.7751 20.6675C56.2929 21.1527 56.9022 21.6863 57.5208 22.0315C58.2518 22.4371 59.0719 22.5626 59.8545 22.8041C60.6957 23.0624 61.4127 23.5114 62.05 24.1343C62.282 24.3612 62.5444 24.593 62.6921 24.8899C62.8186 25.1458 62.8022 25.3969 62.8444 25.6697C62.8631 25.7928 62.8983 25.9015 62.9404 26.0077C62.9334 26.3143 62.9732 26.9396 62.9756 26.983C63.006 27.4345 63.067 27.8811 63.1466 28.3253C63.1701 28.4557 63.1982 28.5837 63.224 28.7116C63.238 28.9748 63.2614 29.2331 63.2989 29.4841C63.2989 29.5493 63.3036 29.6169 63.3036 29.6821C63.2989 30.5343 63.4161 31.6135 63.9597 32.3039C64.0745 32.4488 64.201 32.5888 64.3369 32.7312C64.5408 32.9944 64.8126 33.1996 65.0188 33.4676L65.0141 33.47ZM80.8467 17.6908C80.8701 17.2611 81.2216 16.7613 81.4137 16.4523C81.9456 15.6049 82.4517 14.7744 82.7868 13.8088C83.0774 12.9734 83.2859 12.1261 83.628 11.3101C83.8436 10.7958 84.1482 10.1174 84.673 9.84947C84.9964 9.68531 85.2799 9.86637 85.2518 10.2478C85.2284 10.5568 85.0315 10.9576 84.8886 11.228C84.6988 11.5877 84.5324 11.9981 84.4059 12.394C83.9396 13.8546 83.6467 15.3973 82.8056 16.6817C82.5689 17.0414 82.2385 17.3262 82.0159 17.6932C81.9011 17.8839 81.8332 18.1157 81.6504 18.2557C81.2357 18.5696 80.8186 18.1616 80.8397 17.7053C80.8397 17.7004 80.8443 17.698 80.8443 17.6932L80.8467 17.6908ZM62.7413 20.7641C62.3242 21.1214 61.6002 20.7641 61.1948 20.5878C60.3442 20.216 59.817 19.6173 59.0836 19.079C58.5494 18.6879 58.1417 17.9563 57.7926 17.3914C57.2653 16.5416 56.4687 15.9743 55.8454 15.2186C55.5853 14.9048 55.3674 14.1443 55.8688 13.9271C56.2929 13.7436 56.7499 14.0622 57.1084 14.4123C57.2091 14.4871 57.3075 14.562 57.4059 14.6296C57.7621 14.8831 58.0854 15.209 58.3057 15.5928C58.7931 16.4378 59.3062 17.3697 60.0162 18.0384C60.7426 18.7192 61.565 19.1997 62.3945 19.7429C62.7108 19.9505 63.1513 20.4116 62.7389 20.7641H62.7413ZM99.3575 70.0403C99.1255 69.3039 98.4109 68.6207 97.8602 68.1258C97.1502 67.4909 96.37 67.0056 95.6319 66.419C95.0602 65.9651 94.144 65.5861 93.4153 65.5668C92.5507 65.5426 91.6509 65.9168 90.8121 66.0906C90.5871 66.1365 90.3317 66.1824 90.1396 66.2934L90.1115 66.3007C90.081 66.3079 90.0646 66.3272 90.0552 66.349C89.9802 66.4069 89.917 66.4793 89.8795 66.5711C89.6452 67.0515 90.0294 67.7999 90.1958 68.2513C90.566 69.246 91.044 70.1851 91.447 71.1605C91.6579 71.6723 91.843 72.1986 92.0516 72.7128C92.225 73.1353 92.464 73.5191 92.6069 73.9561C92.7615 74.4365 92.8412 74.9508 93.017 75.4239C93.2231 75.9744 93.4176 76.4814 93.5348 77.0632C93.6262 77.5098 93.7504 77.9661 93.8042 78.4175C93.8652 78.9245 93.816 79.5112 93.7996 80.023C93.7644 81.1842 93.4247 82.3092 93.1669 83.4294C93.0521 83.934 93.0029 84.4096 93.0052 84.9286C93.0052 85.3294 92.949 85.7784 93.0404 86.1695C93.1669 86.7079 93.5137 87.1183 93.7972 87.5601C93.8042 87.9995 93.9542 88.4775 94.0151 88.9121C94.0925 89.4577 94.1089 89.9091 94.0315 90.4547C93.8769 91.5604 93.6988 92.7651 93.7105 93.8781C93.7269 95.2349 93.5442 96.5192 93.2817 97.8422C93.0193 99.17 92.9185 100.534 92.6866 101.862C92.6116 102.294 92.6186 102.844 92.8084 103.25C93.0076 103.677 93.427 103.759 93.83 103.883C94.4088 104.056 94.8797 104.066 95.4866 104.064C95.9998 104.061 96.302 104.01 96.6512 103.622C97.3494 102.847 97.415 101.649 97.415 100.633C97.415 100.302 97.4455 99.9401 97.4056 99.6142C97.3705 99.3414 97.3049 99.1145 97.34 98.832C97.3728 98.5616 97.4853 98.3202 97.5322 98.0546C97.6025 97.6563 97.5509 97.2217 97.5509 96.8186C97.5509 96.0605 97.4642 95.3145 97.4689 94.5565C97.4736 93.8008 97.3096 93.0331 97.3728 92.2847C97.4314 91.5798 97.4853 90.8651 97.6236 90.1747C97.6704 89.9453 97.6821 89.7112 97.6892 89.4746C97.8672 89.1366 97.8813 88.6537 97.9867 88.2989C98.1578 87.717 98.4413 87.1594 98.5678 86.5655C98.8209 85.3873 98.6077 84.1657 98.528 82.978C98.4366 81.626 98.0828 80.2065 98.3429 78.8497C98.3874 78.6179 98.514 78.3644 98.5186 78.1351C98.5233 77.9323 98.4976 77.7416 98.5116 77.5315C98.5233 77.3625 98.521 77.2032 98.5257 77.0439C98.5702 76.9135 98.6053 76.7711 98.6335 76.5852C98.6897 76.2255 98.7951 75.885 98.8443 75.5253C98.9943 74.4727 99.2497 73.4491 99.4957 72.4158C99.5731 72.0948 99.7066 71.7157 99.6761 71.3802C99.634 70.9384 99.4887 70.4531 99.3575 70.033V70.0403ZM89.8233 66.6073C89.7928 66.6073 89.7928 66.6556 89.8233 66.6556C89.8537 66.6556 89.8537 66.6073 89.8233 66.6073ZM109.859 100.956C109.831 100.66 109.773 100.37 109.726 100.138C109.623 99.6335 109.562 99.129 109.529 98.6147C109.503 98.1898 109.515 97.7311 109.433 97.3159C109.353 96.9175 109.182 96.5482 109.114 96.1426C109.021 95.5849 109.189 95.049 109.18 94.4889C109.164 93.5425 109.023 92.5961 108.91 91.657C108.85 91.1452 108.742 90.6551 108.664 90.1457C108.632 89.9309 108.629 89.7039 108.571 89.4939C108.482 89.1776 108.353 88.9459 108.341 88.5982C108.339 88.5041 108.186 88.4727 108.172 88.5741V88.5837C108.118 88.3471 108.069 88.113 108.036 87.8764C107.964 87.3742 107.69 86.9469 107.587 86.4568C107.455 85.8267 107.383 85.1845 107.331 84.5448C107.148 82.2778 108.285 79.9023 107.022 77.7971C106.499 76.9256 106.281 75.8199 106.113 74.83C105.907 73.6109 105.892 72.3265 105.857 71.0904C105.843 70.5714 105.942 70.0789 105.942 69.5647C105.942 68.9563 105.874 68.331 105.942 67.7251C106 67.1939 105.953 66.6266 106.038 66.1075C106.129 65.5354 106.071 64.9729 106.188 64.4007C106.307 63.8189 106.342 63.1912 106.399 62.5949C106.464 61.9141 106.427 61.1826 106.328 60.5114C106.244 59.9465 106.139 59.3961 106.042 58.8336C105.911 58.0634 105.67 57.2933 105.616 56.5135C105.614 56.4773 105.588 56.4483 105.557 56.4363C105.55 55.98 105.593 55.5261 105.618 55.0722C105.67 54.1573 105.501 53.2447 105.611 52.3273C105.656 51.9458 105.569 51.5716 105.567 51.1854C105.562 50.6856 105.511 50.1859 105.492 49.6862C105.475 49.2709 105.417 48.8484 105.37 48.4332C105.309 47.9117 105.349 47.4023 105.248 46.8809C104.871 44.9133 104.564 42.8781 103.688 41.0771C103.278 40.2346 103.024 39.293 102.422 38.5615C101.9 37.929 101.281 37.4003 100.719 36.8257C100.021 36.1111 99.1091 35.44 98.2632 34.9233C98.1086 34.8292 97.9375 34.7785 97.7712 34.7109C97.565 34.5395 97.3166 34.3946 97.0729 34.2618C97.0565 34.2474 97.0401 34.2353 97.0237 34.2232C96.9066 34.1291 96.7683 34.0639 96.623 34.018C95.8732 33.61 95.1281 33.3638 94.2729 33.3638C93.2513 33.3638 92.1547 33.7983 91.187 34.1146C90.1771 34.4429 89.2211 34.9354 88.2229 35.3C87.7144 35.4858 87.2341 35.58 86.6975 35.6379C86.3109 35.679 85.9805 35.6645 85.5939 35.5872C85.3689 35.5414 85.1182 35.452 84.8839 35.4931C84.0732 35.6307 84.4762 36.7895 84.5324 37.311C84.6473 38.3708 84.9378 39.3993 85.2237 40.4205C85.5049 41.4175 85.8024 42.3856 86.0414 43.3972C86.1867 44.0056 86.3226 44.6212 86.4304 45.2344C86.5475 45.9007 86.8053 46.5187 86.9763 47.173C87.1427 47.8103 87.3255 48.4525 87.4262 49.1043C87.5223 49.7175 87.6465 50.5166 87.3583 51.1081C87.2294 50.8474 87.2013 50.1207 87.1732 49.971C87.0888 49.5148 86.967 49.0609 86.8568 48.6094C86.6225 47.6606 86.3015 46.7433 86.0391 45.8041C85.6197 44.3097 85.2073 42.8419 84.6894 41.3813C84.4434 40.686 84.2911 39.9642 84.0896 39.2544C83.8857 38.535 83.7311 37.8107 83.539 37.0865C83.4429 36.7219 82.9696 34.4574 82.2549 35.411C82.1073 35.609 82.0464 35.889 81.9761 36.1232C81.8378 36.5915 81.6644 37.043 81.5168 37.5065C81.3669 37.9749 81.2146 38.4312 81.0388 38.8899C80.9662 39.083 80.9123 39.3027 80.8561 39.52C80.6288 39.9738 80.3945 40.4277 80.1484 40.8695C79.7899 41.5141 79.3143 41.98 78.7636 42.4242C78.7496 42.4339 78.7379 42.4436 78.7238 42.4532C78.3442 42.6995 77.9107 42.8781 77.5663 43.1823C77.5593 43.1823 77.5546 43.1823 77.5499 43.1871C76.8516 43.6482 75.9636 43.7207 75.1622 43.7062C74.4523 43.6917 73.5736 43.6 72.9386 43.2378C71.678 42.5184 70.6517 41.3572 69.5785 40.3867C68.4468 39.3655 67.5494 38.0666 66.659 36.8209C66.2653 36.2705 65.8014 35.778 65.4031 35.2275C65.307 35.0658 65.2062 34.9064 65.1102 34.7447C64.904 34.3946 64.7282 34.0349 64.4611 33.7307C64.426 33.6921 64.351 33.6993 64.3276 33.7476L64.3018 33.8056C64.2807 33.82 64.262 33.8394 64.2526 33.8635C64.0909 34.2932 64.262 34.7906 64.3393 35.2251C64.4541 35.8721 64.5713 36.507 64.7095 37.1444C64.9602 38.3008 65.3211 39.421 65.5999 40.575C65.8858 41.7676 66.1248 42.9723 66.4106 44.1649C66.42 44.317 66.4153 44.4739 66.4364 44.6212C66.4692 44.836 66.5254 45.005 66.5231 45.2271C66.5231 45.3913 66.5465 45.5386 66.57 45.6907C66.5301 45.71 66.502 45.7462 66.5067 45.7969C66.5442 46.1445 66.5231 46.4849 66.5653 46.8302C66.6379 47.4385 66.4317 47.9721 66.3614 48.566C66.3145 48.9619 66.4223 49.3313 66.3966 49.7248C66.3755 50.0459 66.4012 50.3597 66.3661 50.6832C66.2536 51.6803 66.1904 52.6677 66.0053 53.6527C65.8412 54.5242 65.6936 55.3644 65.6538 56.2576C65.6304 56.7742 65.5179 57.274 65.4616 57.7858C65.4031 58.3121 65.4218 58.8456 65.4218 59.3719C65.4218 60.41 65.6913 61.383 65.7897 62.4042C65.8787 63.3119 66.1084 64.1907 66.3145 65.0767C66.4036 65.4533 66.5395 65.8347 66.6871 66.1896C66.8019 66.4673 66.8863 66.7473 66.9823 67.0274C67.0456 67.3871 67.2049 67.7444 67.3291 68.0751C67.5072 68.5531 67.8188 68.9563 68.0672 69.3957C68.6975 70.5014 69.4544 71.5395 70.2112 72.5631C70.5322 72.9953 70.886 73.4515 71.2469 73.8475C71.685 74.3303 72.081 75.1077 72.2661 75.7426C72.6668 77.1163 73.2409 78.4393 73.5619 79.8419C73.7962 80.8728 73.9743 81.9181 74.1945 82.9466C74.2578 83.2411 74.225 83.5284 74.2976 83.8181C74.3656 84.0909 74.4406 84.3251 74.4851 84.6051C74.5741 85.1918 74.6725 85.8822 74.6491 86.4785C74.6257 87.1087 74.4944 87.6518 74.314 88.2506C74.1336 88.8517 74.1687 89.3056 74.2836 89.9115C74.3773 90.404 74.5015 91.0076 74.7569 91.4446C74.9982 91.855 75.1341 92.3161 75.345 92.7482C75.5606 93.19 75.7808 93.5932 75.905 94.0784C76.0105 94.4937 76.0222 94.8631 76.055 95.2855C76.0925 95.7829 76.2682 96.2247 76.383 96.6906C76.383 96.7799 76.39 96.8741 76.3947 96.9682C76.4041 97.1976 76.3994 97.4149 76.3713 97.6442C76.3432 97.8856 76.3479 98.523 76.2143 98.7306C76.1885 98.7692 76.1932 98.8223 76.2143 98.861C76.2635 98.9551 76.2846 99.0734 76.294 99.1965C76.294 99.2714 76.294 99.3462 76.294 99.4211C76.2659 99.4476 76.2471 99.4887 76.2307 99.5563C76.2073 99.6649 76.2823 99.8363 76.301 99.9401C76.3479 100.203 76.3549 100.471 76.3947 100.734C76.4767 101.28 76.547 101.794 76.5869 102.345C76.629 102.919 76.5939 103.506 76.6478 104.08C76.7017 104.66 76.7696 105.239 76.8095 105.826C76.8282 106.111 76.8798 106.398 76.8915 106.683C76.9079 107.021 76.8399 107.366 76.8751 107.704C76.929 108.214 76.9313 108.689 76.9383 109.203C76.9477 109.797 77.107 110.377 77.1328 110.968C77.1539 111.429 77.0414 112.026 76.9641 112.479C76.8727 113.013 76.8235 113.554 76.7626 114.09C76.697 114.684 76.6665 115.28 76.6009 115.874C76.5658 116.185 76.4767 116.572 76.7181 116.82C76.9336 117.045 77.2828 116.996 77.5569 116.994C78.0537 116.989 78.5481 117.009 79.0308 116.859C79.9376 116.579 80.7881 116.514 81.0529 115.449C81.2872 114.512 81.1911 113.448 80.9709 112.533C80.8584 112.071 80.9076 111.591 80.8561 111.12C80.7811 110.468 80.8561 109.814 80.8373 109.16C80.8069 108.025 80.4507 106.886 80.2586 105.773C80.05 104.556 80.0571 103.334 80.1273 102.106C80.1625 101.48 79.9399 100.874 79.9961 100.261C80.043 99.7446 80.0735 99.2303 80.132 98.7137C80.2562 97.6104 80.3499 96.4854 80.3921 95.37C80.4132 94.8534 80.4554 94.315 80.5022 93.8008C80.5585 93.149 80.4601 92.4947 80.5257 91.855C80.6452 90.7155 80.9287 89.6629 80.6546 88.5185C80.4976 87.8691 80.453 87.2294 80.3757 86.5655C80.2937 85.8605 80.0547 85.1628 80.0805 84.453C80.1227 83.2411 80.0196 81.9737 79.8368 80.7738C79.7267 80.052 79.5533 79.2818 79.5837 78.5576C79.6072 77.9975 79.4596 77.4519 79.4619 76.8797C79.4642 76.1168 79.5228 75.1222 80.1672 74.6345C80.3078 74.5283 80.4882 74.3882 80.6803 74.2965C80.8326 74.3037 80.9803 74.3231 81.1185 74.3641C81.3083 74.5572 81.4793 74.7528 81.648 74.9749C81.6762 75.0111 81.6972 75.0497 81.7207 75.0859C81.7301 75.1656 81.7371 75.2453 81.7465 75.3274C81.7535 75.4143 81.8261 75.4505 81.887 75.4384C81.9058 75.4867 81.9245 75.5302 81.9433 75.576C81.962 75.634 81.9831 75.6943 82.0042 75.7571C82.2127 76.3896 82.3932 77.0511 82.5291 77.7078C82.6556 78.321 82.843 78.9921 82.8618 79.615C82.8805 80.2282 82.9508 80.8197 83.0235 81.4305C83.0399 81.5826 83.0563 81.7322 83.068 81.8843C83.0563 81.894 83.0492 81.9109 83.0492 81.9302C83.0563 82.2006 83.061 82.4758 83.1242 82.7365C83.1711 83.6732 83.1641 84.6124 83.1617 85.5636C83.1617 86.3192 83.2133 87.0821 83.0563 87.8233C82.9274 88.434 82.9977 89.0352 83.0938 89.646C83.1875 90.2399 83.1523 90.8555 83.3726 91.4301C83.5858 91.9853 83.9748 92.432 84.1271 93.0114C84.2114 93.33 84.2747 93.6632 84.3356 93.9867C84.4106 94.3754 84.3708 94.7351 84.3895 95.1262C84.42 95.7684 84.5653 96.4009 84.6355 97.0407C84.7761 98.3226 85.1159 99.5732 85.1862 100.87C85.2049 101.237 85.2776 101.57 85.2307 101.944C85.2049 102.149 85.1885 102.282 85.2096 102.492C85.294 103.286 85.2635 104.093 85.2635 104.894C85.2635 105.51 85.2073 106.157 85.2635 106.767C85.294 107.101 85.3689 107.357 85.2963 107.697C85.2237 108.035 85.1112 108.351 85.0667 108.699C84.987 109.343 84.9894 110.08 85.0503 110.727C85.0784 111.021 85.1557 111.287 85.1253 111.589C85.0971 111.886 85.069 112.17 85.0573 112.467C85.0315 113.071 84.9964 113.595 85.062 114.201C85.0948 114.5 85.1018 114.891 85.3853 115.053C85.8024 115.292 86.4163 115.065 86.8639 115.104C87.3583 115.147 87.8433 115.193 88.3354 115.048C89.3945 114.732 89.4343 113.643 89.3827 112.677C89.3499 112.071 89.1109 111.502 89.1414 110.886C89.1601 110.5 89.3335 110.227 89.3851 109.86C89.4249 109.587 89.4038 109.31 89.3663 109.039C89.2796 108.431 89.1133 107.835 89.0219 107.224C88.9165 106.516 88.8321 105.809 88.7313 105.102C88.5392 103.759 88.401 102.248 88.5556 100.899C88.647 100.095 88.8227 99.3511 88.8251 98.5375C88.8251 97.7842 88.8251 97.031 88.8251 96.2778C88.8251 95.6308 88.7852 94.9307 88.64 94.2981C88.5462 93.8853 88.408 93.528 88.3963 93.0959C88.3846 92.6106 88.4713 92.1278 88.6072 91.6667C88.7993 91.0124 89.0524 90.3992 89.0477 89.7015C89.043 89.1414 88.8673 88.5934 88.7337 88.0574C88.6915 87.8884 88.6611 87.618 88.6001 87.3549C88.6306 87.2125 88.5884 87.0797 88.5322 86.8817C88.415 86.4761 88.2885 86.0995 88.2323 85.677C88.1221 84.8321 88.2323 83.9774 88.2932 83.1301C88.3236 82.7196 88.415 82.3141 88.4314 81.9061C88.4502 81.4401 88.4314 80.9669 88.4314 80.501C88.4314 79.6053 88.3705 78.7072 88.3471 77.8116C88.3213 76.8845 88.3822 75.9889 88.4408 75.0666C88.4689 74.6224 88.4806 74.1589 88.5486 73.7195C88.6142 73.2825 88.811 72.8914 88.9001 72.4617C89.2047 70.989 89.5421 69.4512 89.528 67.9278C89.528 67.8844 89.5116 67.853 89.4905 67.8265C89.4905 67.8071 89.4905 67.7854 89.4905 67.7661C89.4999 67.4595 89.4577 67.1143 89.4038 66.8149C89.3289 66.3924 89.1812 65.9796 89.0969 65.5571C89.0664 65.4026 89.057 65.2288 89.0125 65.0767C89.0008 65.0356 88.9774 64.9922 88.954 64.9487C88.886 64.5866 88.8087 64.222 88.722 63.843C88.5017 62.8967 88.2627 61.9551 88.0495 61.0088C87.9464 60.5525 87.8363 60.1083 87.7074 59.6616C87.6418 59.4323 87.5317 59.0653 87.609 58.8311C87.7285 58.8891 87.8128 58.9494 87.6933 58.8891C87.9792 59.0315 88.0026 59.046 88.1104 59.3236C88.1831 59.5047 88.2416 59.693 88.3049 59.8765C88.4713 60.3521 88.6001 60.8422 88.7454 61.325C89.0172 62.2352 89.3218 63.1139 89.5069 64.0458C89.6007 64.519 89.7319 65.1201 90.2497 65.2408C90.9456 65.4026 91.6509 65.0863 92.2671 64.8063C92.9935 64.4755 93.7597 64.1545 94.3619 63.6064C94.943 63.0753 95.4983 62.4862 95.9435 61.8272C96.3583 61.2115 96.7566 60.5718 97.1877 59.9586C97.5533 59.4347 97.7712 58.8142 98.2 58.3362C98.2492 58.2831 98.3218 58.16 98.3945 58.1431C98.5421 58.1117 98.4155 58.0924 98.4624 58.2348C98.5093 58.37 98.4202 58.5994 98.3827 58.7297C98.2773 59.1039 98.1344 59.4057 97.9446 59.7389C97.5041 60.509 97.0917 61.3588 96.5153 62.0396C96.0747 62.5587 95.6928 63.1019 95.2945 63.6402C95.0625 63.9517 94.4908 64.5118 94.7884 64.9463C94.9125 65.1274 95.1305 65.1684 95.3179 65.2384C95.6998 65.3785 95.9787 65.5812 96.3044 65.8227C96.6582 66.0834 97.0917 66.2548 97.4056 66.5711C97.6798 66.8463 97.961 67.1215 98.2304 67.4064C99.3973 68.6328 100.079 70.3565 100.426 72.0078C100.623 72.947 100.735 73.9923 100.801 74.9507C100.866 75.8802 100.988 76.8 101.045 77.7319C101.077 78.2751 101.162 78.7748 101.103 79.3204C101.089 79.446 101.077 79.5715 101.068 79.6971C101.035 79.7043 101.002 79.7357 101.012 79.7767C101.026 79.8492 101.038 79.924 101.049 79.9988C101.042 80.1944 101.045 80.3899 101.07 80.5855C101.094 80.7714 101.129 81.0007 101.185 81.2349C101.234 81.6236 101.312 82.0026 101.492 82.3503C101.893 83.1276 102.539 83.7022 102.825 84.5351C103.451 86.3554 103.542 88.3061 104.107 90.1409C104.658 91.925 105.047 93.8008 105.213 95.6646C105.25 96.0798 105.309 96.4902 105.375 96.8982L105.328 96.9369C105.286 96.9707 105.321 97.0407 105.368 97.0431C105.361 97.0576 105.356 97.0721 105.356 97.0914C105.302 97.6032 105.384 98.0957 105.316 98.6027C105.25 99.112 105.258 99.6359 105.267 100.148C105.281 100.966 105.185 101.857 105.075 102.663C105.035 102.955 104.979 103.354 105.152 103.586C105.159 103.672 105.166 103.759 105.18 103.846C105.187 103.892 105.232 103.926 105.272 103.94C105.658 104.071 105.827 103.991 106.228 104.027C106.619 104.064 106.996 104.158 107.39 104.172C108.067 104.194 108.618 104.049 109.142 103.605C109.602 103.219 109.932 102.584 109.993 101.97C110.026 101.649 109.937 101.28 109.866 100.966L109.859 100.956ZM77.3952 64.2414C77.3718 64.3017 77.3156 64.3234 77.257 64.2969L77.2125 64.2752C77.1891 64.2631 77.168 64.2293 77.1727 64.2027L77.1797 64.14C77.1797 64.1207 77.1891 64.1038 77.2008 64.0917C77.1609 64.0482 77.1258 63.9975 77.0953 63.942C77.0532 63.8647 77.1375 63.773 77.2125 63.8213C77.2265 63.8309 77.2453 63.8382 77.2617 63.843C77.2523 63.6523 77.2804 63.4519 77.2664 63.2515C77.2476 62.9522 77.1633 62.6697 77.0883 62.3824C76.9688 61.9286 76.8095 61.6533 76.5822 61.2647C76.4088 60.9677 76.2869 60.6514 76.13 60.3497C75.9214 59.9537 75.6965 59.6278 75.6027 59.1788C75.495 58.6694 75.4786 58.0924 75.6801 57.6023C75.7996 57.3102 76.0222 57.105 76.2752 57.3802C76.4674 57.5854 76.54 58.0489 76.6244 58.3217C76.7064 58.5777 76.7181 58.8529 76.7977 59.1112C76.8938 59.4202 77.0602 59.7123 77.1867 60.0093C77.3601 60.4173 77.5897 60.7359 77.817 61.1101C78.0302 61.4602 78.0958 61.832 78.1779 62.2303C78.3091 62.8749 78.4661 63.4302 78.1005 64.0144C77.9107 64.3186 77.6272 64.3645 77.3929 64.2462L77.3952 64.2414ZM81.7418 72.3482C81.566 72.6911 81.2005 72.6042 80.9568 72.3989C80.453 71.974 80.1789 71.3391 79.5627 71.0229C79.0261 70.7476 78.1989 70.919 77.7608 70.47C77.5452 70.2503 77.5733 69.9485 77.8287 69.7747C78.1568 69.5502 78.5738 69.6854 78.9206 69.7819C79.1456 69.753 79.3682 69.7095 79.4338 69.7168C79.7056 69.7385 79.975 69.8664 80.2187 69.9896C80.7202 70.2407 81.1864 70.668 81.484 71.1556C81.6715 71.4622 81.9269 71.9885 81.7418 72.3507V72.3482ZM90.4278 36.4877C90.4957 36.3936 90.6012 36.3212 90.716 36.3067C90.8261 36.2922 90.9128 36.3356 90.9995 36.3888C91.4705 36.4057 91.6673 37.3206 91.276 37.6538C90.9526 37.9266 90.3528 37.6635 90.3059 37.2482C90.2802 37.0189 90.2872 36.6809 90.4278 36.4877V36.4877ZM88.961 42.0718C88.6142 41.7193 88.5369 41.1085 88.9094 40.744C89.1039 40.5557 89.4577 40.406 89.7225 40.3987C89.8771 40.3939 89.9873 40.4374 90.1091 40.5291C90.2192 40.6136 90.3247 40.7874 90.4606 40.8164C90.5145 40.8285 90.5168 40.8864 90.4887 40.9226C90.5332 40.9854 90.5707 41.0626 90.5918 41.1689C90.6387 41.3958 90.5496 41.6638 90.4395 41.8642C90.1372 42.4098 89.3851 42.5087 88.9586 42.0718H88.961ZM89.8514 44.7926C89.8045 44.4015 90.0693 43.7424 90.47 43.5951C90.6808 43.3537 91.0417 43.1485 91.2455 43.3948C91.4705 43.6676 91.283 44.1576 91.2713 44.4618C91.2573 44.7853 91.269 45.0412 91.0323 45.2851C90.5918 45.7438 89.9217 45.3913 89.8514 44.7926V44.7926ZM90.8894 49.4472C90.5145 49.3289 90.163 48.7929 90.3434 48.3873C90.4348 48.1797 90.6832 48.088 90.8894 48.1507C90.9901 48.1821 91.0698 48.2521 91.1565 48.3077C91.3885 48.0807 91.7353 48.537 91.7821 48.7833C91.8782 49.2902 91.3065 49.5775 90.8894 49.4472V49.4472ZM95.7983 45.6713C95.6366 46.299 94.6876 46.3087 94.2682 45.9731C94.0292 45.7824 93.8417 45.5941 93.5676 45.4517C93.4293 45.3792 93.3052 45.3165 93.2044 45.1933C93.0287 44.9785 92.8529 44.5318 92.9865 44.259C93.1411 43.9476 93.6004 43.9066 93.8909 43.9573C94.0901 43.9911 94.2588 44.0828 94.4322 44.1866C94.7087 44.3508 94.9946 44.4425 95.3039 44.5222C95.3273 44.5294 95.339 44.5487 95.3437 44.5705C95.7022 44.7684 95.9271 45.1716 95.7983 45.6738V45.6713ZM95.4819 42.627C95.2195 42.6898 94.8797 42.6946 94.6384 42.557C94.4486 42.4484 94.1768 42.1563 94.1299 41.9269C94.0831 41.7048 94.2307 41.4417 94.3807 41.2848C94.3807 41.263 94.3924 41.2389 94.4158 41.2341C94.4275 41.2316 94.4392 41.2268 94.451 41.2244C94.5798 41.1254 94.7228 41.1037 94.8727 41.1133C95.0485 41.0747 95.2242 41.0554 95.4093 41.0964C95.6436 41.1471 95.8498 41.3113 95.9623 41.5286C96.1989 41.9825 95.9716 42.5112 95.4843 42.6295L95.4819 42.627ZM96.3325 39.7445C96.2364 40.2128 95.8357 40.5581 95.3624 40.5098C95.1586 40.4881 94.9688 40.3867 94.7556 40.4012C94.5306 40.4156 94.4088 40.517 94.2073 40.5943C93.9987 40.6764 93.7504 40.7247 93.5278 40.6909C93.0005 40.6112 92.4288 40.505 92.1031 40.0294C92.068 39.9787 92.1266 39.9038 92.1828 39.9231C92.2179 39.9352 92.2507 39.9473 92.2859 39.9594C91.9274 39.4982 91.8079 38.8223 92.1617 38.3443C93.0123 37.1975 94.786 37.8228 95.7655 38.4263C96.2388 38.7185 96.452 39.1772 96.3372 39.7421L96.3325 39.7445ZM97.5978 39.4693C97.8298 38.7185 98.7764 38.5446 99.3856 38.8802C99.4465 38.914 99.4231 38.9961 99.3692 39.0178C99.8941 39.3437 100.222 39.9787 100.262 40.674C100.306 41.4731 99.4372 42.4798 98.6194 42.0814C97.8719 41.7169 97.3588 40.2466 97.5978 39.4693V39.4693ZM97.0003 45.6762C96.7097 45.2561 96.8714 44.8264 97.0893 44.4111C97.3236 43.9645 97.2721 43.9162 97.2323 43.4189C97.2182 43.2282 97.2205 43.0302 97.319 42.8588C97.5275 42.5015 97.811 42.5474 98.1039 42.6464C98.6335 42.7309 99.1489 43.2475 99.3692 43.7158C99.8144 44.6622 99.3809 46.2049 98.2023 46.2556C97.736 46.2749 97.2674 46.0624 96.9979 45.6738L97.0003 45.6762ZM101.818 48.1869C101.628 49.1333 100.278 49.4761 99.4934 49.3699C98.9545 49.2975 98.5749 49.143 98.2562 48.6601C98.1484 48.4984 98.0875 48.3415 98.0664 48.1845C98.0289 48.1628 98.0078 48.1097 98.0453 48.0686C98.05 48.0638 98.0547 48.059 98.057 48.0542C98.0594 47.849 98.132 47.6462 98.2656 47.4385C98.3124 47.3661 98.4202 47.412 98.4015 47.4965C98.3851 47.5641 98.3734 47.6293 98.3663 47.6944C98.6007 47.4361 98.8631 47.2188 99.2356 47.2044C99.648 47.1899 99.8894 47.441 100.311 47.202C100.501 47.0933 100.651 46.9267 100.859 46.8446C101.68 46.5236 101.947 47.5448 101.818 48.1869V48.1869ZM102.235 43.3392C102.169 43.8535 101.766 44.3025 101.234 44.2325C100.738 44.1649 100.149 43.8631 100.426 43.2668C100.55 42.9964 100.784 42.7647 101.04 42.627C101.103 42.5932 101.171 42.5619 101.241 42.5401C101.255 42.5015 101.293 42.4774 101.335 42.5063C101.34 42.5087 101.344 42.5112 101.349 42.5136C101.361 42.5136 101.373 42.5087 101.384 42.5063C101.525 42.4894 101.621 42.5546 101.726 42.6053C101.834 42.6174 101.942 42.6415 102.036 42.726C102.228 42.8998 102.27 43.0785 102.237 43.3368L102.235 43.3392Z" fill="#303E30"/>
</svg>
