<svg width="160" height="120" viewBox="0 0 160 120" fill="none" xmlns="http://www.w3.org/2000/svg">
<path d="M84.5761 68.2426C85.3199 68.6991 85.9899 69.5277 86.8326 69.8039C87.4589 70.0117 88.2326 69.9774 88.8566 69.7834C89.2135 69.6715 89.3171 69.5323 89.6625 69.6419C90.1345 69.7925 90.4407 70.2308 90.9611 70.3015C91.7693 70.4111 92.2275 69.7583 92.9413 69.6008C93.7703 69.4182 94.7373 70.6713 95.5156 70.9978C96.5333 71.4269 98.8589 71.0891 98.0553 69.5163C97.6224 68.674 96.6185 68.1422 96.006 67.4369C95.2393 66.5535 94.7972 65.419 94.0189 64.5608C92.6374 63.036 91.1016 61.9175 89.1652 61.219C87.9241 60.7693 86.4642 60.4224 85.785 59.1943C85.5685 58.8063 85.4051 58.4479 85.1011 58.1169C85.032 58.0439 84.9446 57.9685 84.8479 57.8932C85.184 57.9046 85.5594 57.8088 85.8863 57.843C86.9041 57.9526 87.8181 58.61 88.8612 58.2813C89.1905 58.1763 89.3701 57.948 89.6487 57.7973C90.0355 57.5851 89.3908 57.1947 90.4638 57.7357C90.6019 57.8042 90.7286 57.9503 90.8529 58.0439C91.7325 58.7104 92.7295 59.2285 93.7956 59.523C94.4357 59.6988 95.0896 59.8814 95.6422 59.4203C96.0958 59.0414 96.3169 58.3223 96.1073 57.7677C95.7988 56.9528 94.6683 56.4415 93.9959 55.9735C92.6904 55.0673 92.1608 53.9146 91.2375 52.698C90.0839 51.1777 88.5342 49.9474 86.6484 49.4977C85.7251 49.2763 84.6936 49.2078 83.9222 48.6395C83.1025 48.0368 82.8124 47.0416 81.8821 46.528C81.3963 46.261 80.8644 46.1674 80.45 45.7679C79.9641 45.2954 80.024 45.0763 80.6756 45.195C81.4746 45.3433 82.2252 46.0395 83.0403 45.526C83.3443 45.3365 83.388 45.1151 83.7725 45.1585C84.1018 45.1973 84.461 45.6241 84.7811 45.7633C85.3797 46.0258 86.128 45.9003 86.6461 45.5031C87.1504 45.1174 86.9294 44.2728 87.6202 44.8503C88.403 45.5054 89.0293 46.2107 89.9572 46.7038C90.6756 47.085 93.3052 47.8702 93.0312 46.2039C92.9183 45.51 92.0617 44.8868 91.6542 44.3824C90.8897 43.4351 90.2589 42.3417 89.3171 41.5542C88.6102 40.963 88.053 40.2394 87.2448 39.7669C86.485 39.3195 85.5202 39.2579 84.6821 39.0091C83.7403 38.7283 82.7433 38.6096 81.7993 38.3448C80.6687 38.0298 80.0516 36.941 78.951 36.6694C78.4629 36.5507 78 36.505 77.5672 36.2083C77.0583 35.8568 76.7106 35.3112 76.2317 34.9209C76.0244 34.752 74.7051 33.8777 75.5248 33.8138C75.8863 33.7841 76.6185 34.1973 76.9777 34.2612C77.5303 34.3616 77.9263 34.3434 78.304 33.9348C78.647 33.5627 78.2349 33.5376 78.8083 33.7704C79.2918 33.9667 79.7016 34.2703 80.1691 34.4963C80.7539 34.7794 81.4907 34.9414 82.0802 34.5443C82.3611 34.3525 82.3127 34.2886 82.4624 34.0398C82.5107 33.9576 82.4371 33.6563 82.4854 33.6198C82.5361 33.581 83.4249 33.8435 83.4756 33.8503C84.3183 33.985 85.4557 34.1676 86.1788 33.581C86.8672 33.024 86.759 32.2571 86.1511 31.7092C85.4903 31.1089 84.4012 30.9103 83.5838 30.6158C82.2506 30.1365 81.4999 29.2143 80.3924 28.4063C79.5566 27.7945 78.6309 27.4704 77.8066 26.8061C76.8672 26.0483 75.8103 25.4708 74.8732 24.713C74.0995 24.0875 73.8831 23.0375 73.0334 22.5057C72.5038 22.177 72.0318 21.9738 71.6105 21.4762C71.272 21.0791 70.9865 20.6294 70.7493 20.1637C70.7608 20.0793 70.823 19.988 70.9197 19.7871C71.1085 19.3831 71.318 19.2278 71.3203 18.7645C71.3203 18.3011 71.0717 17.8332 70.9105 17.4063C70.5766 16.5138 70.1368 15.6304 69.6256 14.8224C68.9602 13.7678 68.0438 13.0556 67.9033 11.7477C67.7836 10.6634 67.9056 9.67506 67.5418 8.62962C67.1596 7.53396 67.1872 6.46569 66.9386 5.35177C66.8327 4.88612 66.6162 4.07806 66.0268 4.00502C65.4534 3.93197 64.9353 4.67383 64.6728 5.09383C64.0926 6.02286 63.6252 7.03407 63.0657 7.97907C62.4278 9.06332 61.79 10.0814 61.4884 11.3071C61.2466 12.2841 61.0648 13.3341 60.3809 14.117C60.0908 14.4526 59.6947 14.6923 59.4207 15.0369C59.1375 15.3953 58.9418 15.8427 58.6977 16.2308C58.2763 16.9041 57.9448 17.3561 57.3392 17.9108C57.1274 18.1048 56.8925 18.2783 56.7267 18.5157C56.1257 19.3808 55.6676 20.3418 55.2577 21.3119C54.864 22.2455 54.6429 23.227 54.3252 24.1857C53.9798 25.2289 53.5008 26.2149 53.0426 27.2147C52.5729 28.2442 51.4401 28.9632 50.5213 29.591C49.4645 30.31 48.2142 30.4629 47.1158 31.0769C46.4136 31.4673 45.306 31.9786 44.6452 32.6999C43.9176 33.1678 43.3719 33.7933 43.9798 34.4278C44.3712 34.8364 45.2554 34.5465 45.709 34.4529C46.5517 34.2795 47.2425 33.5878 48.0829 33.4509C47.7168 34.3753 46.2823 35.8408 48.0898 36.1329C48.3961 36.1832 48.6631 36.1147 48.9394 35.98C49.3654 35.77 49.9457 34.962 50.3118 35.3044C50.6963 35.6627 50.519 36.3087 51.2581 36.384C51.714 36.4297 52.0986 36.1147 52.3495 35.7654C52.4647 35.6034 52.5914 35.1651 52.7341 35.1423C52.6766 35.1971 53.0679 35.6924 53.0841 35.7015C53.4985 35.9595 54.0074 35.6856 54.3574 35.4436C54.5278 35.3249 54.6912 35.188 54.8248 35.0305C55.0965 34.7086 55.0412 34.3685 55.1748 34.7565C55.3406 35.2313 55.1448 36.384 54.986 36.7881C54.7327 37.4295 54.1709 37.8974 53.7173 38.4179C53.0748 39.1574 52.1216 39.7578 51.2535 40.2348C49.5542 41.1684 47.8411 41.7254 46.0106 42.3234C44.9952 42.6544 43.9521 42.8461 42.9666 43.2661C41.9098 43.7181 41.1776 44.3664 40.222 44.9484C39.6786 45.2817 37.8826 46.8316 38.8957 47.5118C39.2803 47.7721 39.8605 47.5461 40.2197 47.3452C40.245 47.3224 40.4568 47.1626 40.6134 47.0599C40.5835 47.1466 40.5743 47.2539 40.572 47.2813C40.5559 47.5438 40.5536 47.7036 40.6825 47.9181C41.0302 48.4842 41.9213 48.5436 42.4693 48.2674C42.718 48.1441 42.8492 47.9478 43.038 47.7469C43.0703 47.7127 43.3051 47.3954 43.4065 47.3566C44.3689 46.9891 43.8186 47.4776 43.8969 47.7218C44.0396 48.1692 43.913 48.6029 44.4886 48.8152C45.1172 49.0458 45.7136 48.4294 46.1925 48.1281C46.2961 48.0642 46.409 47.8519 46.462 47.8246C46.607 47.8017 46.7544 47.7789 46.8994 47.7561C47.2103 47.578 47.4175 47.6397 47.528 47.941C47.7283 48.0871 47.8319 48.3655 48.0392 48.5162C48.7668 49.048 49.3309 48.3678 50.0631 48.418C50.671 48.4591 51.0716 49.0617 51.7094 48.9019C52.1745 48.7855 52.421 48.0642 52.9045 48.3016C53.319 48.5048 53.0702 48.3747 53.0288 48.7467C52.9758 49.2101 52.49 49.5913 52.1769 49.9109C50.595 51.5338 48.4813 52.1045 46.4228 52.9148C45.4373 53.3028 44.4057 53.5973 43.4341 54.015C42.5959 54.3734 41.9351 54.8391 41.196 55.3435C40.6664 55.7065 38.997 57.2472 40.5052 57.6376C40.694 57.6855 40.869 57.6261 41.044 57.5828C41.2881 57.5234 41.5782 57.2678 41.8499 57.2952C42.9183 57.4024 42.1423 57.4367 42.1216 57.6261C42.1055 57.7905 41.8476 57.9617 41.8246 58.1785C41.7992 58.4205 41.896 58.6419 42.0594 58.8108C42.2137 58.9706 42.4048 59.0505 42.6305 59.0733C42.8699 59.0984 43.3074 58.8382 43.4847 58.893C44.2837 59.1304 43.2015 60.2169 43.0449 60.484C42.8653 60.7876 42.6443 61.2601 42.6788 61.6276C42.7364 62.2279 43.1601 62.3283 43.6206 62.5383C43.9844 62.7027 44.263 62.0293 44.2653 63.1934C44.2653 63.4719 43.814 63.9193 43.639 64.1019C43.1486 64.6201 42.4992 64.983 41.9121 65.3802C41.0832 65.9417 40.1161 66.2248 39.2733 66.7635C38.449 67.2908 37.5856 67.9824 36.9339 68.7106C36.3698 69.336 36.0405 70.0139 35.6652 70.7489C35.3475 71.3698 34.8225 72.1642 35.0597 72.89C35.5962 74.5358 37.3138 72.6321 37.779 72.0272C37.8342 71.9542 38.0783 71.5456 38.1934 71.5227C38.4836 71.468 38.1865 71.4543 38.4836 71.6917C38.6539 71.8286 38.6862 72.0089 38.9003 72.1185C39.4023 72.3719 39.971 72.066 40.3279 71.7145C40.5513 71.4931 40.6411 71.258 40.7861 70.9886C40.9818 70.6325 41.0279 70.3335 41.4723 70.3107C41.8959 70.2901 41.7993 70.3677 42.1354 70.6143C42.6512 70.9932 43.0288 70.9795 43.5515 70.6805C43.8808 70.4933 44.1778 70.2285 44.507 70.0459C44.8593 69.8496 45.0896 69.9546 45.5064 69.8496C46.1188 69.6944 46.8073 69.1214 47.1665 68.617C47.4175 68.2632 47.6178 67.7176 48.0139 67.4665C48.0945 67.414 48.7691 67.1378 48.8842 67.204C48.9233 67.2268 49.0615 67.5487 49.1191 67.6217C49.4783 68.076 49.9779 68.1947 50.5098 67.9801C50.9335 67.8112 51.3065 67.2862 51.7993 67.3136C52.5752 67.3592 52.7963 67.955 53.2982 68.359C53.6505 68.6444 54.1179 68.7745 54.5416 68.5599C54.9284 68.3659 55.1541 67.4825 55.4488 67.4026C55.5501 67.5145 55.6514 67.6263 55.7504 67.7382C56.1396 67.9641 56.1603 68.2426 55.8149 68.5713C55.6537 68.8475 55.4419 69.1146 55.2324 69.3542C54.8409 69.8085 54.3896 70.2125 53.9314 70.5983C53.0611 71.3287 52.1285 71.8994 51.1591 72.486C50.1598 73.0932 49.3217 73.8647 48.4168 74.5952C46.7267 75.9579 44.7143 77.0627 43.2959 78.7313C42.6558 79.4868 41.8131 81.4271 43.1071 82.0708C43.487 82.2602 43.837 82.1141 44.1594 81.8836C44.4219 81.6964 44.6176 81.4408 44.8386 81.2102C44.9215 81.1258 45.0182 80.9797 45.1218 80.9021C45.6837 80.4843 46.0521 80.8153 46.5978 81.0344C47.1204 81.2467 47.4566 81.4796 48.0369 81.2079C48.2971 81.0869 48.5043 80.8746 48.7046 80.6783C49.3263 80.078 49.6855 79.9502 50.5282 80.2424C50.7838 80.3314 50.8806 80.4889 51.1822 80.4912C51.6358 80.4935 51.7578 80.2173 52.2068 80.3314C53.6759 80.7012 51.4055 82.687 51.3733 83.3878C51.3479 83.906 51.6887 83.9379 51.9627 84.2644C52.4348 84.8259 52.0433 85.2071 51.6197 85.6979C51.1776 86.2092 50.6641 86.6223 50.1322 87.0378C49.4622 87.5605 48.8865 88.0421 48.5688 88.8456C48.3063 89.5075 47.901 90.4594 48.4606 91.0734C48.8842 91.5368 49.3678 91.4249 49.8352 91.0985C50.0839 90.925 50.2335 90.6648 50.4361 90.4526C50.9956 89.8591 51.1868 90.1946 51.8821 90.0964C52.4486 90.0188 52.5246 89.7586 52.8354 89.3318C53.1831 88.8501 52.7502 88.6516 53.8232 88.2749C54.0719 88.1882 54.3712 88.2247 54.6268 88.1768C54.9607 88.1129 55.2163 88.0444 55.4834 87.8275C55.9277 87.4692 56.1235 86.9122 56.3031 86.3918C56.4412 85.9923 56.554 85.5814 56.6922 85.182C56.7774 84.9377 56.851 84.552 57.0099 84.3785C57.4428 84.1982 57.8757 84.0156 58.3109 83.8329C58.4974 83.9083 58.6931 83.9585 58.8958 83.9813C59.4691 84.0041 59.9342 83.6458 60.2589 83.1961C60.8759 82.3447 60.671 81.128 61.7993 80.7286C62.4486 80.5003 63.0219 80.2949 63.4226 79.6808C63.616 79.3818 63.6712 79.0577 63.7749 78.7267C63.9453 78.188 64.2538 78.0511 64.6406 78.0374C65.1932 78.3638 65.0712 79.6877 65.1034 80.1488C65.1426 80.7286 65.2071 81.3015 65.2715 81.8745C65.4281 83.2943 65.3475 84.7277 65.5018 86.1407C65.6422 87.4349 65.8932 88.6926 65.9623 89.996C66.0383 91.409 66.234 92.8219 66.3284 94.2371C66.409 95.4675 66.6001 96.7138 66.6623 97.9647C66.6968 98.6905 66.8326 99.421 66.8073 100.145C66.7797 100.882 66.6047 101.612 66.5472 102.347C66.4458 103.648 66.7221 104.856 66.9317 106.136C67.2057 107.828 67.0629 109.522 67.2517 111.222C67.3783 112.366 67.5188 113.79 67.9954 114.845C68.4352 115.822 69.7776 116.009 70.7539 116C71.972 115.988 72.8999 115.714 73.8808 115.014C74.8501 114.32 74.933 113.45 74.8547 112.3C74.689 109.889 74.4633 107.435 74.0028 105.066C73.5515 102.749 73.5078 100.275 73.1992 97.9327C72.9782 96.2459 72.414 94.632 72.2851 92.9292C72.2298 92.1942 72.1032 91.4637 72.0065 90.7333C71.8868 89.8225 71.8568 88.9095 71.691 88.0056C71.3664 86.2388 71.44 84.4082 71.2236 82.6323C71.12 81.7877 70.9197 80.9431 70.7055 80.1214C70.6434 79.884 70.6066 79.6534 70.5812 79.4275C70.6941 79.5074 70.8069 79.5895 70.9151 79.6786C71.3203 80.0118 71.6289 80.4204 71.9582 80.8244C72.5914 81.6005 72.9851 82.5752 73.6782 83.2965C74.3966 84.0475 75.1863 84.6981 75.8702 85.4878C76.5149 86.2274 76.9593 86.7958 77.7813 87.3368C78.4743 87.7933 78.9671 88.4712 79.6372 88.978C80.2519 89.4459 81.6519 90.0668 81.6842 88.7452C81.6911 88.51 81.6058 88.3229 81.5206 88.1014C81.2996 87.5194 81.3111 87.145 81.3756 86.5607C81.4723 85.6796 81.0118 84.6752 80.6894 83.8786C80.5904 83.6343 80.321 83.2463 80.2727 82.9952C80.1322 82.2693 80.7608 82.5615 81.1707 82.6893C81.7187 82.8583 82.1401 82.9564 82.665 82.6482C82.9851 82.4634 83.1624 82.0685 83.4525 81.8973C84.1479 81.4841 84.7949 81.8082 85.4742 81.9931C86.1327 82.1712 86.8787 82.6894 87.5833 82.6391C88.852 82.5455 89.43 81.6074 90.777 82.3835C91.4677 82.7807 91.9489 83.365 92.8078 83.1071C93.3926 82.9313 93.5354 82.7122 94.2492 83.0409C94.6913 83.2463 95.1081 83.5545 95.5455 83.7759C96.0245 84.0201 96.6807 84.3831 97.1918 84.0064C98.4306 83.0957 96.508 81.4567 95.861 80.9637C95.4856 80.6783 95.0988 80.4113 94.7166 80.1419C94.1686 79.7562 93.8624 79.3088 93.4755 78.7769C92.9736 78.0876 92.5568 77.3023 91.9558 76.6883C91.3503 76.0674 90.5444 75.5835 89.7868 75.1749C89.2388 74.8805 88.7299 74.5564 88.2671 74.1341C87.8918 73.794 87.6546 73.342 87.2839 73.0042C86.7636 72.5317 85.9899 72.2189 85.3544 71.9291C84.7765 71.6643 83.9729 71.1644 83.6943 70.5367C83.5101 70.1189 83.5193 69.6145 83.3374 69.1853C83.2292 68.9342 82.6466 68.2951 82.6742 68.044C82.7847 67.042 84.2975 68.0737 84.5761 68.2426V68.2426Z" fill="#303E30"/>
<path d="M125.987 65.8859C125.861 64.6611 124.246 64.0304 123.477 63.263C122.912 62.698 122.445 62.1311 121.996 61.4695C121.654 60.9682 121.205 60.3813 120.643 60.1188C120.502 60.0532 120.365 60.035 120.226 59.9803C119.757 59.7889 119.783 59.7452 119.532 59.3843C119.382 59.1692 119.248 59.0288 119.041 58.8684C118.379 58.3508 117.692 57.8422 117.108 57.2353C117.059 57.1842 116.462 56.5991 116.539 56.5335C116.539 56.5736 117.077 56.7796 117.112 56.7832C117.502 56.8033 118.137 56.6101 118.397 56.2929C118.596 56.0505 118.635 55.7698 118.468 55.5037C118.38 55.3597 118.001 55.2357 118.258 55.1391C118.633 55.0024 119.318 55.6167 119.563 55.8099C120.33 56.4077 121.474 56.9564 122.232 56.138C122.509 55.839 122.544 55.8609 122.965 55.9338C123.307 55.9922 123.657 56.0796 123.997 56.1088C124.475 56.1507 124.946 56.0505 125.255 55.6568C126.189 54.4702 124.427 53.6354 123.629 53.2052C123.248 52.9992 122.862 52.8625 122.503 52.6073C122.036 52.2774 121.599 51.8983 121.182 51.5064C120.491 50.8557 120.149 49.9553 119.556 49.2262C118.999 48.5408 118.395 47.9029 117.926 47.1537C117.518 46.5012 117.469 46.051 116.766 45.6281C116.661 45.5661 116.544 45.5133 116.447 45.4404C116.308 45.3583 116.196 45.2526 116.114 45.1177C115.949 44.9537 115.982 44.9282 116.22 45.043C116.495 45.0084 116.778 45.1287 117.068 45.0485C117.419 44.9482 117.58 44.7441 117.602 44.4725C118.543 44.56 119.962 44.9081 120.228 43.8035C120.332 43.3679 120.107 43.038 119.715 42.843C119.422 42.6953 119.083 42.6552 118.781 42.5276C118.428 42.3782 118.076 42.1777 117.754 41.9699C117.103 41.5506 116.694 40.9072 116.079 40.4679C115.643 40.1563 115.127 40.0487 114.605 39.9722C113.778 39.85 113.003 39.604 112.198 39.3852C111.625 39.2303 110.759 38.9259 110.596 38.2952C110.979 38.1257 111.519 38.6653 111.927 38.6215C112.231 38.5887 112.502 38.1476 112.595 38.1385C112.654 38.1312 113.045 38.3353 113.152 38.3572C113.353 38.3991 113.571 38.432 113.778 38.4283C114.16 38.4192 114.538 38.3007 114.69 37.9179C114.796 37.6518 114.854 37.3256 115.255 37.3019C115.499 37.2873 115.869 37.4987 116.11 37.5333C116.608 37.6044 117.375 37.7521 117.848 37.4896C118.765 36.9792 117.696 36.1007 117.189 35.7781C115.962 35.0052 114.653 34.2634 113.294 33.7494C111.643 33.1223 110.55 31.8027 109.64 30.3481C108.836 29.0668 107.782 28.0023 106.975 26.7227C106.206 25.5015 105.667 24.0688 105.409 22.6544C105.12 21.0723 104.884 19.4518 104.457 17.9116C104.234 17.1078 103.807 16.386 103.635 15.5603C103.513 14.9679 103.406 14.1076 103.042 13.6063C102.949 13.4769 102.791 13.4514 102.669 13.559C102.37 13.8178 102.35 14.175 102.236 14.5432C102.081 15.0572 101.881 15.5567 101.724 16.0689C101.566 16.5719 101.457 17.0714 101.402 17.5872C101.347 18.1103 101.103 18.5806 101.07 19.1055C101.037 19.6852 100.942 20.2101 100.851 20.7788C100.744 21.4259 100.505 21.9472 100.265 22.5632C99.8949 23.5092 99.6642 24.5263 99.3475 25.4887C99.0253 26.4675 98.6793 27.326 98.1703 28.2265C97.579 29.2727 96.9034 30.2406 96.4127 31.3452C95.9074 32.488 95.0799 33.4541 94.2524 34.38C93.8698 34.8084 93.5439 35.3297 93.1411 35.7325C92.8885 35.9858 92.6285 36.1517 92.4912 36.4926C92.3942 36.5491 92.3008 36.6019 92.2056 36.6621C91.6417 37.0102 91.1181 37.3966 90.5597 37.7521C90.3071 37.9125 89.7414 38.1585 89.7615 38.5413C89.7816 38.8913 90.1881 39.0243 90.4682 39.0644C90.9131 39.1282 91.3964 39.0316 91.8046 38.8567C92.1012 38.7327 92.374 38.5595 92.6633 38.4174C92.7384 38.3754 92.8171 38.3408 92.8958 38.308C93.0057 38.3007 93.0496 38.2479 93.0294 38.144C93.0368 38.144 93.0386 38.1403 93.0423 38.1385C93.0459 38.1549 93.0496 38.1749 93.0606 38.2023C93.1869 38.5905 93.1869 38.9824 93.7068 39.0444C94.1535 39.0991 94.5124 38.7965 94.8492 38.5431C94.9078 38.7108 94.9188 38.8968 95.1019 39.0171C95.3088 39.1556 95.5285 39.1264 95.7463 39.0316C95.902 38.9624 96.0246 38.8056 96.1802 38.7473C96.2278 38.7272 96.3578 38.5869 96.4072 38.5978C96.6013 38.6416 96.4896 39.1009 96.4548 39.1811C96.2773 39.5894 95.7134 39.8974 95.3985 40.1964C94.5508 41.0093 93.5274 41.7329 92.4527 42.2305C91.6088 42.6188 90.7721 43.0526 90.0288 43.6213C89.7102 43.8655 89.1793 44.2209 89.4008 44.6748C89.5198 44.9172 89.8274 45.0321 90.08 45.0831C90.2357 45.1141 90.4023 45.1159 90.5597 45.1123C90.6128 45.1123 90.697 45.0922 90.7703 45.0886C90.4352 45.5552 89.886 45.896 89.4429 46.2497C88.782 46.7819 87.9563 47.4654 87.4766 48.1672C87.1746 48.6064 87.5261 48.9947 88.0277 48.9236C88.5165 48.8525 89.0566 48.5481 89.5143 48.3494C90.0544 48.1125 90.5103 47.7753 91.0009 47.4636C91.065 47.6222 91.0778 47.7716 91.2737 47.9047C91.4312 48.0122 91.6179 48.0523 91.8065 48.0286C92.0481 47.9995 92.2257 47.8646 92.3923 47.7006C92.4949 47.6039 92.6688 47.2522 92.8628 47.3087C92.9269 47.3269 93.024 47.5602 93.1027 47.6167C93.511 47.9047 94.0254 47.5784 94.3677 47.3232C94.5673 47.1738 94.7595 46.884 94.9444 46.904C95.1422 46.9259 95.1879 47.1209 95.4681 47.079C95.7006 47.0444 95.9093 46.873 96.0832 46.7272C96.2333 46.6014 96.3633 46.4501 96.5061 46.3153C96.6617 46.1676 96.7862 45.8796 96.8668 46.1585C96.9492 46.4374 96.5446 47.0043 96.3944 47.2376C96.14 47.6386 95.9074 48.0195 95.6749 48.4351C94.5893 50.3927 92.5278 51.7835 90.7263 53.032C90.2302 53.3747 89.7212 53.6992 89.2196 54.0345C88.8735 54.2642 88.5861 54.5577 88.2456 54.791C87.5041 55.2959 86.5796 55.6258 86.0908 56.4478C85.8784 56.8014 86.0084 57.1314 86.3837 57.2936C87.1087 57.6016 88.1596 56.9892 88.7308 56.6028C89.0017 56.4187 89.2818 56.2656 89.5198 56.0414C89.7212 55.8518 89.9922 55.4399 90.2869 55.5675C90.4444 55.6385 90.4975 55.8846 90.7391 55.9448C90.9735 56.0013 91.2792 55.9047 91.4861 55.8153C91.6509 55.7443 92.2825 55.1592 92.3942 55.1592C92.5846 55.1628 92.8354 55.5347 93.0496 55.6185C93.6757 55.87 93.9815 55.5201 94.4703 55.2558C94.7028 55.13 94.4648 54.924 94.7907 55.2339C94.8785 55.3177 94.9115 55.4946 94.9884 55.5948C95.1165 55.768 95.252 55.8883 95.4626 55.9557C95.6987 56.0286 95.9642 56.0049 96.1894 55.9156C96.4329 55.819 96.6892 55.4107 96.9125 55.3706C97.0682 55.5346 97.2238 55.7005 97.3776 55.8646C97.2915 55.9867 97.2018 56.1033 97.1121 56.2236C96.9125 56.4916 96.7167 56.7632 96.4915 57.0129C96.151 57.3829 95.7628 57.6691 95.3564 57.9625C94.5508 58.5385 93.9723 59.2202 93.2839 59.9129C92.6596 60.5399 91.8761 60.95 91.2463 61.5606C90.4096 62.3754 89.4979 63.2977 88.4104 63.7388C88.0149 63.8992 87.6799 64.1525 87.2771 64.2983C86.7919 64.4733 86.2702 64.5389 85.7649 64.641C84.7799 64.8415 84.2618 65.299 83.4361 65.8076C83.1157 66.0062 82.6745 66.3052 83.0187 66.7317C83.3958 67.2038 84.3973 66.9285 84.8934 66.8629C85.3017 66.8064 85.7136 66.759 86.1072 66.6296C86.1933 66.6023 86.305 66.5458 86.3745 66.5166L86.7224 66.3671C86.9494 66.2705 87.1416 66.3015 87.2936 66.4583C87.9179 66.5932 88.2035 66.3653 88.6832 65.988C89.0914 65.6672 89.0145 65.9279 89.3624 66.05C89.6169 66.1393 89.9537 66.0573 90.2045 65.9971C90.6824 65.8823 91.1327 65.6727 91.6088 65.5433C91.8742 65.4722 92.3942 65.237 92.6541 65.3027C93.1631 65.4339 92.8592 66.2396 92.6688 66.5932C92.4198 67.0488 92.0664 67.2712 91.6289 67.5045C90.9661 67.8545 90.1167 68.3357 89.7853 69.0575C89.5656 69.5387 89.7633 69.9597 90.2851 70.1019C91.0064 70.3024 92.0921 69.5004 92.6157 69.1067C92.9654 68.8424 93.3755 68.2737 93.8222 68.6219C94.04 68.7896 94.1462 69.0939 94.3568 69.278C94.8053 69.6736 95.2044 69.4986 95.6475 69.1887C95.9971 68.9463 96.2956 68.4997 96.7478 68.5635C97.0114 68.6018 97.1634 68.7403 97.4526 68.7075C98.1923 68.6237 98.7415 67.9383 99.1974 67.4225C99.3859 67.2111 99.8162 66.5786 100.142 66.6205C100.655 66.6861 100.265 67.3915 100.153 67.6595C99.8565 68.3612 99.1589 69.0484 99.2139 69.8413C99.2267 70.0181 99.3438 70.1202 99.5178 70.142C99.9315 70.1931 100.391 70.0327 100.768 69.8723C101.048 69.7538 101.217 69.5806 101.566 69.721C101.718 69.7811 101.83 69.998 102 70.0691C102.279 70.1821 102.528 70.1402 102.758 69.947C102.908 69.8212 102.989 69.6481 103.073 69.4804C103.134 69.3346 103.194 69.1887 103.251 69.0429C103.32 68.8552 103.412 68.8297 103.524 68.9627C103.903 68.9427 104.062 69.0028 104.388 68.682C104.664 68.4086 105.016 67.4845 105.03 68.3685C105.038 68.8351 104.77 69.3911 104.895 69.8595C104.937 70.0199 104.959 70.1001 105.067 70.2022C105.032 70.3024 105.049 70.4264 105.14 70.4975C105.146 70.7271 105.206 70.9568 105.212 71.2193C105.226 71.9338 105.285 72.6246 105.266 73.3446C105.25 73.9406 105.363 74.5239 105.382 75.1217C105.402 75.7706 105.439 76.4213 105.517 77.0648C105.68 78.3862 105.785 79.7205 105.898 81.0474C105.948 81.6398 105.937 82.2085 106.019 82.7991C106.11 83.4589 106.207 84.1497 106.233 84.8114C106.257 85.4876 106.196 86.1638 106.196 86.8401C106.196 87.5528 106.35 88.2472 106.363 88.9544C106.383 90.2449 106.341 91.6102 106.543 92.8879C106.647 93.5441 106.572 94.2094 106.583 94.8729C106.592 95.5509 106.735 96.2253 106.775 96.907C106.806 97.4429 106.821 97.9678 106.889 98.5019C106.984 99.2164 106.759 99.8963 106.815 100.609C106.916 101.859 106.85 103.154 107.099 104.388C107.271 105.239 107.819 105.625 108.697 105.55C109.496 105.481 109.988 104.916 110.169 104.172C110.473 102.933 110.482 101.478 110.384 100.212C110.286 98.9594 110.109 97.6999 110.061 96.4459C110.037 95.797 110.125 95.1517 110.061 94.5028C109.994 93.8302 109.922 93.1595 109.836 92.4942C109.668 91.1982 109.673 89.8859 109.539 88.5863C109.395 87.2028 109.349 85.7391 109.391 84.3448C109.413 83.6394 109.593 83.0087 109.525 82.2905C109.457 81.5614 109.259 80.8232 109.237 80.0941C109.217 79.4872 109.146 78.8857 109.15 78.2769C109.15 77.5751 109.327 76.959 109.164 76.2682C109.012 75.623 109.08 74.9796 108.987 74.3234C108.902 73.7219 109.098 73.1678 109.089 72.5735C109.085 72.2874 109.151 72.0267 109.151 71.7406C109.151 71.4125 109.054 71.0844 109.045 70.7526C109.034 70.3425 109.045 69.9306 109.045 69.5186C109.045 69.3746 109.014 69.1596 109.009 68.9518C109.66 69.2215 110.513 69.2799 110.924 68.5963C111.033 68.4141 110.869 68.1935 111.143 68.0696C111.357 67.973 111.887 68.3302 112.033 68.4378C112.476 68.7604 112.828 69.0593 113.362 69.2471C113.446 69.2762 113.564 69.2434 113.622 69.1778C114.245 68.4742 114.107 67.2056 113.582 66.5002C113.322 66.1502 113.121 65.9005 113.025 65.4649C112.941 65.0876 112.861 64.6921 112.701 64.3384C112.59 64.0869 112.26 63.7643 112.267 63.4799C112.288 62.7909 112.875 63.2794 113.168 63.4344C113.434 63.5747 113.719 63.6531 114.003 63.7442C114.527 63.9101 114.83 64.1379 115.142 64.61C115.512 65.1714 116.031 65.5852 116.464 66.0956C116.678 66.3489 117.145 66.8483 117.522 66.8101C118.025 66.7572 117.802 66.2614 118.064 66.0263C118.276 65.8367 118.807 65.9971 118.986 66.1174C119.107 66.1976 119.234 66.327 119.343 66.4255C119.651 66.7044 119.94 66.9996 120.209 67.3186C120.671 67.8654 121.15 68.4013 121.643 68.9226C122.123 69.4348 123.331 70.0399 123.843 69.2489C124.089 68.8679 124.01 68.3284 123.831 67.9438C123.534 67.3131 122.972 67.1254 122.507 66.6843C122.229 66.4182 122.022 66.0682 121.793 65.7602C121.538 65.4175 121.61 65.4758 121.95 65.5724C122.591 65.7529 123.195 66.0354 123.812 66.276C124.338 66.4783 124.832 66.9358 125.442 66.7481C125.856 66.6223 126.035 66.2924 125.993 65.8878L125.987 65.8859Z" fill="#303E30"/>
</svg>
