<svg width="160" height="120" viewBox="0 0 160 120" fill="none" xmlns="http://www.w3.org/2000/svg">
<g clip-path="url(#clip0_203_3338)">
<path d="M118.839 55.5257C118.549 50.7087 109.9 45.0762 106.544 42.6722C101.226 38.8617 95.0347 35.1869 88.5049 33.1784C79.0394 29.3319 67.3823 31.5801 58.3649 36.0321C56.6345 36.8843 55.0865 37.9161 53.6415 39.0473C49.2487 41.8084 45.2607 45.6691 42.093 49.7034C42.0698 49.7219 42.0471 49.7457 42.0239 49.7642C40.9874 50.5976 40.4984 51.3979 40.412 52.1096C38.831 55.2143 41.1583 56.9045 44.4677 58.8312C46.4292 59.9735 48.4959 59.8635 50.8262 59.3238C53.1074 58.7943 55.4969 56.0315 57.2631 54.5698C60.9382 51.535 65.0455 49.5702 69.3596 48.1008C71.0404 47.8451 72.7328 47.671 74.4018 47.5478C77.205 47.4643 80.015 47.6463 82.6946 47.9366C83.935 48.0719 85.1887 48.3227 86.4415 48.6365C87.7438 49.2313 89.0787 49.6862 90.545 50.0777C94.7623 51.2072 97.3796 53.6363 100.51 56.4601C103.908 59.5269 107.782 63.9166 112.591 62.0544C115.732 60.8368 119.048 59.0381 118.836 55.5243L118.839 55.5257Z" fill="#303E30"/>
<path d="M95.0288 59.6178C89.8255 55.3967 80.2952 54.2915 74.0007 56.0788C72.0338 56.6399 70.0835 57.3666 68.2018 58.2447C64.0586 59.4363 57.8254 62.2334 55.3198 65.7503C54.846 66.4161 55.0428 67.2057 55.7443 67.605C56.0971 67.8072 56.4507 67.9985 56.8044 68.1916C59.0369 70.0081 62.0703 71.8922 64.8617 71.4035C67.0906 71.0123 69.1712 69.78 71.4856 69.3856C75.8003 68.6408 80.1823 69.1264 84.29 70.5743C86.9743 71.5223 89.1544 73.1354 91.1696 75.0868C92.3419 76.2251 93.119 76.8255 94.7043 76.725C95.2747 76.6879 95.8446 76.5016 96.399 76.2144C98.3427 75.5999 100.343 73.0988 101.334 71.9176C104.738 67.8616 98.0271 62.0466 95.0343 59.619L95.0288 59.6178Z" fill="#303E30"/>
<path d="M80.2734 74.9887C77.1131 73.7682 72.3967 75.7416 70.9805 78.9018C70.9771 78.9039 70.9737 78.906 70.9739 78.9078C69.4363 80.7783 69.8077 83.4816 70.8805 85.4515C73.03 89.3962 79.0034 89.6081 82.4164 87.5686C87.5719 84.4923 85.1286 76.8656 80.2733 74.9869L80.2734 74.9887Z" fill="#303E30"/>
</g>
<defs>
<clipPath id="clip0_203_3338">
<rect width="78.4082" height="57.5473" fill="white" transform="translate(38 35) rotate(-5.69309)"/>
</clipPath>
</defs>
</svg>
