<svg width="160" height="120" viewBox="0 0 160 120" fill="none" xmlns="http://www.w3.org/2000/svg">
<path d="M112.281 90.9212C112.228 90.8764 112.174 90.8328 112.117 90.7914C112.034 90.8058 111.952 90.8201 111.869 90.8356C111.322 90.9313 110.775 91.0118 110.226 91.0858C109.256 91.2242 108.305 91.4568 107.336 91.6017C106.806 91.6815 106.272 91.7592 105.737 91.7879C105.253 91.8133 104.767 91.8214 104.283 91.8272C103.661 91.8354 103.039 91.8086 102.417 91.7994C101.787 91.7904 101.157 91.7848 100.526 91.7781C99.7975 91.7688 99.0678 91.7465 98.3409 91.6826C97.6322 91.6201 96.922 91.6003 96.2109 91.5641C95.4973 91.5281 94.7827 91.5445 94.0675 91.5478C93.3793 91.55 92.6921 91.5456 92.003 91.5544C90.5732 91.5741 89.1426 91.5797 87.712 91.5634C86.8045 91.5528 85.8963 91.5324 84.9895 91.512C84.9998 91.5552 85.0126 91.5973 85.0281 91.6425C85.0361 91.6673 85.0452 91.691 85.0557 91.7157C85.0186 91.7227 84.9815 91.7297 84.9443 91.7367C84.8015 91.7502 84.6607 91.7538 84.5166 91.7456C84.4289 91.7285 84.3436 91.7069 84.2579 91.6798C84.3334 91.6428 84.4073 91.6016 84.4813 91.5614C84.5333 91.5428 84.5839 91.5233 84.6358 91.5036C84.2667 91.4959 83.8974 91.4872 83.5282 91.4795C82.8314 91.4667 82.134 91.4431 81.4369 91.4468C80.7643 91.4505 80.0907 91.4576 79.4186 91.4689C78.6728 91.4812 77.9273 91.4989 77.1818 91.5395C76.4377 91.58 75.6911 91.601 74.9438 91.6101C74.2134 91.6195 73.4838 91.6223 72.7539 91.6175C72.0446 91.6129 71.3379 91.5853 70.6284 91.5774C69.2004 91.561 67.7716 91.5742 66.3453 91.4987C65.6718 91.4632 64.996 91.4343 64.3227 91.3791C63.6298 91.3225 62.9359 91.2933 62.2403 91.2553C61.4887 91.2132 60.738 91.1404 59.9879 91.0786C59.2858 91.0202 58.5883 90.9288 57.8876 90.8704C57.183 90.8121 56.481 90.7329 55.7773 90.6669C55.4365 90.6351 55.0959 90.6077 54.7541 90.5814C54.3707 90.5514 53.989 90.507 53.6073 90.4605C53.451 90.443 53.2948 90.4265 53.1388 90.4132C51.746 90.2905 50.3492 90.2324 48.9521 90.1689C48.7991 90.1621 48.6471 90.152 48.4953 90.144C48.3152 90.2509 48.1423 90.3705 47.9794 90.5062C47.6572 90.7729 47.4416 91.1379 47.2846 91.5081C47.196 91.7215 47.1655 91.9533 47.1503 92.1811C47.132 92.4462 47.257 92.7262 47.3853 92.9535C47.4893 93.1404 47.6675 93.3122 47.8433 93.4426C48.0839 93.6205 48.3198 93.7845 48.589 93.9197C48.9009 94.0772 49.244 94.1931 49.58 94.2972C50.0477 94.4428 50.5272 94.5672 51.0111 94.6575C51.584 94.7639 52.1717 94.8139 52.752 94.8707C53.2972 94.9247 53.8436 94.9764 54.39 95.0281C55.4268 95.1251 56.4669 95.2121 57.5088 95.2641C59.6434 95.3737 61.7822 95.3324 63.9179 95.3042C65.225 95.2874 66.5327 95.2825 67.8403 95.2984C68.2749 95.3176 68.7082 95.338 69.143 95.3626C71.2913 95.4836 73.444 95.5269 75.596 95.5342C76.0122 95.5486 76.4296 95.5631 76.8459 95.5798C78.9545 95.6653 81.0647 95.6426 83.1748 95.6417C84.0596 95.6401 84.9436 95.6451 85.8288 95.6501C86.6371 95.6659 87.4466 95.6816 88.2547 95.6952C89.4008 95.7134 90.5469 95.7338 91.6919 95.7553C92.6115 95.7731 93.532 95.7842 94.4512 95.8161C94.4811 95.8193 94.5124 95.8224 94.5435 95.8233C94.6123 95.8281 94.6835 95.8284 94.7546 95.8276C94.7545 95.8255 94.7531 95.8244 94.753 95.8222C94.8047 95.8223 94.8564 95.8202 94.9077 95.8137C95.7545 95.8016 96.6024 95.8333 97.449 95.818C98.1727 95.8045 98.8936 95.7638 99.6152 95.7143C100.378 95.7112 101.141 95.7026 101.904 95.6962C102.839 95.6882 103.777 95.7063 104.708 95.6154C105.099 95.5774 105.489 95.5198 105.882 95.485C106.345 95.4429 106.811 95.4128 107.273 95.3598C107.772 95.3032 108.269 95.2324 108.763 95.1552C109.18 95.091 109.587 94.9901 109.994 94.8837C110.762 94.6805 111.558 94.4149 112.116 93.8435C112.327 93.6273 112.533 93.3817 112.655 93.1079C112.789 92.8107 112.889 92.4811 112.887 92.1535C112.886 91.9788 112.855 91.8042 112.785 91.6367C112.669 91.364 112.511 91.1192 112.28 90.9223L112.281 90.9212ZM50.7642 92.4328C50.675 92.4113 50.5858 92.391 50.4965 92.3684C50.5061 92.332 50.5156 92.2956 50.5265 92.2602C50.5557 92.2065 50.5863 92.155 50.6196 92.1034C50.6514 92.0715 50.6833 92.0418 50.7165 92.012C50.7489 91.991 50.7828 91.9732 50.8153 91.9544C50.757 92.1086 50.7989 92.3177 50.9303 92.4194C50.9628 92.4442 50.9939 92.467 51.0249 92.4886C50.9385 92.4704 50.8508 92.4532 50.7642 92.4328V92.4328ZM51.8643 92.6408C51.79 92.6307 51.7167 92.6163 51.6436 92.604C51.723 92.5909 51.8022 92.5723 51.8813 92.5538C51.8915 92.5512 51.903 92.5485 51.9132 92.5459C51.9602 92.5767 52.012 92.5997 52.0671 92.6116C52.0959 92.6181 52.126 92.6245 52.1562 92.6309C52.2344 92.6408 52.3126 92.6506 52.3895 92.6606C52.5065 92.6481 52.6208 92.6335 52.7359 92.6113C52.7513 92.6085 52.7666 92.6046 52.7807 92.6018C52.8301 92.6741 52.9029 92.7235 52.9855 92.7649C52.6119 92.7257 52.237 92.6865 51.8645 92.6429L51.8643 92.6408ZM53.6209 92.6119C53.6293 92.5995 53.6377 92.5883 53.6461 92.5781C53.6461 92.5781 53.6461 92.5781 53.6462 92.5792C53.6377 92.5894 53.6293 92.6006 53.6196 92.612L53.6209 92.6119ZM53.6805 92.8367C53.6805 92.8367 53.6857 92.8364 53.6883 92.8363C53.7793 92.8217 53.868 92.7896 53.9545 92.7642C54.0181 92.7452 54.0818 92.7283 54.1467 92.7104C54.1816 92.7766 54.2293 92.8391 54.2818 92.8981C54.2819 92.8992 54.282 92.9003 54.2833 92.9013C54.0828 92.879 53.881 92.8579 53.6793 92.8367L53.6805 92.8367ZM57.932 92.9931C58.0625 92.9462 58.1944 92.9004 58.322 92.8471C58.2764 92.8653 58.2309 92.8836 58.1854 92.9018C58.2916 92.8592 58.3965 92.8167 58.5014 92.7741C58.5914 92.8305 58.6979 92.8599 58.8135 92.8683C58.82 92.868 58.8265 92.8688 58.833 92.8696C58.8268 92.9191 58.8309 92.967 58.8401 93.0135C58.5369 93.0053 58.2338 92.9993 57.932 92.9931V92.9931ZM62.0827 93.1549C62.1645 93.1362 62.2461 93.1165 62.3278 93.0978C62.3345 93.1237 62.3424 93.1485 62.3516 93.1722C62.2619 93.1661 62.1724 93.161 62.0827 93.1549V93.1549ZM64.3375 92.6598C64.3881 92.6391 64.4386 92.6174 64.4904 92.5967C64.4954 92.6161 64.5017 92.6344 64.5092 92.6527C64.4524 92.6551 64.3943 92.6575 64.3375 92.6598ZM68.3015 93.4366C68.0992 93.4286 67.8983 93.4227 67.6961 93.4157C67.8159 93.3846 67.9385 93.3566 68.0581 93.3221C68.2967 93.2871 68.5339 93.25 68.7709 93.2097C68.7838 93.2987 68.816 93.3848 68.8682 93.4602C68.6789 93.4516 68.4908 93.4441 68.3015 93.4366V93.4366ZM75.8611 93.593C75.4975 93.5927 75.1338 93.5892 74.7716 93.59C74.7392 93.5902 74.7068 93.5894 74.6732 93.5896C75.0559 93.4963 75.4384 93.3997 75.8212 93.3063C75.8479 93.3434 75.8746 93.3805 75.9076 93.413C75.8838 93.4708 75.8679 93.5316 75.8611 93.593V93.593ZM81.6431 92.5918C81.671 92.583 81.6989 92.5731 81.7268 92.5632C81.8828 92.5087 82.0386 92.4509 82.1945 92.3953C82.1845 92.4241 82.1798 92.4538 82.1711 92.4837C82.0062 92.5178 81.84 92.552 81.6751 92.5861C81.6648 92.5876 81.6546 92.5902 81.6444 92.5917L81.6431 92.5918ZM81.9571 93.6548C82.0454 93.638 82.1336 93.6202 82.2232 93.6034L82.2642 93.5951C82.2706 93.6178 82.2822 93.6392 82.29 93.6607C82.1786 93.6587 82.0685 93.6567 81.9571 93.6548V93.6548ZM108.089 92.4685C107.814 92.5356 107.539 92.5917 107.262 92.6425C107.369 92.5671 107.455 92.4718 107.51 92.3504C107.661 92.342 107.81 92.3326 107.961 92.3241C108.17 92.3122 108.382 92.3275 108.59 92.3309C108.609 92.3313 108.628 92.3316 108.647 92.3319C108.461 92.3789 108.275 92.4237 108.09 92.4685L108.089 92.4685Z" fill="#303E30"/>
<path d="M47.0932 31.1784C47.2798 31.4493 47.5249 31.6379 47.8007 31.821C47.9367 31.9126 48.0833 31.9852 48.2356 32.0466C48.4756 32.1459 48.7149 32.2344 48.9725 32.2816C49.1386 32.3119 49.3069 32.3366 49.4737 32.3581C49.7434 32.3448 50.0128 32.3282 50.2815 32.2986C50.6903 32.2533 51.0977 32.207 51.5047 32.153C51.5587 32.1464 51.6125 32.1376 51.6639 32.1322C51.7317 32.1185 51.8 32.1135 51.8694 32.1052C51.9335 32.096 51.9977 32.0879 52.062 32.0798C52.0272 32.0834 51.9926 32.0881 51.9592 32.0927C52.4984 32.0202 53.0344 31.938 53.5697 31.8438C54.1858 31.7353 54.8033 31.6312 55.4238 31.5553C56.5722 31.4139 57.7238 31.2823 58.8745 31.1572C59.5932 31.0795 60.3145 31.0234 61.035 30.9762C61.7451 30.9294 62.4546 30.8706 63.1658 30.8194C63.8576 30.769 64.5506 30.7382 65.2416 30.6736C65.9198 30.6106 66.5949 30.5172 67.2702 30.4281C67.215 30.4359 67.1598 30.4425 67.1059 30.4502C67.8877 30.3458 68.6682 30.2612 69.4549 30.197C70.1696 30.1391 70.8812 30.0726 71.5971 30.0354C72.3207 29.9967 73.0449 29.9919 73.7681 29.9686C74.4693 29.9462 75.1701 29.9162 75.872 29.9058C76.605 29.8952 77.338 29.8867 78.0721 29.8728C79.4794 29.8453 80.891 29.8678 82.2924 29.7389C83.6565 29.6127 85.0263 29.6075 86.3948 29.6012C87.7749 29.5955 89.1415 29.7346 90.5144 29.8505C91.2126 29.9091 91.9085 29.9513 92.609 29.9606C93.3224 29.9705 94.0363 29.9869 94.7502 30.0055C96.138 30.0421 97.525 30.0209 98.9104 30.1286C99.6161 30.1836 100.324 30.2395 101.031 30.3032C101.711 30.3647 102.389 30.4415 103.07 30.479C104.418 30.5522 105.767 30.5686 107.119 30.5641C107.736 30.5615 108.349 30.5624 108.965 30.6145C109.667 30.6729 110.368 30.7292 111.068 30.8096L111.069 30.8095C111.189 30.8242 111.309 30.8422 111.429 30.858C111.537 30.8033 111.643 30.7464 111.749 30.6875C112.066 30.5116 112.369 30.3123 112.649 30.0855C113.007 29.7933 113.267 29.3707 113.366 28.9319C113.386 28.8459 113.395 28.7614 113.394 28.6795C113.389 28.0396 112.803 27.5482 112.235 27.2571C112.018 27.1448 111.781 27.0595 111.551 26.9751C111.356 26.9023 111.156 26.8472 110.952 26.7999C110.524 26.7018 110.079 26.6645 109.641 26.6137C109.163 26.5581 108.687 26.5079 108.209 26.4501C106.588 26.2494 104.967 26.0399 103.342 25.8656C102.496 25.776 101.651 25.6963 100.805 25.6078C100.012 25.5258 99.2176 25.4374 98.4232 25.3708C97.6029 25.302 96.7813 25.2354 95.9595 25.1645C95.1404 25.0945 94.3242 25.0092 93.5033 24.9753C92.624 24.9385 91.7449 24.9278 90.8658 24.9182C90.0412 24.9097 89.2183 24.8858 88.3943 24.8433C86.6944 24.7573 84.9976 24.7018 83.2959 24.6727C81.6227 24.6446 79.9476 24.6504 78.2747 24.6506C77.4441 24.6511 76.6119 24.645 75.7806 24.6553C74.9596 24.6652 74.1393 24.686 73.3185 24.6991C71.6251 24.7254 69.9317 24.7724 68.2377 24.8543C67.3849 24.895 66.5326 24.9444 65.6796 24.9829C64.8435 25.0218 64.0065 25.0444 63.1709 25.092C61.5114 25.1889 59.8546 25.3098 58.2031 25.4992C57.0837 25.6274 55.9719 25.7989 54.8565 25.952C53.3424 26.1467 51.8077 26.3194 50.3614 26.8128C49.9377 26.957 49.5185 27.113 49.1258 27.3248C48.8486 27.4749 48.5815 27.6433 48.3213 27.8179C48.1245 27.9494 47.9335 28.0917 47.7437 28.2328C47.5702 28.3634 47.4432 28.515 47.3107 28.6843C47.112 28.9383 46.9533 29.2354 46.8715 29.5425C46.776 29.9036 46.7613 30.2964 46.8535 30.6585C46.899 30.8412 46.9857 31.0201 47.0945 31.1773L47.0932 31.1784ZM110.969 28.8485C110.983 28.802 110.99 28.7427 110.989 28.6827C110.989 28.6401 110.984 28.5988 110.977 28.5609C111.022 28.5852 111.07 28.6062 111.115 28.6338C111.191 28.6962 111.26 28.7633 111.327 28.8348C111.356 28.8784 111.384 28.922 111.41 28.9679C111.419 28.9948 111.427 29.0207 111.434 29.0478L111.434 29.0576C111.421 29.1138 111.404 29.1691 111.386 29.2245C111.377 29.2391 111.369 29.2536 111.361 29.2671C111.355 29.1657 111.312 29.0637 111.238 28.9947C111.16 28.9247 111.066 28.8827 110.964 28.8552L110.967 28.8486L110.969 28.8485ZM108.491 29C108.693 28.9763 108.894 28.9593 109.095 28.9521C108.991 28.999 108.886 29.0459 108.784 29.0927C108.597 29.1791 108.41 29.2633 108.223 29.3475C108.105 29.2475 107.951 29.1807 107.794 29.1314C108.025 29.0804 108.255 29.0337 108.491 29ZM103.394 28.1105C103.244 28.1363 103.094 28.1633 102.944 28.1913C102.713 28.2008 102.482 28.2181 102.251 28.2385C102.211 28.1768 102.163 28.122 102.111 28.0717C102.539 28.089 102.966 28.1019 103.394 28.1105V28.1105ZM99.0439 28.6626C99.1255 28.6188 99.2056 28.5729 99.2845 28.5271C99.5899 28.5068 99.896 28.4974 100.201 28.51C100.183 28.5129 100.164 28.5159 100.144 28.5189C99.7573 28.5818 99.3702 28.6448 98.9831 28.7077C98.9703 28.7094 98.9588 28.712 98.946 28.7136C98.9786 28.6959 99.0112 28.6793 99.0426 28.6616L99.0439 28.6626ZM95.0091 29.2727C94.8026 29.3479 94.5959 29.4209 94.3894 29.4961C94.4251 29.464 94.4592 29.4276 94.4875 29.3806C94.5017 29.3581 94.5119 29.3326 94.5221 29.3071C94.5744 29.2951 94.6279 29.2808 94.6803 29.2699C94.9309 29.2181 95.1802 29.1674 95.4296 29.1166C95.289 29.1694 95.1498 29.2221 95.0092 29.2738L95.0091 29.2727ZM94.4772 28.2013C95.1593 28.0049 95.8499 27.8223 96.546 27.6658L96.5473 27.6657C96.8252 27.6837 97.1033 27.705 97.3801 27.7264C97.257 27.7456 97.134 27.766 97.0108 27.7842C96.7466 27.8235 96.4806 27.8542 96.2198 27.9086C95.7799 27.9978 95.3401 28.0881 94.899 28.1784C94.7098 28.2179 94.5176 28.2498 94.3287 28.2948C94.1986 28.3264 94.0685 28.358 93.9396 28.3895C93.9173 28.3839 93.895 28.3782 93.8727 28.3737C94.0737 28.3151 94.2761 28.2576 94.4771 28.1991L94.4772 28.2013ZM93.2421 27.5182C93.1696 27.5387 93.0983 27.5591 93.0257 27.5796C93.0163 27.5723 93.0056 27.5662 92.9961 27.559C92.9691 27.5404 92.9385 27.5253 92.9104 27.5101C93.0218 27.512 93.132 27.5151 93.2421 27.5171L93.2421 27.5182ZM82.6538 27.8747C83.1883 27.8111 83.725 27.7627 84.2632 27.7394C84.3858 27.7343 84.5071 27.7293 84.6297 27.7242C84.5801 27.7383 84.5292 27.7524 84.4795 27.7665C84.2746 27.8241 84.0669 27.8797 83.8622 27.9416C83.8519 27.9421 83.8414 27.9403 83.8297 27.9397C83.4378 27.9187 83.0459 27.8978 82.6539 27.8757L82.6538 27.8747ZM80.5155 28.4152C80.5188 28.45 80.5247 28.4836 80.5344 28.5182C80.4684 28.5613 80.4035 28.6033 80.3362 28.6465C80.1962 28.6643 80.0563 28.6832 79.9163 28.701C79.7531 28.7209 79.5887 28.7408 79.4256 28.7617C79.7876 28.6463 80.1509 28.5308 80.5156 28.4163L80.5155 28.4152ZM78.328 27.3061C78.2553 27.3244 78.1825 27.3395 78.1112 27.3599C78.0342 27.3478 77.9549 27.3412 77.8834 27.3354C77.8184 27.3305 77.7548 27.3276 77.69 27.3259C77.903 27.3171 78.1149 27.3128 78.3281 27.3072L78.328 27.3061ZM76.8408 27.361C76.8408 27.361 76.8317 27.3614 76.8279 27.3615C76.8279 27.3615 76.8369 27.3612 76.8408 27.361ZM70.1396 27.7732C70.4402 27.7586 70.7393 27.7408 71.0398 27.724C70.7586 27.8044 70.4773 27.8849 70.199 27.9707C70.0197 28.0261 69.8418 28.0804 69.6639 28.1358C69.6245 28.037 69.5648 27.9455 69.4881 27.8711C69.462 27.846 69.435 27.8263 69.4079 27.8045C69.6518 27.7944 69.897 27.7843 70.1409 27.7731L70.1396 27.7732ZM65.402 27.9776C65.3385 27.9988 65.2735 28.0157 65.2088 28.0369C65.1957 28.0342 65.1827 28.0325 65.1709 28.0308C65.0912 28.0177 65.0106 28.0101 64.9314 28.0058C65.0887 27.996 65.2447 27.9874 65.402 27.9776ZM64.1283 28.0564C63.9681 28.0816 63.8082 28.1133 63.6497 28.1472C63.4209 28.1949 63.1933 28.2414 62.966 28.2934C62.9657 28.2869 62.9626 28.2793 62.961 28.2728C62.9464 28.2232 62.9205 28.1773 62.8883 28.136C63.3021 28.1102 63.7146 28.0844 64.1283 28.0564V28.0564ZM62.6082 30.352C62.6502 30.3175 62.6921 30.283 62.7327 30.2463C62.961 30.1451 63.1921 30.0471 63.4246 29.9523C63.5093 29.9182 63.594 29.8841 63.6802 29.8522C63.3942 30.0082 63.104 30.1567 62.8123 30.3031C62.6854 30.3673 62.5572 30.4327 62.4303 30.4969C62.4896 30.4486 62.5489 30.4003 62.6082 30.352ZM61.1922 28.2246C61.1628 28.2313 61.1333 28.2369 61.104 28.2436C61.0223 28.2622 60.9447 28.2862 60.8675 28.3145C60.747 28.3129 60.6265 28.3092 60.5062 28.3087C60.4829 28.2878 60.4573 28.2703 60.4317 28.2517C60.6847 28.2423 60.9391 28.234 61.1922 28.2246V28.2246ZM58.1235 29.4983C58.3779 29.4015 58.636 29.3232 58.905 29.2771C58.9296 29.2761 58.9541 29.2751 58.9786 29.273C59.0911 29.2727 59.2023 29.2725 59.3149 29.2722C59.3346 29.2768 59.3529 29.2804 59.3726 29.2851C59.2243 29.383 59.076 29.4798 58.9277 29.5776C58.8308 29.6253 58.7352 29.6719 58.6383 29.7196C58.4359 29.8197 58.2346 29.9187 58.0362 30.023C58.0507 29.9383 58.0534 29.8497 58.0563 29.7666C58.0518 29.734 58.0474 29.7025 58.0429 29.6699C58.0404 29.6263 58.034 29.5829 58.0263 29.5406C58.0579 29.5262 58.0894 29.5129 58.1222 29.4984L58.1235 29.4983Z" fill="#303E30"/>
<path d="M117.936 55.4917C117.876 53.1434 117.808 50.79 117.553 48.452C117.412 47.1546 117.224 45.8538 116.939 44.5776C116.691 43.4704 116.353 42.3822 116.007 41.2997C115.697 40.3316 115.36 39.3701 114.979 38.4234C114.499 37.2307 114.044 36.0272 113.506 34.8544C113.282 34.3644 113.036 33.8863 112.775 33.4142C112.57 33.0437 112.367 32.6697 112.142 32.3098C111.893 32.284 111.644 32.2583 111.394 32.2337C110.687 32.1656 109.98 32.1074 109.273 32.0525C108.943 32.0268 108.614 31.9978 108.283 31.9864C107.99 31.9777 107.699 31.9799 107.407 31.981C107.16 31.9825 106.912 31.9829 106.665 31.9844C106.65 32.2581 106.728 32.5127 106.859 32.7738C106.944 32.9418 107.032 33.1096 107.118 33.2776C107.089 33.2602 107.062 33.2416 107.033 33.2254C106.953 33.1795 106.873 33.1348 106.792 33.0889C106.788 32.9733 106.766 32.8574 106.724 32.7422C106.678 32.613 106.609 32.4881 106.548 32.3639C106.516 32.2942 106.476 32.2281 106.434 32.1632C106.413 32.127 106.389 32.0897 106.362 32.0537C106.391 32.0307 106.42 32.0087 106.449 31.9857C106.089 31.9863 105.729 31.987 105.37 31.9833C104.695 31.9751 104.021 31.9537 103.347 31.9248C103.117 31.9157 102.89 31.8989 102.661 31.8843C102.67 32.0292 102.682 32.174 102.698 32.3186C102.734 32.6273 102.774 32.9337 102.815 33.2412C102.824 33.2998 102.832 33.3563 102.842 33.4138C102.946 34.0277 103.081 34.6361 103.192 35.2487C103.311 35.897 103.431 36.5463 103.521 37.2002C103.694 38.4492 103.779 39.7096 103.85 40.9684C103.922 42.2565 103.931 43.5473 103.949 44.8377C103.966 46.1118 103.982 47.3848 103.996 48.659C104 49.0292 104.004 49.3993 104.006 49.7706C104.012 50.6519 104.009 51.5336 103.963 52.4137C103.93 53.0607 103.895 53.7077 103.868 54.3555C103.843 54.9627 103.837 55.5703 103.826 56.1792C103.816 56.8001 103.783 57.4198 103.761 58.0411C103.737 58.6844 103.727 59.3293 103.705 59.9725C103.665 61.1976 103.605 62.4224 103.539 63.6464C103.471 64.9011 103.374 66.1547 103.323 67.4108C103.273 68.6615 103.189 69.9102 103.138 71.162C103.113 71.7704 103.097 72.3795 103.061 72.9883C103.025 73.6048 102.972 74.2187 102.925 74.8334C102.879 75.4471 102.834 76.0584 102.765 76.6697C102.694 77.2953 102.612 77.9191 102.529 78.5419C102.439 79.2513 102.388 79.9634 102.3 80.6738C102.201 81.4677 102.085 82.259 101.977 83.0521C101.978 83.0433 101.98 83.0334 101.981 83.0235C101.976 83.0565 101.972 83.0895 101.969 83.1224C101.883 83.7628 101.814 84.4068 101.668 85.0376C101.53 85.6354 101.379 86.2315 101.243 86.8303C101.107 87.4269 100.995 88.0279 100.869 88.6263C100.811 88.8996 100.752 89.1707 100.691 89.443C100.656 89.5996 100.623 89.755 100.586 89.9105C100.563 90.0175 100.539 90.1266 100.503 90.2308C100.573 90.2311 100.641 90.2305 100.711 90.2309C101.337 90.2291 101.962 90.2142 102.589 90.1959C103.206 90.177 103.823 90.1526 104.44 90.1195C104.784 90.1009 105.129 90.0932 105.474 90.0779C105.792 90.0647 106.109 90.0309 106.425 89.9906C107.138 89.8912 107.848 89.7734 108.56 89.6588C109.036 89.5823 109.516 89.5144 109.997 89.4651C110.094 89.4556 110.19 89.4462 110.286 89.4368C110.592 89.0156 110.857 88.5622 111.12 88.1155C111.739 87.061 112.27 85.9533 112.808 84.8594C113.945 82.5426 114.839 80.1396 115.529 77.6686C115.86 76.4828 116.188 75.2939 116.509 74.1064C116.835 72.8968 117.085 71.6718 117.298 70.4384C117.519 69.1447 117.689 67.8356 117.794 66.5281C117.897 65.2578 117.935 63.9869 117.956 62.7135C117.979 61.2171 117.989 59.7202 117.978 58.2241C117.972 57.3122 117.958 56.4007 117.935 55.4895L117.936 55.4917ZM101.77 89.6443C101.786 89.6086 101.802 89.573 101.817 89.5364C101.845 89.4817 101.871 89.4271 101.898 89.3735C102.01 89.3099 102.121 89.2464 102.231 89.1817C102.24 89.1803 102.248 89.1778 102.257 89.1763C102.098 89.3347 101.936 89.491 101.77 89.6432L101.77 89.6443ZM102.825 84.1936C102.698 84.2698 102.572 84.3504 102.447 84.4309C102.513 84.2632 102.583 84.0976 102.653 83.933C102.802 83.8384 102.949 83.7406 103.094 83.6406C103.124 83.6197 103.154 83.5988 103.184 83.579C103.063 83.7839 102.943 83.9877 102.824 84.1947L102.825 84.1936ZM105.602 54.4859C105.61 54.4529 105.617 54.4209 105.624 54.3878C105.781 54.2339 105.936 54.0778 106.09 53.9229C106.179 53.8329 106.264 53.7387 106.352 53.6466C106.328 53.7295 106.303 53.8114 106.28 53.8943C106.13 54.0097 105.998 54.1408 105.871 54.2815C105.763 54.4039 105.661 54.5316 105.565 54.6623C105.577 54.6028 105.59 54.5443 105.602 54.4859V54.4859ZM103.865 69.063C103.697 69.2393 103.531 69.4176 103.367 69.597C103.418 69.3819 103.47 69.1656 103.526 68.9514C103.706 68.6108 103.885 68.2713 104.066 67.9307C104.088 67.8883 104.111 67.8447 104.134 67.8023C104.135 67.894 104.143 67.9887 104.169 68.0739C104.191 68.144 104.218 68.215 104.252 68.2846C104.128 68.5453 103.998 68.8052 103.865 69.063ZM104.207 52.6451C104.186 52.7694 104.159 52.8928 104.133 53.0173C104.121 53.0178 104.111 53.0182 104.099 53.0187C104.137 52.8839 104.175 52.749 104.213 52.6131C104.211 52.6241 104.209 52.634 104.207 52.6451ZM106.077 78.8804C105.674 79.3318 105.24 79.7528 104.799 80.1708C104.763 80.204 104.729 80.2371 104.693 80.2702C104.846 80.0323 104.999 79.7944 105.154 79.5565C105.52 79.2508 105.877 78.9335 106.227 78.6099C106.428 78.4235 106.628 78.2361 106.826 78.0477C106.577 78.3267 106.326 78.6036 106.077 78.8815L106.077 78.8804ZM108.226 52.987C108.174 53.2448 108.121 53.5026 108.068 53.7604C108.046 53.7373 108.024 53.7163 107.999 53.6955C108.071 53.4577 108.146 53.2219 108.225 52.9871L108.226 52.987ZM107.359 49.2673C107.331 49.4159 107.303 49.5635 107.272 49.7122C107.197 49.8693 107.118 50.0222 107.03 50.1723C106.976 50.1646 106.922 50.1603 106.867 50.1539C106.885 50.104 106.901 50.0541 106.919 50.0053C107.072 49.5872 107.233 49.1709 107.402 48.7587C107.413 48.7943 107.424 48.8299 107.433 48.8656C107.408 48.9998 107.384 49.1341 107.359 49.2684L107.359 49.2673ZM108.852 78.2491C108.848 78.2558 108.846 78.2625 108.843 78.2692C108.529 78.6797 108.217 79.0891 107.904 79.5019C107.875 79.5359 107.844 79.5688 107.815 79.6028C107.788 79.5624 107.758 79.5243 107.724 79.4874C107.863 79.331 108.002 79.1734 108.141 79.0169C108.263 78.8775 108.389 78.7369 108.511 78.5964C108.648 78.4411 108.779 78.2806 108.908 78.1179C108.888 78.1613 108.87 78.2058 108.851 78.2492L108.852 78.2491ZM111.633 50.7479C111.67 51.4542 111.699 52.1598 111.722 52.8666C111.712 52.713 111.701 52.5584 111.691 52.407C111.679 52.2458 111.647 52.0833 111.626 51.9225C111.605 51.7649 111.583 51.6074 111.563 51.4499C111.589 51.2162 111.613 50.9825 111.634 50.7489L111.633 50.7479ZM110.851 43.4811C110.848 43.2212 110.838 42.9628 110.827 42.7011C110.814 42.3925 110.795 42.0874 110.748 41.7824C110.71 41.5349 110.669 41.2963 110.542 41.0743C110.51 41.0166 110.472 40.9592 110.431 40.9041C110.485 40.8866 110.535 40.8659 110.586 40.8431C110.809 41.6149 110.979 42.3955 111.113 43.1896C111.136 43.3667 111.153 43.544 111.172 43.7213C111.076 43.6247 110.969 43.544 110.853 43.481L110.851 43.4811ZM111.811 60.8371C111.795 61.786 111.742 62.732 111.681 63.6794C111.666 63.656 111.652 63.6325 111.636 63.6102C111.584 63.5327 111.525 63.4586 111.463 63.3869C111.497 63.0632 111.532 62.7384 111.567 62.4159C111.596 62.1394 111.604 61.8616 111.623 61.5844C111.654 61.1167 111.687 60.649 111.717 60.1846C111.732 59.9665 111.737 59.749 111.745 59.5313C111.761 59.0358 111.779 58.5402 111.795 58.0447C111.8 57.9079 111.803 57.7702 111.806 57.6335C111.817 58.7014 111.83 59.7714 111.813 60.8382L111.811 60.8371ZM114.161 75.6376C114.161 75.63 114.163 75.6222 114.164 75.6146L114.176 75.5267C114.17 75.5641 114.166 75.6014 114.161 75.6387L114.161 75.6376Z" fill="#303E30"/>
<path d="M49.4486 88.3173C49.5929 88.5735 49.7471 88.8238 49.8988 89.0743C49.9031 89.0817 49.9087 89.088 49.913 89.0955C50.5518 89.1128 51.1895 89.1324 51.8273 89.1759C52.5066 89.2211 53.1847 89.2466 53.8609 89.329C54.558 89.4138 55.2604 89.4329 55.9598 89.4903C56.6812 89.549 57.4021 89.5978 58.1242 89.6445C58.2242 89.6513 58.3243 89.6603 58.4244 89.6681C58.4211 89.6552 58.4191 89.6432 58.4157 89.6303C58.3901 89.5232 58.353 89.4188 58.3223 89.3141C58.2356 89.002 58.1568 88.6906 58.0599 88.3811C57.936 87.9853 57.8559 87.5867 57.8191 87.1764C57.7894 86.8433 57.7726 86.5087 57.7467 86.1744C57.6948 85.4818 57.6404 84.7893 57.5577 84.1002C57.393 82.7339 57.3583 81.3578 57.2258 79.9881C57.1594 79.3124 57.0827 78.6384 57.0125 77.964C56.9383 77.2428 56.8832 76.5176 56.782 75.7997C56.6841 75.1156 56.5953 74.4333 56.5501 73.7437C56.5039 73.0377 56.4681 72.3325 56.4453 71.6277C56.3985 70.1987 56.3402 68.7701 56.2457 67.3441C56.1535 65.9563 56.0073 64.575 55.9899 63.1841C55.9709 61.7648 55.9649 60.3472 55.9447 58.9302C55.9347 58.2446 55.926 57.56 55.9083 56.8769C55.8903 56.1655 55.8477 55.455 55.8376 54.7454C55.8277 54.0402 55.8539 53.3334 55.8945 52.6294C55.9356 51.9111 55.969 51.1931 56.001 50.4752C56.0351 49.6797 56.1148 48.891 56.2241 48.101C56.3163 47.4386 56.4346 46.7793 56.532 46.1177C56.6426 45.1694 56.6542 44.2109 56.7205 43.2578C56.7546 42.7758 56.7848 42.2928 56.8332 41.8123C56.8839 41.3045 56.9776 40.8014 57.0741 40.3015C57.2155 39.5736 57.357 38.8457 57.5063 38.1197C57.6484 37.4257 57.8167 36.7371 57.9549 36.041C58.1002 35.314 58.2418 34.5883 58.4238 33.8686C58.507 33.5397 58.5902 33.2129 58.6536 32.8793C58.6893 32.691 58.721 32.5029 58.7502 32.3138C57.5916 32.4152 56.432 32.5188 55.2767 32.6539C54.7196 32.7293 54.1636 32.8244 53.6089 32.9194C53.0529 33.0145 52.4931 33.0878 51.9323 33.1667C51.9323 33.1667 51.931 33.1667 51.9297 33.1668C51.8889 33.1772 51.8478 33.1822 51.8078 33.1838C51.2688 33.2596 50.7299 33.3365 50.1889 33.4004C49.8959 33.4354 49.6021 33.4541 49.3082 33.4739C48.8586 34.3095 48.4939 35.1799 48.1665 36.0695C47.7541 37.1898 47.3523 38.314 46.9215 39.4285C46.4681 40.5986 46.0183 41.7652 45.6322 42.9587C44.8698 45.3148 44.4112 47.7554 43.9804 50.1841C43.5414 52.6491 43.3261 55.1365 43.2357 57.6341C43.148 60.0682 43.0604 62.5023 43.0453 64.9388C43.0375 66.1408 43.0091 67.3457 43.0634 68.5472C43.1227 69.8578 43.2936 71.1528 43.4982 72.4486C43.6909 73.6728 43.9016 74.8941 44.1493 76.1084C44.3902 77.2924 44.6347 78.473 45.0031 79.6266C45.2263 80.3285 45.5344 81.0007 45.8386 81.6719C46.1043 82.2585 46.4456 82.8113 46.7691 83.3693C47.3744 84.4137 47.9244 85.4844 48.4844 86.5503C48.7983 87.1447 49.116 87.7357 49.4449 88.3207L49.4486 88.3173ZM50.7546 81.4645L50.7467 81.4627C50.7467 81.4627 50.7519 81.4625 50.7545 81.4634L50.7546 81.4645ZM53.488 80.5226C53.4606 80.6515 53.4331 80.7804 53.4017 80.9084C53.408 80.7487 53.4142 80.589 53.4205 80.4292C53.42 80.4216 53.421 80.415 53.4218 80.4073C53.4496 80.3952 53.4774 80.3843 53.5039 80.3722C53.499 80.4227 53.4928 80.4721 53.488 80.5226ZM53.7727 50.0003C53.7169 50.0408 53.6597 50.0814 53.6038 50.1209C53.6628 49.8891 53.7256 49.6571 53.7925 49.4271C53.8384 49.4372 53.8856 49.4484 53.9315 49.4596C53.963 49.467 53.9957 49.4733 54.0284 49.4785C53.944 49.6524 53.8583 49.8253 53.774 49.9992L53.7727 50.0003ZM56.0318 87.5899C56.0871 87.5603 56.138 87.5243 56.1904 87.4905C56.1148 87.8148 56.047 88.1398 55.9936 88.4686C55.9794 88.5577 55.9664 88.6467 55.9561 88.7367C55.8665 88.8649 55.7756 88.9921 55.6793 89.1163C55.6382 89.166 55.5958 89.2158 55.5546 89.2645C55.5606 89.2337 55.5678 89.2017 55.575 89.1697C55.5936 89.0881 55.6174 89.0085 55.6412 88.9278C55.7112 88.6857 55.7812 88.4424 55.8513 88.2014C55.9106 87.998 55.9686 87.7924 56.0331 87.5887L56.0318 87.5899ZM55.0625 35.5607C55.113 35.4942 55.1635 35.4288 55.2141 35.3633C55.2249 35.3498 55.2372 35.3373 55.248 35.3237C55.2644 35.3165 55.2823 35.3124 55.2973 35.3031C55.349 35.2813 55.4008 35.2595 55.4527 35.2388C55.4177 35.3047 55.3814 35.3706 55.3464 35.4365C55.2929 35.4944 55.2419 35.5533 55.1911 35.6144C55.1395 35.6603 55.0864 35.705 55.0347 35.7498C55.044 35.6871 55.0533 35.6245 55.0613 35.5619L55.0625 35.5607ZM54.0176 42.5196C54.0397 42.499 54.0605 42.4796 54.0826 42.459C54.1308 42.4188 54.1789 42.3786 54.227 42.3383C54.1385 42.5528 54.0514 42.7672 53.9629 42.9817C53.9119 43.1051 53.8687 43.2314 53.8269 43.3577C53.8118 43.3419 53.8016 43.3226 53.7851 43.3069C53.6839 43.2128 53.565 43.1478 53.4283 43.1109C53.4152 43.1081 53.4022 43.1076 53.3904 43.1048C53.6003 42.9093 53.8102 42.7139 54.0201 42.5184L54.0176 42.5196ZM53.1105 69.2083C53.1227 69.151 53.1348 69.0926 53.147 69.0353C53.2713 68.8149 53.389 68.5916 53.5082 68.3704C53.5128 68.3604 53.5174 68.3514 53.5233 68.3414C53.5045 68.53 53.4831 68.7188 53.4604 68.9076C53.3349 69.0854 53.2055 69.2622 53.0745 69.4359C53.0882 69.3599 53.0993 69.2841 53.1118 69.2082L53.1105 69.2083ZM51.9549 33.9577C52.0202 33.967 52.0855 33.9774 52.1517 33.9813C52.0795 34.0531 52.0087 34.1259 51.9366 34.1988C51.8413 34.2956 51.746 34.3924 51.6507 34.4891C51.7463 34.3093 51.8486 34.1325 51.9536 33.9578L51.9549 33.9577ZM51.9774 59.0536C52.0433 59.0301 52.1092 59.0055 52.1737 58.981C52.2535 58.9504 52.3318 58.9188 52.4102 58.8871C52.3568 59.0587 52.3034 59.2313 52.25 59.4028C52.2452 59.4096 52.2404 59.4163 52.2369 59.423C52.1282 59.6012 52.0183 59.7794 51.9096 59.9576C51.8392 59.9932 51.7704 60.0332 51.7044 60.0786C51.5189 60.2031 51.3516 60.3531 51.1966 60.5135C51.3829 60.1563 51.5705 59.799 51.7633 59.4437C51.8333 59.313 51.906 59.1832 51.976 59.0525L51.9774 59.0536ZM50.5155 37.4209C50.6208 37.2953 50.7248 37.1698 50.8314 37.0463C50.8866 37.0375 50.9417 37.0286 50.9967 37.0187C51.0659 37.006 51.1362 36.9911 51.205 36.9741C51.019 37.1576 50.8317 37.3412 50.6526 37.5311C50.5624 37.6265 50.4722 37.722 50.3833 37.8174C50.4274 37.6856 50.4715 37.5538 50.5156 37.422L50.5155 37.4209ZM49.1086 50.5119C49.1175 50.4875 49.1278 50.463 49.138 50.4386L49.1379 50.4364C49.1279 50.4652 49.1192 50.494 49.1092 50.5228C49.109 50.5195 49.1088 50.5152 49.1086 50.5119ZM49.3076 76.8206C49.3181 76.7557 49.3285 76.6909 49.3391 76.6271C49.3611 76.6283 49.3844 76.6274 49.4064 76.6276C49.4269 76.8703 49.4565 77.1127 49.4964 77.3546C49.5103 77.4371 49.5241 77.5195 49.5393 77.6019C49.5336 77.66 49.528 77.7193 49.5223 77.7774C49.5136 77.8728 49.5049 77.9682 49.4949 78.0636C49.4743 78.0197 49.4536 77.9758 49.4329 77.9318C49.3655 77.773 49.2981 77.6152 49.2332 77.4562L49.3064 76.8218L49.3076 76.8206ZM48.2869 53.0495C48.2869 53.0495 48.2895 53.0494 48.2908 53.0493L48.291 53.0526C48.2864 53.0626 48.283 53.0715 48.2797 53.0815C48.2817 53.0705 48.2837 53.0606 48.2869 53.0495ZM47.4638 50.5722C47.4737 50.5641 47.4837 50.5571 47.4935 50.5491C47.4632 50.6956 47.4316 50.8422 47.4 50.9888C47.4204 50.8492 47.4421 50.7107 47.4638 50.5711L47.4638 50.5722ZM47.5682 68.0335C47.5677 68.0248 47.5673 68.0171 47.5681 68.0084C47.5686 67.9286 47.5692 67.8488 47.5697 67.7691C47.5874 67.8066 47.6064 67.844 47.6279 67.8803C47.6438 67.908 47.6595 67.9347 47.6766 67.9613C47.6405 67.9857 47.6044 68.0101 47.5682 68.0335Z" fill="#303E30"/>
<path d="M71.5096 54.436C71.5154 53.7782 71.5173 53.1205 71.5348 52.4633C71.5541 51.7929 71.5994 51.1257 71.646 50.4575C71.7344 49.1714 71.7655 47.8812 71.837 46.5936C71.9089 45.2929 71.9525 43.9934 71.9817 42.6923C72.0131 41.3616 72.0277 40.0305 72.1109 38.701C72.1526 38.0373 72.2087 37.3763 72.2543 36.7146C72.2977 36.0792 72.3488 35.4458 72.4246 34.8123C72.4998 34.191 72.5711 33.5697 72.6423 32.9463C72.6844 32.5798 72.7291 32.2131 72.7908 31.849C72.8285 31.63 72.8741 31.4119 72.9209 31.1936C72.5836 31.201 72.2464 31.2084 71.9081 31.2202C71.1863 31.2445 70.4668 31.3092 69.7456 31.3663C69.0876 31.4197 68.4306 31.4686 67.7742 31.5493C67.0804 31.6336 66.3873 31.7278 65.6926 31.7958C65.003 31.8636 64.3122 31.9096 63.6211 31.9491C62.9247 31.9888 62.2322 32.0491 61.5377 32.0985C60.99 32.1364 60.4424 32.1754 59.8938 32.2188C59.8703 32.3716 59.8482 32.5255 59.8248 32.6783C59.7205 33.3784 59.5901 34.0731 59.4688 34.7706C59.3456 35.4781 59.2433 36.1891 59.1358 36.9003C58.9204 38.3161 58.6346 39.7218 58.4323 41.1392C58.4218 41.2249 58.4124 41.3094 58.4019 41.395C58.3251 42.0995 58.3055 42.8103 58.2715 43.5174C58.2373 44.2638 58.2327 45.0101 58.2075 45.7572C58.1844 46.4507 58.09 47.1417 58.0163 47.8329C57.94 48.5472 57.8651 49.2625 57.8343 49.9803C57.802 50.7157 57.7787 51.4507 57.7191 52.1851C57.6602 52.9085 57.6091 53.6326 57.5763 54.3593C57.5445 55.0379 57.549 55.716 57.5521 56.3943C57.5545 57.1031 57.5581 57.8108 57.5591 58.5186C57.5627 59.9188 57.5651 61.3191 57.5753 62.7191C57.5808 63.4387 57.5992 64.1568 57.6398 64.8771C57.6763 65.5507 57.7231 66.2227 57.7518 66.8955C57.7809 67.5978 57.7933 68.3008 57.8108 69.0035C57.8279 69.7205 57.8707 70.4364 57.8917 71.1532C57.9332 72.5595 58.0174 73.9652 58.2226 75.3593C58.2163 75.3181 58.21 75.2757 58.2037 75.2345C58.312 75.963 58.397 76.6913 58.4706 77.4245C58.5352 78.0696 58.6075 78.7133 58.6669 79.3575C58.7297 80.0366 58.7872 80.7158 58.8254 81.3959C58.8662 82.0977 58.889 82.8024 58.9645 83.5016C59.0393 84.1889 59.1205 84.8738 59.1697 85.5643C59.1927 85.8943 59.2158 86.2243 59.231 86.5536C59.2459 86.8763 59.2503 87.1984 59.2845 87.5192C59.3637 87.9474 59.5018 88.3645 59.5912 88.7912C59.6328 88.9948 59.673 89.1974 59.7031 89.4026C59.7116 89.4154 59.7213 89.427 59.7285 89.4398C59.7927 89.5431 59.8204 89.6632 59.8105 89.7827C59.9352 89.7906 60.0585 89.7976 60.1832 89.8055C60.9403 89.8551 61.6957 89.9189 62.4544 89.9499C63.1339 89.9775 63.8116 90.0173 64.491 90.0646C65.8927 90.1629 67.296 90.1781 68.7002 90.1846C69.4068 90.1882 70.1134 90.1699 70.8194 90.1844C71.4813 90.1986 72.1421 90.2161 72.8036 90.2216C72.7755 90.1386 72.7639 90.0506 72.7523 89.9626C72.6972 89.6142 72.6305 89.2685 72.5845 88.9209C72.5387 88.5787 72.4942 88.2364 72.4524 87.8952C72.3598 87.1234 72.3018 86.3481 72.2684 85.5728C72.2413 84.9491 72.2051 84.3257 72.1831 83.7018C72.1611 83.079 72.129 82.4588 72.08 81.8371C71.9782 80.5304 71.897 79.2219 71.852 77.9107C71.83 77.2661 71.8249 76.6207 71.7992 75.9773C71.7737 75.3371 71.7276 74.7 71.6841 74.0617C71.5974 72.7479 71.5511 71.4368 71.5407 70.122C71.5195 67.5067 71.5035 64.8912 71.4849 62.2768C71.476 60.9642 71.4657 59.6505 71.4722 58.3373C71.4795 57.0371 71.4972 55.7375 71.5084 54.4372L71.5096 54.436ZM62.0577 88.8892C62.0301 88.9482 62.0024 89.0073 61.9735 89.0663C61.7961 89.1753 61.6157 89.2756 61.4254 89.3632C61.4152 89.3669 61.4038 89.3706 61.3937 89.3743C61.407 89.3148 61.4204 89.2552 61.4338 89.1957C61.4533 89.1086 61.4742 89.0225 61.4963 88.9353C61.7265 88.8013 61.947 88.6534 62.1605 88.4982C62.1254 88.6286 62.0902 88.759 62.0564 88.8892L62.0577 88.8892ZM62.1814 73.1728C62.0909 73.2628 62.0018 73.355 61.9099 73.444C62.0229 73.2285 62.137 73.0108 62.258 72.7993L62.3575 72.6849C62.2984 72.8479 62.2405 73.0108 62.1814 73.1739L62.1814 73.1728ZM61.4224 42.0327C61.2426 42.2783 61.0695 42.529 60.9031 42.7828C60.796 42.8768 60.6889 42.9708 60.5818 43.0648C60.5818 42.9075 60.5382 42.7596 60.4845 42.6144C60.8238 42.2858 61.1603 41.954 61.5121 41.6391C61.7667 41.4112 62.0213 41.1844 62.2746 40.9565C61.9793 41.3074 61.6921 41.6644 61.421 42.0317L61.4224 42.0327ZM65.1197 61.5675C65.0217 61.6841 64.9251 61.8028 64.8284 61.9204C64.6062 62.1928 64.3801 62.4654 64.1619 62.7409C64.2074 62.5228 64.2529 62.3035 64.2998 62.0853C64.31 62.039 64.3189 61.9917 64.3292 61.9454C64.4208 61.8738 64.5123 61.8013 64.6026 61.7298C64.6366 61.7142 64.668 61.6976 64.7021 61.6831C64.8426 61.6303 64.9834 61.5819 65.1271 61.5388C65.1251 61.5487 65.1217 61.5576 65.1197 61.5675ZM67.067 53.5927C67.0256 53.6162 66.9844 53.6409 66.9417 53.6645C67.031 53.3517 67.1164 53.0401 67.1991 52.7275C67.2224 52.7047 67.2456 52.6808 67.2688 52.658C67.2029 52.9699 67.1356 53.2818 67.067 53.5927ZM68.0242 72.2378C68.0242 72.2378 68.0221 72.2467 68.021 72.25C67.837 72.4007 67.6543 72.5524 67.4703 72.7031C67.5241 72.6048 67.5779 72.5064 67.6304 72.4081C67.7409 72.2845 67.8515 72.1609 67.9634 72.0383C67.9925 72.0054 68.023 71.9724 68.0521 71.9396C68.0437 72.0393 68.034 72.1402 68.0242 72.2389L68.0242 72.2378ZM70.0211 31.7438C70.1221 31.7003 70.223 31.6557 70.324 31.6122C70.3128 31.6192 70.3015 31.6251 70.2902 31.6322C70.1976 31.6862 70.1051 31.7414 70.0138 31.7954C70.0166 31.7778 70.0182 31.7603 70.0211 31.7438V31.7438ZM70.0783 35.2468C70.0783 35.2468 70.081 35.2478 70.0823 35.2488C70.1478 35.2625 70.2132 35.2751 70.2785 35.2855C70.1632 35.3711 70.0451 35.4546 69.9298 35.5413C69.7685 35.5927 69.6075 35.6496 69.448 35.7097C69.4449 35.7011 69.4417 35.6914 69.4387 35.6828C69.4307 35.6569 69.4202 35.6322 69.4109 35.6064C69.6302 35.4827 69.8536 35.3642 70.0771 35.2468L70.0783 35.2468ZM69.2248 34.0935C69.2047 34.1042 69.1859 34.1148 69.1658 34.1255C69.1431 34.1351 69.1204 34.1459 69.0964 34.1556C69.1392 34.1353 69.182 34.115 69.2248 34.0935ZM69.1426 37.9366C69.3382 37.7854 69.5353 37.6363 69.7323 37.4862C70.0768 37.2251 70.4226 36.9639 70.7697 36.7027C70.7977 36.695 70.8271 36.6883 70.8551 36.6806C70.6491 36.8759 70.443 37.0712 70.2344 37.2655C69.9154 37.5649 69.5978 37.8664 69.2761 38.1637C69.2365 38.0834 69.1907 38.0078 69.1412 37.9355L69.1426 37.9366ZM69.7834 50.6873C69.712 50.7056 69.6405 50.7216 69.569 50.7388C69.5917 50.6166 69.6143 50.4944 69.637 50.3722C69.782 50.2395 69.927 50.1079 70.0734 49.9774C69.9745 50.213 69.877 50.4497 69.7834 50.6873V50.6873ZM70.5725 87.3807C70.5804 87.3608 70.5882 87.3408 70.5962 87.3219C70.6458 87.2182 70.6968 87.1156 70.7465 87.0131C70.7774 87.0337 70.8059 87.0565 70.8367 87.0749C70.7482 87.1769 70.661 87.2788 70.5737 87.3807L70.5725 87.3807ZM71.022 80.5503C71.0475 80.4782 71.0731 80.4062 71.0987 80.3352C71.1604 80.3272 71.2205 80.316 71.2805 80.3015C71.2794 80.3048 71.2782 80.307 71.2771 80.3103C71.1891 80.3992 71.0999 80.4892 71.0119 80.578C71.0153 80.5691 71.0187 80.5602 71.022 80.5514L71.022 80.5503ZM71.6542 88.6753C71.5484 88.7244 71.4425 88.7736 71.3367 88.8228C71.2599 88.8587 71.1858 88.8967 71.1103 88.9337C71.1151 88.928 71.12 88.9224 71.1249 88.9178C71.1346 88.9076 71.1431 88.8974 71.1528 88.8861C71.326 88.8156 71.4963 88.7408 71.6637 88.6607C71.6614 88.6663 71.6578 88.6708 71.6555 88.6763L71.6542 88.6753ZM70.6779 33.3847C70.8729 33.2892 71.068 33.1949 71.2617 33.0995C71.4466 33.0088 71.6316 32.9193 71.8152 32.8287L71.8153 32.8308C71.8261 32.861 71.8382 32.8911 71.8516 32.92C71.7987 32.9451 71.7472 32.9713 71.6943 32.9964C71.5814 33.0349 71.4684 33.0724 71.3556 33.1131C71.1262 33.1958 70.9 33.2881 70.6766 33.3836L70.6779 33.3847Z" fill="#303E30"/>
<path d="M102.324 58.5617C102.326 58.294 102.33 58.0273 102.338 57.7605C102.357 57.1425 102.376 56.5256 102.371 55.9065C102.367 55.2906 102.371 54.6754 102.396 54.0604C102.422 53.4116 102.458 52.7624 102.485 52.1124C102.512 51.4952 102.521 50.8766 102.525 50.257C102.533 48.9775 102.52 47.6979 102.518 46.4177C102.516 45.131 102.512 43.8433 102.497 42.556C102.481 41.3267 102.443 40.0939 102.366 38.866C102.29 37.6315 102.153 36.3995 101.979 35.1734C101.878 34.5386 101.761 33.9033 101.711 33.263C101.673 32.7796 101.637 32.2939 101.622 31.8084C101.529 31.8002 101.438 31.7931 101.346 31.7849C99.9413 31.6583 98.5342 31.534 97.1255 31.4709C96.4198 31.4389 95.7126 31.4244 95.0059 31.3979C94.2966 31.3703 93.588 31.3319 92.8778 31.3121C92.1936 31.2922 91.511 31.2571 90.8292 31.1913C90.5677 31.166 90.3061 31.1397 90.0433 31.1145C89.8814 31.178 89.7195 31.2415 89.5576 31.305C89.5591 31.4644 89.5606 31.6238 89.5711 31.784C89.6129 32.4584 89.7396 33.1261 89.7891 33.8002C89.84 34.4972 89.8792 35.1947 89.9183 35.8911C89.9564 36.5908 89.9685 37.2905 89.982 37.9912C89.9963 38.705 90.0184 39.4185 90.0417 40.133C90.0873 41.5643 90.1045 42.9968 90.1295 44.4289C90.154 45.8764 90.194 47.3221 90.2043 48.7701C90.2146 50.1286 90.2224 51.4882 90.2262 52.8459C90.2289 53.5383 90.2251 54.231 90.2318 54.9244C90.2391 55.6308 90.2814 56.3358 90.3095 57.0425C90.3391 57.7535 90.3636 58.4647 90.4035 59.1742C90.4428 59.8509 90.486 60.5275 90.5137 61.2058C90.5714 62.6442 90.6187 64.0831 90.6363 65.5221C90.6401 65.8103 90.6426 66.0986 90.6438 66.3869C90.6512 67.5401 90.6483 68.6927 90.6376 69.8445C90.6251 71.2563 90.597 72.6655 90.5262 74.0754C90.4535 75.4973 90.3483 76.9163 90.2471 78.3372C90.1461 79.7615 90.0346 81.1839 89.9829 82.6116C89.9317 84.0021 89.8167 85.3854 89.6629 86.7692C89.5879 87.4397 89.539 88.1114 89.4874 88.7831C89.4619 89.102 89.4261 89.4203 89.3967 89.7394C89.3848 89.8677 89.3676 89.9951 89.3517 90.1225C89.5533 90.1185 89.7563 90.1167 89.9579 90.1127C91.4002 90.0848 92.8393 90.0265 94.2813 90.0161C94.6331 90.0136 94.9862 90.0121 95.3368 90.0118C95.699 90.0111 96.0587 90.0334 96.4183 90.0546C96.5416 90.0615 96.6662 90.0684 96.7907 90.0741C96.7956 90.0696 96.8005 90.0639 96.8067 90.0593C96.8044 90.0648 96.8034 90.0692 96.8011 90.0748C97.3761 90.1057 97.9508 90.1333 98.5252 90.1773C98.776 90.1964 99.0278 90.209 99.2792 90.2171C99.272 90.1825 99.2661 90.1467 99.2664 90.1073C99.2656 90.0265 99.2804 89.9473 99.2926 89.8681C99.2998 89.8132 99.3108 89.7581 99.3206 89.7042C99.3451 89.5699 99.3683 89.4346 99.3942 89.3003C99.4396 89.0581 99.489 88.8157 99.5396 88.5744C99.6525 88.0454 99.7523 87.5137 99.8704 86.9856C100.095 85.9746 100.386 84.9718 100.539 83.9475C100.67 82.96 100.794 81.9707 100.907 80.9818C100.965 80.4813 101.002 79.9795 101.043 79.4786C101.082 79.0007 101.149 78.526 101.215 78.0514C101.334 77.1475 101.437 76.2421 101.516 75.3321C101.591 74.4606 101.683 73.5884 101.732 72.7158C101.765 72.0939 101.795 71.4733 101.83 70.8525C101.866 70.2339 101.911 69.6148 101.957 68.9969C102.046 67.7544 102.078 66.5089 102.153 65.266C102.228 64.0264 102.288 62.7819 102.313 61.5389C102.326 60.8752 102.324 60.2112 102.324 59.547C102.284 59.6754 102.243 59.8049 102.203 59.9333C102.128 59.9571 102.054 59.9809 101.979 60.0048C102.056 59.6903 102.133 59.3758 102.209 59.0613C102.25 58.8947 102.289 58.7281 102.33 58.5615L102.324 58.5617ZM91.0229 54.9125C91.0955 54.8494 91.1683 54.7885 91.2411 54.7265C91.2593 54.7279 91.2762 54.7294 91.2931 54.7309C91.2021 54.7904 91.1126 54.8531 91.0216 54.9125L91.0229 54.9125ZM93.2235 69.1041C93.1883 69.2552 93.1518 69.4064 93.1166 69.5575C93.0312 69.6025 92.9459 69.6475 92.8618 69.6925C92.8856 69.6336 92.9105 69.5736 92.9343 69.5148C93.0034 69.3459 93.0778 69.1789 93.1377 69.0071C93.1544 68.9606 93.1697 68.913 93.1864 68.8653C93.195 68.8573 93.2036 68.8493 93.2109 68.8414C93.2428 68.8116 93.2747 68.7819 93.3066 68.7522C93.2785 68.8692 93.2503 68.9861 93.2235 69.1041V69.1041ZM93.9877 56.6645C93.9029 56.6964 93.8168 56.7284 93.732 56.7603C93.7353 56.7514 93.74 56.7425 93.7433 56.7325C93.7544 56.7014 93.7656 56.6704 93.7767 56.6394L94.1423 56.3632C94.0912 56.4636 94.0401 56.564 93.989 56.6645L93.9877 56.6645ZM97.1864 54.0866C97.0347 54.4599 96.8843 54.8343 96.7327 55.2086C96.6392 55.2693 96.5456 55.3278 96.4506 55.3863C96.6357 55.0313 96.8195 54.6764 97.0033 54.3203C97.0568 54.2165 97.1155 54.1136 97.1729 54.0107L97.1791 54.0061C97.1952 53.9934 97.2099 53.9797 97.226 53.967C97.2128 54.0069 97.2022 54.0477 97.1863 54.0855L97.1864 54.0866ZM97.8475 77.1921C97.7635 77.2371 97.6794 77.2831 97.5954 77.3281C97.6868 77.2085 97.7781 77.089 97.8709 76.9705C97.8975 76.9388 97.9241 76.906 97.9507 76.8743C97.918 76.9805 97.8828 77.0858 97.8475 77.1921V77.1921ZM98.0997 60.9023C98.0685 61.0336 98.0399 61.1659 98.0101 61.2982C97.8248 61.3605 97.6395 61.4227 97.4542 61.485C97.4677 61.4495 97.4812 61.414 97.4946 61.3774C97.6379 60.9946 97.7867 60.6149 97.9367 60.2351C98.0141 60.1871 98.0916 60.1402 98.1677 60.0912L98.3198 59.9931C98.2468 60.2955 98.1739 60.5989 98.1009 60.9012L98.0997 60.9023ZM98.5986 42.3347C98.4748 42.3868 98.351 42.4388 98.2259 42.4899C98.0578 42.558 97.8882 42.6229 97.7186 42.6878C98.0273 42.5232 98.3431 42.3682 98.6604 42.2185C98.6394 42.2576 98.6183 42.2956 98.5986 42.3347V42.3347ZM100.164 71.4741C100.259 71.0136 100.356 70.5529 100.454 70.0912C100.471 70.0097 100.489 69.9281 100.509 69.8464C100.561 69.8541 100.614 69.8596 100.665 69.8618C100.859 69.8724 101.039 69.842 101.211 69.7836C100.862 70.3474 100.513 70.9102 100.163 71.4741L100.164 71.4741ZM101.446 37.7723C101.508 37.6933 101.568 37.6132 101.628 37.5332C101.686 37.5133 101.744 37.4902 101.803 37.4714C101.686 37.5734 101.565 37.6724 101.445 37.7723L101.446 37.7723Z" fill="#303E30"/>
<path d="M88.2982 84.5611C88.3137 84.3813 88.3304 84.2014 88.3432 84.0218C88.3968 83.2953 88.4206 82.569 88.4548 81.8434C88.4872 81.1528 88.5454 80.4633 88.5972 79.773C88.6514 79.0574 88.703 78.342 88.7571 77.6253C88.8646 76.2008 88.9682 74.7765 89.0342 73.3504C89.1 71.944 89.1138 70.5333 89.1304 69.1256C89.1493 67.6906 89.1541 66.2583 89.1381 64.8236C89.1215 63.3802 89.0624 61.9386 89.0122 60.4954C88.9876 59.8258 88.9499 59.1555 88.9278 58.4846C88.9057 57.769 88.8874 57.0542 88.8511 56.3391C88.7831 54.9448 88.7783 53.5479 88.7658 52.1524C88.7549 50.7612 88.7428 49.3711 88.7227 47.9792C88.7024 46.5589 88.6406 45.1392 88.6138 43.7192C88.5989 42.9955 88.5931 42.2716 88.5745 41.5492C88.5577 40.8595 88.5293 40.1692 88.5073 39.4798C88.4639 38.0408 88.4579 36.6013 88.3991 35.164C88.3717 34.4704 88.3522 33.7775 88.2965 33.0862C88.2698 32.7596 88.2379 32.4332 88.2189 32.1063C88.2035 31.8404 88.2009 31.574 88.1984 31.3075C88.1752 31.3085 88.1532 31.3094 88.13 31.3104C88.1528 31.3018 88.1755 31.2921 88.1982 31.2824C88.1978 31.1852 88.1959 31.087 88.1955 30.9898C88.1948 30.9789 88.1981 30.9678 88.1987 30.9558C87.7012 30.9228 87.2042 30.8975 86.7059 30.8929C86.0173 30.8886 85.3283 30.8985 84.6407 30.9094C83.9517 30.9193 83.2646 30.94 82.5787 30.9814C81.8903 31.0241 81.2066 31.0599 80.5174 31.0666C79.7946 31.0724 79.0738 31.0694 78.3525 31.0806C77.6402 31.0903 76.928 31.1023 76.2155 31.1099C75.4992 31.1176 74.7825 31.1406 74.0671 31.1636C74.0663 31.1713 74.0668 31.18 74.0646 31.1878C74.0033 31.4678 73.9431 31.7466 73.8988 32.0303C73.8175 32.724 73.8026 33.427 73.7357 34.1234C73.669 34.8242 73.5892 35.5222 73.5525 36.2261C73.4844 37.5277 73.3775 38.8277 73.342 40.1323C73.3076 41.4336 73.2978 42.7361 73.2816 44.0378C73.2651 45.3362 73.1902 46.6315 73.1401 47.9291C73.1142 48.5965 73.0974 49.2657 73.0637 49.9335C73.0302 50.5815 72.9745 51.2261 72.9525 51.8737C72.9062 53.193 72.9248 54.5151 72.9212 55.8348C72.9178 57.1567 72.9 58.478 72.9069 59.7995C72.921 62.4042 72.9441 65.0074 72.9609 67.6131C72.9701 68.9093 72.9691 70.206 72.9978 71.5014C73.0131 72.1671 73.0478 72.8309 73.089 73.4955C73.1291 74.1427 73.1861 74.7893 73.2224 75.4377C73.2604 76.0905 73.2724 76.7443 73.2961 77.3965C73.3189 78.0346 73.3559 78.671 73.4019 79.307C73.4489 79.9616 73.4959 80.6151 73.5468 81.2684C73.5964 81.8999 73.6486 82.5313 73.6762 83.1626C73.7293 84.4112 73.745 85.6624 73.8097 86.9105C73.8382 87.4675 73.8963 88.0222 73.9389 88.5775C73.9727 89.0262 74.0477 89.4709 74.0621 89.9204C74.0752 89.9679 74.0833 90.0178 74.0836 90.067C74.084 90.1194 74.0755 90.1733 74.0617 90.2241C75.1756 90.224 76.2899 90.2085 77.4036 90.1582C78.1352 90.1247 78.8683 90.1173 79.6004 90.1133C80.2716 90.1096 80.9427 90.1016 81.6145 90.1077C83.0202 90.1195 84.4275 90.1576 85.8338 90.1574C86.5194 90.1564 87.2035 90.1511 87.8888 90.1424C87.8883 90.1119 87.8891 90.0812 87.8887 90.0518C87.8722 89.4112 87.9167 88.7736 87.9533 88.1342C87.9941 87.4345 88.0792 86.7384 88.1565 86.0416C88.1966 85.6849 88.2315 85.3285 88.2652 84.9721C88.2122 85.0398 88.1605 85.1075 88.1075 85.1763C87.9072 85.1802 87.7058 85.1874 87.5043 85.1925L87.5067 85.1891C87.7715 84.9815 88.0348 84.7707 88.2982 84.5611V84.5611ZM88.1658 41.151C88.1204 41.2162 88.075 41.2814 88.0297 41.3478C87.9733 41.3785 87.9156 41.4104 87.8593 41.4422C87.9624 41.3462 88.0641 41.2491 88.1658 41.151ZM74.4227 44.7957C74.4621 44.7384 74.5001 44.68 74.5381 44.6216C74.5998 44.6158 74.6616 44.61 74.7233 44.6031C74.6549 44.6944 74.5851 44.7846 74.5153 44.8749L74.2712 45.0161C74.3213 44.943 74.3726 44.8688 74.4227 44.7957V44.7957ZM74.1155 48.7518C74.1564 48.7654 74.196 48.779 74.2381 48.7904C74.1987 48.8707 74.1581 48.951 74.1188 49.0313C74.0935 49.064 74.0683 49.0978 74.0418 49.1306C74.0667 49.0039 74.0904 48.8773 74.1155 48.7518V48.7518ZM75.1863 89.4283C74.981 89.5241 74.777 89.621 74.5731 89.718C74.5113 89.7467 74.4483 89.7755 74.3853 89.8033C74.6519 89.6721 74.9214 89.5452 75.1896 89.4172L75.1863 89.4283V89.4283ZM75.6403 88.1337C75.5368 88.1784 75.4347 88.2241 75.3312 88.2688C75.3323 88.2665 75.3349 88.2653 75.336 88.2631C75.3772 88.2144 75.4183 88.1647 75.4582 88.1161C75.5204 88.119 75.5826 88.1208 75.6449 88.1236L75.6404 88.1348L75.6403 88.1337ZM75.218 50.8058C75.1704 50.8547 75.124 50.9025 75.0764 50.9514C75.1237 50.8522 75.171 50.7531 75.2196 50.6539C75.3139 50.6074 75.407 50.562 75.5014 50.5166C75.4061 50.6123 75.3134 50.7101 75.2181 50.8068L75.218 50.8058ZM75.2621 34.0516C75.2134 34.0831 75.1649 34.1157 75.1163 34.1483C75.1297 34.0898 75.1381 34.0338 75.1425 33.9757C75.1463 33.9734 75.1513 33.971 75.1551 33.9697C75.2416 33.9662 75.3267 33.9616 75.4131 33.9558C75.3631 33.9874 75.3133 34.02 75.2621 34.0516ZM75.644 57.6503C75.6307 57.6443 75.6149 57.6395 75.6015 57.6324C75.6305 57.5973 75.661 57.5644 75.69 57.5304C75.6755 57.5704 75.6598 57.6103 75.6453 57.6503L75.644 57.6503ZM78.792 56.7852C78.9959 56.5987 79.2011 56.4111 79.405 56.2246C79.416 56.2143 79.4283 56.2029 79.4394 56.1926C79.3927 56.3027 79.3461 56.4127 79.2994 56.5228C79.1162 56.6658 78.9331 56.8088 78.7499 56.9518C78.7635 56.8967 78.7783 56.8403 78.792 56.7852V56.7852ZM77.1123 36.3478C77.0981 36.3495 77.0853 36.3522 77.0712 36.3539C76.9466 36.3688 76.8218 36.3816 76.6969 36.3923C76.7115 36.3753 76.7273 36.3582 76.7419 36.3423C76.9467 36.2814 77.1516 36.2227 77.3591 36.165C77.2759 36.2252 77.1941 36.2865 77.1123 36.3478ZM79.1992 62.0597C78.9907 62.3239 78.7809 62.5882 78.5724 62.8524C78.5444 62.8831 78.5165 62.9137 78.4897 62.9432C78.4783 62.9481 78.467 62.9529 78.4556 62.9577C78.5262 62.7702 78.5955 62.5817 78.6701 62.3951C78.7423 62.2129 78.8145 62.0308 78.8867 61.8487C79.0253 61.8058 79.1654 61.7683 79.3059 61.7363C79.2706 61.8426 79.2355 61.9501 79.2015 62.0563L79.2017 62.0596L79.1992 62.0597ZM79.4291 90.0592C79.5111 89.9575 79.5906 89.8548 79.67 89.7532C79.716 89.7426 79.7607 89.732 79.8053 89.7203C79.6813 89.8358 79.5559 89.948 79.4277 90.0582L79.4291 90.0592ZM80.6835 53.3098C80.572 53.4171 80.4618 53.5254 80.3503 53.6327C80.2634 53.7171 80.1764 53.8016 80.0895 53.886C79.8828 53.9579 79.6774 54.0308 79.4721 54.1048C79.5088 53.9569 79.5441 53.8069 79.5795 53.6591C79.9357 53.533 80.2906 53.4069 80.6468 53.2797C80.6671 53.2723 80.6861 53.266 80.7064 53.2586C80.6983 53.2753 80.6916 53.2931 80.6835 53.3098V53.3098ZM80.6117 50.358C80.5503 50.4151 80.4889 50.4712 80.4288 50.5283C80.4521 50.4836 80.474 50.4379 80.4986 50.3932C80.6791 50.2492 80.8584 50.1053 81.0375 49.9603C80.8952 50.0928 80.7541 50.2254 80.613 50.3579L80.6117 50.358ZM82.5399 85.948C82.5121 86.0038 82.4856 86.0595 82.4591 86.1152C82.4555 86.1208 82.4507 86.1276 82.4472 86.1332C82.379 86.1404 82.3108 86.1465 82.2426 86.1526C82.3524 86.0606 82.4621 85.9676 82.5719 85.8746C82.5617 85.8991 82.5474 85.9215 82.5412 85.9469L82.5399 85.948ZM81.9789 35.4029C81.8972 35.4205 81.814 35.437 81.7322 35.4546C82.2154 35.2195 82.7046 34.9994 83.1995 34.7878C82.8851 34.9657 82.575 35.1511 82.2691 35.3429C82.172 35.3633 82.0761 35.3825 81.9789 35.4029ZM82.761 84.4751C82.7736 84.4473 82.7876 84.4205 82.8002 84.3927C82.8753 84.3481 82.9503 84.3035 83.0253 84.2589C82.935 84.3292 82.846 84.4017 82.7597 84.4752L82.761 84.4751ZM82.7044 39.0291C82.7934 38.9577 82.8824 38.8863 82.9714 38.8149C83.4071 38.6079 83.8426 38.3987 84.2781 38.1896C84.7312 37.9721 85.1844 37.7556 85.6388 37.5381C85.629 37.5472 85.6191 37.5553 85.608 37.5634C85.4736 37.6782 85.3392 37.7918 85.2035 37.9056C85.1089 37.9477 85.0143 37.9899 84.9198 38.0331C84.316 38.3071 83.7121 38.58 83.1096 38.8539C82.976 38.9152 82.8396 38.9721 82.7031 39.0291L82.7044 39.0291ZM83.8471 52.669C83.866 52.5263 83.8849 52.3835 83.9037 52.2396C83.9131 52.2021 83.9213 52.1646 83.9308 52.1271C84.3936 51.9659 84.8538 51.8027 85.3166 51.6405C85.4142 51.6059 85.5118 51.5702 85.6095 51.5367C85.2165 51.8544 84.8235 52.1721 84.4305 52.4898C84.236 52.5492 84.0415 52.6075 83.8483 52.6679L83.8471 52.669ZM85.3566 68.7058C85.3005 68.7409 85.2443 68.776 85.1881 68.8111C85.042 68.9023 84.8972 68.9924 84.7511 69.0836C84.7958 68.9627 84.8393 68.843 84.8854 68.722C85.013 68.6697 85.1421 68.6196 85.2696 68.5663C85.3341 68.5396 85.3973 68.5141 85.4604 68.4874C85.4258 68.5598 85.3899 68.6323 85.3553 68.7048L85.3566 68.7058ZM85.6972 87.8724C85.6972 87.8724 85.6883 87.8749 85.6845 87.8762C85.7796 87.7313 85.8746 87.5854 85.9684 87.4395C86.0301 87.4337 86.0918 87.4268 86.1535 87.4198C85.9992 87.5693 85.8435 87.7178 85.6959 87.8724L85.6972 87.8724ZM86.4541 71.1838C86.4316 71.1978 86.4091 71.2119 86.3866 71.2259C86.419 71.1809 86.45 71.1359 86.4809 71.0898C86.4725 71.1219 86.4639 71.1528 86.4541 71.1838V71.1838ZM86.3941 49.3196C86.3243 49.3421 86.2557 49.3635 86.1858 49.3861L86.4049 49.1487C86.4147 49.1385 86.4231 49.1283 86.4329 49.1181C86.42 49.1852 86.407 49.2524 86.3941 49.3196V49.3196Z" fill="#303E30"/>
</svg>
