<svg width="160" height="120" viewBox="0 0 160 120" fill="none" xmlns="http://www.w3.org/2000/svg">
<g clip-path="url(#clip0_203_3254)">
<path d="M121.94 41.2611C121.909 40.8671 121.874 40.4783 121.819 40.0844C122.086 38.3825 122.116 36.6958 121.3 34.7868C121.038 35.2262 120.695 35.6403 120.216 36.019C117.737 38.0037 113.842 38.1754 110.839 38.635C102.757 39.8672 94.5493 39.0037 86.4118 39.2814C79.4081 39.5188 71.7845 40.1551 65.1486 37.423C62.8308 36.4685 60.4273 34.3222 59.8882 32.0092C58.7242 33.8677 58.5378 36.5846 58.2254 38.7865C56.2452 38.0795 54.5522 37.5189 52.184 37.9027C49.181 38.3875 45.8453 40.3823 43.8551 42.6852C39.804 47.3465 38.0152 52.2956 38.0001 58.3911C37.98 64.8148 40.716 70.9355 45.0291 75.617C47.6039 78.4148 53.7007 81.561 58.039 80.4197C58.0188 80.6217 58.0087 80.8287 58.0239 81.0004C58.0743 81.6418 58.2355 82.3337 58.3161 82.975C58.558 84.7527 59.2029 86.1112 60.6339 87.1969C61.9742 88.2221 63.1784 89.8583 64.8563 90.3331C65.1335 90.4088 65.4207 90.4391 65.7079 90.4442C70.7264 92.7672 77.448 92.8632 82.8444 92.641C84.0991 92.5905 85.3487 92.545 86.5932 92.4996C89.3544 92.7117 92.1156 92.9086 94.8869 92.9692C100.102 93.0803 105.927 92.8935 110.945 91.2875C113.444 90.4896 115.218 89.4543 116.452 87.9292C118.13 87.0606 119.385 85.7778 119.682 83.1265C120.282 77.7785 120.478 72.1981 120.811 66.8197C121.013 63.4462 120.846 60.0929 121.149 56.7144C121.36 54.3005 121.683 51.9017 121.743 49.4725C121.809 46.7859 122.136 43.9275 121.94 41.2611V41.2611ZM52.6325 74.6676C45.0795 71.5416 42.0109 63.6583 43.0136 55.8559C43.0791 55.3559 43.8651 55.3408 43.8148 55.8559C43.0438 63.2998 45.9159 70.6275 52.9348 73.9505C53.3379 74.1424 53.0406 74.8393 52.6325 74.6726V74.6676ZM58.9611 60.9818C58.7897 64.2694 59.1626 67.4358 58.6839 70.6679C57.4343 70.5012 55.7061 70.8396 55.051 70.7133C49.5034 69.673 49.4883 60.3354 49.71 56.2145C49.8965 52.5632 49.836 48.71 54.7084 48.1797C55.9278 48.0535 57.2731 48.6342 58.5177 48.5585C60.0091 52.2148 59.1626 57.2346 58.9711 60.9818H58.9611ZM69.4667 84.7577C61.6769 87.6565 64.4381 51.3512 64.2265 47.0182C64.2063 46.5586 64.9017 46.5687 64.9369 47.0182C65.2544 51.1643 63.1432 85.8587 69.2702 84.0204C69.7489 83.879 69.9252 84.5911 69.4718 84.7577H69.4667ZM71.4419 79.1571C70.8272 78.7127 70.3233 78.1825 69.895 77.5512C69.6028 77.1219 69.2551 76.5917 69.3004 76.0513C69.3256 75.718 69.8295 75.6069 69.9152 75.9655C70.0109 76.3745 70.3485 76.8038 70.5954 77.1371C70.9733 77.6522 71.4066 78.1471 71.8954 78.5612C72.2229 78.8339 71.7845 79.3995 71.4419 79.1521V79.1571ZM99.8752 75.5716C100.107 76.0109 99.9105 76.5715 99.4167 76.7078C97.2652 77.3037 95.1237 77.2633 92.9571 77.1219C92.9571 77.1522 92.9571 77.1825 92.9571 77.2128C93.0579 78.031 93.0075 78.9501 92.9269 79.6975C92.8311 80.6267 92.5439 81.6923 91.5815 82.0559C90.5083 82.465 89.0017 81.8388 88.4777 80.8388C87.8831 79.6975 88.2107 78.1067 88.5533 76.8593C86.4219 76.8593 84.3107 77.0664 82.3053 76.1927C81.9627 76.0412 81.877 75.5312 82.0534 75.2332C82.9553 73.7485 84.0789 72.4455 85.0967 71.0467C84.0033 70.8194 82.9351 70.5113 81.8417 70.2437C81.4135 70.1376 81.1666 69.5771 81.4185 69.1983C82.8545 67.0167 84.6181 65.0825 86.039 62.9008C85.1421 62.7493 84.2452 62.5978 83.3534 62.4312C82.8848 62.3403 82.7638 61.7847 82.9402 61.4161C83.3433 60.5828 83.8471 59.8253 84.3762 59.0779C84.2351 58.9314 84.1847 58.7143 84.3258 58.4769C85.9836 55.7296 87.8731 53.1793 90.3571 51.129C90.6846 50.8563 91.118 50.8916 91.3649 51.2603C93.4459 54.4267 95.9904 57.275 97.1745 60.9414C97.3004 61.3252 97.0284 61.7544 96.6555 61.8605C95.9602 62.0524 95.285 62.1483 94.6047 62.2241C96.6404 64.1532 98.8473 65.9056 100.011 68.5418C100.218 69.0064 100.067 69.5165 99.5477 69.6781C98.5601 69.9912 97.3659 70.0063 96.3381 70.2841C97.6532 71.9658 98.8675 73.6677 99.8853 75.5817L99.8752 75.5716ZM107.72 76.7381C109.252 75.8544 110.23 74.2989 110.824 72.6728C110.991 72.2233 111.661 72.395 111.545 72.8697C111.081 74.7534 109.852 76.521 108.098 77.3896C107.665 77.6068 107.287 76.9805 107.715 76.7331L107.72 76.7381ZM116.694 62.3655C116.211 65.7642 115.918 69.1276 115.601 72.5364C115.142 77.5209 113.575 82.162 108.29 83.576C107.69 83.7376 107.494 82.8892 108.043 82.672C113.626 80.4247 114.21 75.516 114.639 70.1427C115.107 64.1886 117.052 58.1335 116.175 52.1542C116.12 51.7603 116.704 51.5734 116.79 51.9825C117.531 55.4468 117.193 58.891 116.699 62.3655H116.694ZM66.1865 35.6453C67.2195 36.0089 68.2877 36.2816 69.3559 36.5038C72.0919 37.0745 74.9136 37.2159 77.6999 37.2462C82.7437 37.2967 87.7773 36.9028 92.8211 36.9584C99.4721 37.0341 105.952 37.1856 112.537 36.0796C115.289 35.6201 118.705 35.4585 119.884 32.4133C118.629 30.8528 116.956 29.7922 114.855 29.2216C111.409 28.2924 107.594 28.2924 104.042 27.8631C100.822 27.4692 97.8396 27.8025 94.635 27.6661C91.0071 27.4995 87.4649 26.9036 83.7766 27.0096C80.6526 27.1005 77.5437 27.5904 74.4248 27.6661C71.4016 27.7318 68.2373 27.1359 65.3199 28.2116C64.2668 28.5954 62.6998 29.3226 61.7071 30.3326C61.5963 30.3831 61.5006 30.4488 61.3947 30.5094C60.9564 33.0344 64.3625 35.004 66.1865 35.6504V35.6453Z" fill="#303E30"/>
</g>
<defs>
<clipPath id="clip0_203_3254">
<rect width="84" height="66" fill="white" transform="translate(38 27)"/>
</clipPath>
</defs>
</svg>
