<svg width="160" height="120" viewBox="0 0 160 120" fill="none" xmlns="http://www.w3.org/2000/svg">
<g clip-path="url(#clip0_203_3258)">
<path d="M33.0677 70.6787C27.7058 70.6787 23.3589 75.0155 23.3589 80.3649C23.3589 85.7143 27.7058 90.0511 33.0677 90.0511C38.4295 90.0511 42.7764 85.7143 42.7764 80.3649C42.7764 75.0155 38.4295 70.6787 33.0677 70.6787ZM34.3885 73.2097C36.5912 73.6119 38.448 75.0008 39.4811 76.9011L39.4803 76.9004C36.796 78.3084 35.0184 78.6193 34.2897 78.6866C34.1286 77.9747 33.8756 76.1918 34.3885 73.2097ZM31.7468 73.2097C32.2598 76.1918 32.0067 77.9747 31.8456 78.6866C31.1169 78.6196 29.3397 78.3088 26.6554 76.9004L26.6546 76.9011C27.6877 75.0008 29.5445 73.6119 31.7472 73.2097H31.7468ZM27.7842 85.3783C26.5399 84.0733 25.7762 82.3081 25.7762 80.3649C25.7762 80.0402 25.7977 79.7207 25.8392 79.4072C28.8403 79.8422 30.4614 80.6328 31.0901 81.0057C30.8009 81.6763 29.9556 83.2665 27.7842 85.3779V85.3783ZM33.0677 87.6394C31.9399 87.6394 30.8721 87.3839 29.9194 86.9278H29.9209C31.2629 84.2144 32.5177 82.9207 33.0677 82.439C33.6176 82.9207 34.8724 84.2144 36.2144 86.9278H36.2159C35.2628 87.3835 34.195 87.639 33.0677 87.639V87.6394ZM40.3591 80.3649C40.3591 82.3081 39.5954 84.0733 38.3511 85.3783C36.1797 83.2669 35.3344 81.6767 35.0452 81.0061C35.6743 80.6332 37.295 79.8422 40.2961 79.4076C40.3376 79.7211 40.3591 80.0405 40.3591 80.3653V80.3649Z" fill="#303E30"/>
<path d="M125.804 70.6787C120.442 70.6787 116.095 75.0155 116.095 80.3649C116.095 85.7143 120.442 90.0511 125.804 90.0511C131.166 90.0511 135.513 85.7143 135.513 80.3649C135.513 75.0155 131.166 70.6787 125.804 70.6787ZM127.125 73.2097C129.328 73.6119 131.184 75.0008 132.217 76.9011L132.217 76.9004C129.532 78.3084 127.755 78.6193 127.026 78.6866C126.865 77.9747 126.612 76.1918 127.125 73.2097ZM124.483 73.2097C124.996 76.1918 124.743 77.9747 124.582 78.6866C123.853 78.6196 122.076 78.3088 119.392 76.9004L119.391 76.9011C120.424 75.0008 122.281 73.6119 124.484 73.2097H124.483ZM120.521 85.3783C119.276 84.0733 118.513 82.3081 118.513 80.3649C118.513 80.0402 118.534 79.7207 118.575 79.4072C121.577 79.8422 123.198 80.6328 123.826 81.0057C123.537 81.6763 122.692 83.2665 120.521 85.3779V85.3783ZM125.804 87.6394C124.676 87.6394 123.608 87.3839 122.655 86.9278H122.657C123.999 84.2144 125.254 82.9207 125.804 82.439C126.354 82.9207 127.608 84.2144 128.95 86.9278H128.952C127.999 87.3835 126.931 87.639 125.803 87.639L125.804 87.6394ZM133.095 80.3649C133.095 82.3081 132.332 84.0733 131.087 85.3783C128.916 83.2669 128.071 81.6767 127.781 81.0061C128.411 80.6332 130.031 79.8422 133.032 79.4076C133.074 79.7211 133.095 80.0405 133.095 80.3653V80.3649Z" fill="#303E30"/>
<path d="M143.535 63.6314C143.815 64.1052 145.099 64.4649 146.498 64.7231C146.521 64.6467 147.306 62.6042 147.429 62.293H146.539C146.018 62.293 145.498 62.3381 144.987 62.4378C144.128 62.606 143.134 62.9519 143.535 63.6314H143.535Z" fill="#303E30"/>
<path d="M147.532 64.8939C149.141 65.134 150.617 65.2446 150.617 65.2446L151.225 65.0241C152.426 64.5884 153.382 63.639 153.775 62.4266C153.789 62.3821 153.803 62.3374 153.816 62.293H148.518C148.373 62.7076 147.683 64.4277 147.532 64.8939V64.8939Z" fill="#303E30"/>
<path d="M66.0928 55.1654C66.0928 55.1654 68.3144 54.9121 69.1596 54.7018C70.0048 54.4911 70.5687 53.5067 70.322 52.5227C70.0754 51.5387 68.3494 51.8198 66.1019 52.5227C63.8543 53.2256 64.087 54.3853 64.087 54.3853L63.3942 55.089L61.8251 55.0446C60.6974 56.1539 59.9453 57.6843 59.3064 59.092C58.606 60.6344 58.0055 62.2563 57.7117 63.9281C57.3451 66.0136 57.3986 68.1539 57.4582 70.2619C57.4869 71.2854 57.5261 72.3097 57.5205 73.3336C57.5182 73.7671 57.5005 74.2002 57.4926 74.6333H89.9391V55.842L66.0928 55.1654V55.1654ZM81.0213 57.7121H85.0634C85.7257 57.7121 85.7246 58.7372 85.0634 58.7372H81.0213C80.3589 58.7372 80.3601 57.7121 81.0213 57.7121V57.7121Z" fill="#303E30"/>
<path d="M145.66 70.3471C144.358 70.5582 143.007 71.1377 142.226 72.244C141.589 73.1456 141.319 74.2433 141.215 75.3274C140.998 77.587 141.381 79.8546 141.248 82.1139C144.606 81.2935 149.461 79.9716 150.21 79.0203C151.057 77.9445 151.231 73.2269 151.14 69.5645C150.383 69.6999 146.186 70.2621 145.66 70.3475V70.3471ZM143.632 73.6051C145.412 73.4192 147.072 72.603 148.805 72.2C149.45 72.0503 149.722 73.0388 149.078 73.1885C147.247 73.6141 145.516 74.4333 143.632 74.6301C142.974 74.699 142.981 73.6732 143.632 73.6051ZM149.316 76.3513C147.514 76.8055 145.757 77.4346 143.927 77.7744C143.279 77.8945 143.004 76.9067 143.654 76.7859C145.484 76.4461 147.241 75.817 149.043 75.3628C149.685 75.201 149.957 76.1895 149.316 76.3513Z" fill="#303E30"/>
<path d="M90.9642 78.3493C90.9642 78.3493 108.04 78.2688 108.182 78.2884C108.945 78.3937 109.525 77.6483 109.887 77.0869C110.181 76.6304 110.423 76.1458 110.658 75.6577H90.9639V78.349L90.9642 78.3493Z" fill="#303E30"/>
<path d="M32.1507 60.1374C35.9514 59.5816 39.7631 59.1 43.5839 58.7037C45.664 58.4881 47.8101 58.4712 49.8329 57.8951C50.7004 57.6482 51.5709 57.2798 52.2072 56.6228C52.7133 56.0998 52.9626 55.4488 53.0475 54.7583C47.3945 55.2539 21.4224 57.7905 10.3366 63.4085C10.0632 63.5474 9.80933 63.7164 9.57812 63.9101C10.1597 63.7894 18.5759 62.382 20.7077 62.0291C24.5228 61.3973 28.3232 60.6977 32.1507 60.1378V60.1374Z" fill="#303E30"/>
<path d="M156.391 58.6199C156.232 56.9593 152.587 59.964 142.283 56.0897C131.98 52.2154 128.652 50.1329 123.579 47.9188C118.507 45.7047 105.192 42.8584 87.8613 40.7497C87.8613 40.7497 79.8302 39.3792 71.6931 44.1235C63.5561 48.8678 54.1513 54.6662 54.1513 54.6662C54.1513 54.6662 54.1317 54.6677 54.0943 54.6707C54.0095 55.6645 53.6527 56.6097 52.9379 57.3476C52.1274 58.1849 50.9981 58.6541 49.8881 58.9442C47.7081 59.5143 45.4002 59.5377 43.1684 59.7728C39.2466 60.186 35.3346 60.6887 31.435 61.2731C27.4887 61.8647 10.39 64.9909 8.63614 65.0586C8.51281 65.2822 8.40984 65.5185 8.33026 65.7646L7.99269 66.808L24.5 65.275C24.8458 65.243 25.0095 65.6897 24.7244 65.8876L18.0383 70.5281C17.537 70.8761 16.949 71.0786 16.3395 71.1136L6.4146 71.6844L4.15874 78.6523C3.48474 80.7351 5.04132 82.8683 7.23495 82.8683H20.8795C20.7124 82.0551 20.6253 81.2126 20.6264 80.3497C20.6343 73.5644 26.1674 68.0043 32.9686 67.9505C39.887 67.8959 45.5126 73.4745 45.5126 80.364C45.5126 81.2212 45.4254 82.0577 45.2599 82.866L113.615 82.8679C113.448 82.0547 113.36 81.2126 113.362 80.3497C113.369 73.5644 118.902 68.0046 125.703 67.9505C132.622 67.8955 138.248 73.4745 138.248 80.364C138.248 81.2212 138.161 82.0577 137.995 82.866C137.995 82.866 138.893 82.6733 140.202 82.3644C140.304 81.0218 140.197 79.6698 140.147 78.3271C140.057 75.8918 140.032 73.0425 141.811 71.1388C142.877 69.9975 144.499 69.4003 146.031 69.2773C147.035 69.1964 150.402 68.6605 151.105 68.5397C151.067 67.5986 151.012 66.7719 150.949 66.1578C150.949 66.1578 143.34 65.4199 142.547 63.6803C142.072 62.6364 143.251 62.1051 144.271 61.847C144.308 61.8376 144.346 61.8293 144.383 61.8206H124.292C123.63 61.8206 123.631 60.7956 124.292 60.7956H155.161C155.816 60.2485 156.473 59.4763 156.391 58.6195V58.6199ZM41.6447 67.4131C41.0265 67.4037 40.4456 67.2603 39.8622 67.0665C39.2149 66.8517 39.494 65.827 40.145 66.0434C40.6403 66.2078 41.1189 66.3437 41.6447 66.352C42.3296 66.3625 42.3292 67.4237 41.6447 67.4131ZM43.1443 63.9561C42.4771 63.8003 42.7611 62.7776 43.4272 62.933C43.9767 63.0609 44.5293 63.0775 45.0909 63.0778C45.7762 63.0778 45.7754 64.1394 45.0909 64.139C44.4354 64.139 43.7851 64.1059 43.1443 63.9565V63.9561ZM47.5523 67.5768H45.9112C45.2255 67.5768 45.2267 66.5157 45.9112 66.5157H47.5523C48.238 66.5157 48.2369 67.5768 47.5523 67.5768ZM49.1934 63.0775H50.8344C51.5201 63.0775 51.519 64.1386 50.8344 64.1386H49.1934C48.5077 64.1386 48.5088 63.0775 49.1934 63.0775ZM51.1626 70.6872C50.6579 70.6872 50.1499 70.6831 49.6629 70.8321C49.0059 71.0331 48.7276 70.0084 49.3801 69.809C49.9545 69.6332 50.5667 69.6265 51.1626 69.6265C51.8483 69.6265 51.8468 70.6872 51.1626 70.6876V70.6872ZM53.624 67.2491H52.147C51.4613 67.2491 51.4624 66.1879 52.147 66.1879H53.624C54.3097 66.1879 54.3086 67.2491 53.624 67.2491ZM117.722 63.0726C117.599 64.0867 117.228 65.091 116.867 66.0408C116.379 67.3288 115.787 68.577 115.141 69.7932C114.267 71.4376 113.245 73.0033 112.345 74.6327H112.801C113.463 74.6327 113.462 75.6577 112.801 75.6577H111.802C111.734 75.7913 111.668 75.9256 111.603 76.0607C110.925 77.4696 109.991 79.3209 108.237 79.3006C108.164 79.3461 59.3099 79.5885 59.0873 79.514C58.2198 79.222 57.45 78.7064 57.0072 77.8873C56.638 77.2039 56.512 76.4257 56.4732 75.6577H54.5477C53.8854 75.6577 53.8865 74.6327 54.5477 74.6327H56.4622C56.4709 74.171 56.4901 73.7093 56.4909 73.2476C56.4928 72.1194 56.4468 70.9917 56.4173 69.8643C56.3589 67.6201 56.3528 65.3499 56.8171 63.1426C57.1849 61.395 57.8766 59.687 58.6472 58.0806C59.3102 56.6981 60.1076 55.2144 61.2632 54.1608C61.3126 54.0637 61.3915 53.9768 61.5035 53.9121L73.9124 46.7591C73.9124 46.7591 78.4562 43.2799 88.2842 44.1235C89.5745 44.2342 91.1563 44.3888 92.9343 44.5928L90.964 55.8711V74.6331H111.162C111.649 73.6987 112.238 72.8107 112.772 71.9031C113.415 70.8099 114.043 69.707 114.618 68.5759C115.19 67.4477 115.709 66.2921 116.12 65.0951C116.324 64.5029 116.507 63.9008 116.649 63.2908C116.664 63.2223 116.678 63.1546 116.69 63.0861C116.687 63.0948 116.712 62.9141 116.716 62.869C116.841 61.573 116.83 60.2507 116.772 58.9518C116.745 58.3294 116.707 57.6897 116.602 57.1215C116.58 57.0022 116.555 56.8829 116.523 56.7659C116.511 56.7188 116.495 56.6726 116.482 56.6259C116.48 56.6206 116.476 56.6093 116.471 56.5958C116.47 56.5958 116.469 56.595 116.468 56.595L92.3542 55.9109L94.3551 44.7617C100.419 45.506 108.283 46.7862 114.729 48.8039L117.546 56.6255C117.72 57.3702 117.763 58.1536 117.798 58.9149C117.86 60.2891 117.887 61.7044 117.722 63.0733L117.722 63.0726ZM95.7978 70.6082C96.4835 70.6079 96.482 71.669 95.7978 71.6694C95.3226 71.6694 94.8424 71.6675 94.4253 71.9245C93.8403 72.2842 93.307 71.3661 93.8885 71.0082C94.466 70.653 95.1362 70.609 95.7978 70.6082ZM95.283 67.1892C95.8853 67.3288 96.4952 67.3337 97.1107 67.3341C97.796 67.3341 97.7953 68.3956 97.1107 68.3952C96.3994 68.3952 95.696 68.3742 95.0001 68.2127C94.3325 68.0577 94.6169 67.0349 95.283 67.1896V67.1892ZM100.661 70.8445C100.923 70.9661 100.987 71.3409 100.852 71.5704C100.698 71.8338 100.385 71.8816 100.124 71.7608C99.9018 71.6573 99.6483 71.6698 99.4081 71.6694C98.7228 71.669 98.7235 70.6079 99.4081 70.6082C99.8509 70.6082 100.256 70.6564 100.661 70.8445V70.8445ZM100.721 67.4978H102.034C102.72 67.4978 102.719 68.5589 102.034 68.5589H100.721C100.035 68.5589 100.036 67.4978 100.721 67.4978ZM103.511 70.7723H104.659C105.345 70.7723 105.344 71.8334 104.659 71.8334H103.511C102.825 71.8334 102.826 70.7723 103.511 70.7723ZM108.521 58.2654H112.563C113.225 58.2654 113.224 59.2904 112.563 59.2904H108.521C107.858 59.2904 107.859 58.2654 108.521 58.2654ZM125.335 56.846L119.248 56.6733L116.32 49.3269C121.046 50.9642 124.788 53.0417 126.108 55.6502C126.39 56.2082 125.961 56.8637 125.335 56.846H125.335Z" fill="#303E30"/>
<path d="M57.8572 77.2996C58.1287 77.8366 58.5678 78.1982 59.1037 78.4281C59.1777 78.3792 89.9364 78.3495 89.9364 78.3495V75.6582H57.5C57.5275 76.2181 57.6033 76.7976 57.8572 77.2996V77.2996Z" fill="#303E30"/>
<path d="M16.6763 67.0132L7.82714 67.7684L6.95361 70.4856L14.4212 70.1349C15.234 69.1438 15.9507 68.074 16.6763 67.0132Z" fill="#303E30"/>
<path d="M16.9351 69.7618L20.9848 67.1586C21.1896 67.0269 21.081 66.7093 20.8381 66.73L17.5182 67.0133C16.805 68.035 16.1204 69.0833 15.3706 70.0779L16.0435 70.0462C16.3607 70.0312 16.6681 69.933 16.9351 69.7618Z" fill="#303E30"/>
</g>
<defs>
<clipPath id="clip0_203_3258">
<rect width="153" height="50" fill="white" transform="translate(4 40)"/>
</clipPath>
</defs>
</svg>
