<svg width="160" height="120" viewBox="0 0 160 120" fill="none" xmlns="http://www.w3.org/2000/svg">
<g clip-path="url(#clip0_219_23478)">
<path d="M131 94.1142V94.9999H129.221C128.881 94.9414 128.542 94.8564 128.198 94.8298C125.225 94.5942 122.336 94.0593 119.679 92.6014C117.475 91.3933 115.248 90.2278 113.029 89.0498C110.194 87.5441 107.325 86.1571 103.995 86.1872C102.069 86.2049 100.143 86.1943 98.2146 86.1677C96.8824 86.15 95.5218 86.2439 94.2252 86.0083C89.7733 85.2006 85.3321 84.3149 80.9069 83.376C76.1598 82.3699 71.4571 81.1707 66.5677 80.9705C61.833 80.7756 57.1019 81.2858 52.3459 80.533C49.1053 80.0193 45.7312 80.3346 42.4159 80.3027C40.7547 80.2867 39.3122 80.7668 38.1277 82.0457C35.538 84.8427 32.8772 87.5742 30.2466 90.3323C30.0083 90.582 29.7806 90.8389 29.4765 91.1719C29.4178 90.8672 29.3609 90.699 29.3555 90.5289C29.2346 86.9029 29.1048 83.2786 29.0069 79.6526C28.9216 76.4818 29.7504 73.5873 31.7229 71.056C32.1035 70.5671 32.4557 70.0534 32.8416 69.5681C36.3935 65.1166 40.5288 61.2142 44.6819 57.3472C46.8678 55.3119 49.4717 53.7301 52.5078 53.4413C57.31 52.9878 62.1336 52.6531 66.9555 52.5539C73.0259 52.4299 79.107 52.4671 85.1738 52.6672C91.5928 52.878 98.0065 53.3173 104.417 53.7442C107.076 53.9214 109.544 54.6654 111.713 56.4031C114.822 58.8937 117.456 61.7828 119.622 65.0864C122.781 69.8993 125.865 74.7618 128.922 79.6402C129.319 80.2726 129.548 81.1228 129.536 81.8686C129.511 83.3672 129.177 84.8605 129.139 86.3591C129.106 87.723 128.99 89.2163 129.477 90.4244C129.97 91.6467 130.772 92.7591 130.998 94.1124L131 94.1142Z" fill="#303E30"/>
<path d="M42.2773 80.9158C43.7892 80.9158 45.2049 80.8857 46.6172 80.9229C48.6893 80.976 50.8111 80.8131 52.8174 81.2152C56.4991 81.9521 60.1809 81.8245 63.8715 81.7306C68.7271 81.6049 73.3871 82.7456 78.0791 83.7305C83.5786 84.8855 89.0763 86.0688 94.6077 87.0554C96.4771 87.3885 98.446 87.1723 100.369 87.1901C101.792 87.2025 103.225 87.0714 104.632 87.2166C106.026 87.3601 107.478 87.5727 108.757 88.1059C111.563 89.2768 114.277 90.6691 117.027 91.9728C117.146 92.0295 117.25 92.1216 117.575 92.3413H116.492C92.5161 92.3413 68.5386 92.3413 44.5629 92.3413C44.4152 92.3413 44.2658 92.343 44.1182 92.3413C42.5086 92.3112 42.2791 92.0826 42.2791 90.5221C42.2791 87.6878 42.2791 84.8554 42.2791 82.0211C42.2791 81.7041 42.2791 81.3888 42.2791 80.9176L42.2773 80.9158Z" fill="#303E30"/>
<path d="M39.1895 60.6174C39.1895 59.039 39.1806 57.4607 39.2002 55.8824C39.2037 55.6592 39.2945 55.4059 39.4243 55.2217C42.0851 51.4309 45.267 48.2566 50.0497 47.4134C52.6341 46.9582 55.2842 46.7633 57.9112 46.6978C65.9043 46.4958 73.901 46.4002 81.8958 46.3045C82.8527 46.2939 83.8114 46.5454 84.7701 46.6659C85.4726 46.7545 86.1752 46.8873 86.8795 46.8944C91.1749 46.944 95.4756 46.8377 99.7638 47.0361C102.412 47.1583 105.053 47.6596 107.673 48.1273C108.664 48.3044 109.676 48.7242 110.523 49.2716C116.926 53.4202 122.601 58.3836 127.243 64.456C127.957 65.3877 128.618 66.3992 129.086 67.4691C130.537 70.794 129.838 72.3245 127.085 74.1667C126.018 72.4006 124.958 70.6328 123.885 68.8738C121.006 64.1548 117.587 59.9106 113.347 56.2952C110.692 54.0313 107.698 52.8693 104.301 52.6815C96.7935 52.2653 89.286 51.8118 81.7713 51.6063C75.6476 51.438 69.5113 51.5053 63.3858 51.6648C59.4853 51.7657 55.5866 52.1572 51.7021 52.5469C49.0715 52.8108 46.9496 54.2846 44.9754 55.9143C43.3337 57.2677 41.7685 58.7149 40.1695 60.1196C39.9508 60.3109 39.7267 60.4969 39.5043 60.6864L39.1913 60.6174H39.1895Z" fill="#303E30"/>
<path d="M113.717 43.5821C112.287 41.3962 109.982 39.7293 109.98 36.8313C109.98 36.1281 110.023 35.423 110.041 34.7198C110.117 31.6358 108.605 30.3126 105.52 30.5978C99.3851 31.1628 93.2454 31.6606 87.1074 32.1796C86.8744 32.1991 86.636 32.1619 86.3995 32.1424C84.7205 32.0043 83.0717 31.9706 81.3695 32.2097C79.6674 32.4489 77.887 32.1566 76.1404 32.0804C72.6508 31.9299 69.1487 31.8873 65.675 31.5614C64.0316 31.4073 62.4362 30.7165 60.8265 30.247C59.8056 29.9494 58.8149 29.5279 57.778 29.3153C56.3996 29.0336 55.8962 29.5704 56.0723 30.9414C56.4334 33.7491 56.8887 36.5496 57.1128 39.3697C57.2248 40.7797 56.9332 42.2252 56.7784 43.6494C56.7126 44.2587 56.5312 44.8575 56.3818 45.5536C55.2435 45.6386 54.0429 45.7272 52.7552 45.8246C52.7392 45.4987 52.7125 45.2153 52.7125 44.9319C52.7107 38.9995 52.7089 33.0653 52.7125 27.1329C52.7125 25.5688 53.2799 25.002 54.8486 25.002C73.7286 25.002 92.6086 25.002 111.489 25.002C113.153 25.002 113.715 25.5688 113.715 27.2445C113.715 32.44 113.715 37.6355 113.715 42.831C113.715 43.0825 113.715 43.3341 113.715 43.5838L113.717 43.5821Z" fill="#303E30"/>
<path d="M98.7341 45.5765C94.8247 45.5765 90.9153 45.5765 87.0059 45.5765C86.7978 45.5765 86.5915 45.5782 86.3834 45.5765C84.4465 45.5481 84.3006 45.4011 83.9858 43.5199C83.5056 40.6378 82.9293 37.7983 81.3499 35.244C80.4962 33.864 80.8448 33.3238 82.5131 33.1697C83.3046 33.097 84.1139 33.0864 84.9036 33.1626C88.5035 33.5115 92.0394 32.7924 95.6037 32.5674C99.1165 32.346 102.62 31.9633 106.13 31.6852C107.937 31.5417 108.757 32.4398 108.769 34.3866C108.778 35.6709 108.76 36.9711 108.956 38.2341C109.082 39.0418 109.488 39.846 109.927 40.5546C110.624 41.6812 111.489 42.7033 112.22 43.8122C113.047 45.0663 112.773 45.5641 111.261 45.5712C107.085 45.5889 102.91 45.5782 98.7341 45.5782V45.5765Z" fill="#303E30"/>
<path d="M79.5893 33.4087C79.849 34.2448 79.9219 35.0436 80.3114 35.6318C81.9566 38.1099 82.4333 40.9087 82.7534 43.7642C82.8851 44.9333 82.6752 45.0821 81.5333 45.0874C77.7146 45.1016 73.8959 45.1583 70.0773 45.2132C66.1981 45.2681 62.3207 45.339 58.4416 45.401C58.1783 45.4045 57.9151 45.401 57.6109 45.401C57.6109 45.1388 57.5576 44.9262 57.6181 44.7562C58.5981 41.9804 58.2477 39.1798 57.8279 36.3669C57.5416 34.452 57.3353 32.5247 57.0845 30.5337C57.3904 30.5514 57.5949 30.5301 57.7817 30.5815C58.2655 30.7126 58.7688 30.8189 59.217 31.0332C62.7245 32.709 66.4596 33.0438 70.2836 33.0544C73.2716 33.0632 76.2579 33.2581 79.246 33.3732C79.447 33.3803 79.648 33.4175 79.5875 33.4104L79.5893 33.4087Z" fill="#303E30"/>
<path d="M108.813 46.9192C110.324 46.7474 112.07 47.3125 113.653 46.1416V49.7092C112.017 48.765 110.384 47.8244 108.813 46.9192Z" fill="#303E30"/>
</g>
<defs>
<clipPath id="clip0_219_23478">
<rect width="102" height="70" fill="white" transform="translate(29 25)"/>
</clipPath>
</defs>
</svg>
