<svg width="160" height="120" viewBox="0 0 160 120" fill="none" xmlns="http://www.w3.org/2000/svg">
<g clip-path="url(#clip0_203_3248)">
<path d="M130.897 63.4416C130.807 63.1429 130.807 62.8076 130.795 62.4845C130.789 62.2589 130.837 62.0333 130.837 61.8017C130.837 61.0457 130.138 60.4604 130.319 59.6557C130.343 59.5582 130.222 59.424 130.162 59.3082C129.722 58.473 129.288 57.6378 128.836 56.8086C128.716 56.5831 128.541 56.3819 128.396 56.1685C128.245 55.9551 128.077 55.754 127.956 55.5284C127.504 54.6505 126.925 53.8762 126.232 53.1812C125.871 52.8155 125.569 52.3887 125.226 51.9985C125.099 51.8583 124.942 51.712 124.774 51.6632C124.093 51.4559 123.58 51.0353 123.164 50.4683C122.923 50.1452 122.604 49.944 122.206 49.8465C121.64 49.7123 121.061 49.6087 120.524 49.3953C119.259 48.9015 117.957 48.8405 116.637 49.0234C116.197 49.0844 115.787 49.3283 115.347 49.3892C114.967 49.4441 114.678 49.5843 114.407 49.8343C113.804 50.4012 113.057 50.7183 112.297 50.9926C111.893 51.1389 111.526 51.2608 111.273 51.651C111.158 51.8278 110.923 51.9558 110.718 52.0168C110.085 52.2119 109.543 52.5411 109.03 52.9496C108.91 53.0471 108.753 53.1264 108.603 53.169C108.126 53.3093 107.711 53.5531 107.367 53.9128C107.017 54.2786 106.837 54.1628 106.632 53.7909C106.372 53.3215 106.372 53.0654 106.812 52.6691C107.512 52.0412 107.668 51.2426 107.68 50.3708C107.68 50.3403 107.68 50.3037 107.68 50.2732C107.704 49.6209 107.735 48.9686 107.741 48.3223C107.741 48.1334 107.723 47.9078 107.626 47.7615C107.198 47.097 106.662 46.5361 105.902 46.2434C105.438 46.0666 104.944 46.1276 104.637 46.4446C104.179 46.9263 103.636 47.3774 103.473 48.0968C103.389 48.4748 103.238 48.4991 102.985 48.1699C102.093 47.0116 101.195 45.8594 100.339 44.6767C100.008 44.2194 99.64 43.8231 99.1699 43.5305C98.6274 43.183 98.0187 42.9392 97.6329 42.3783C97.5666 42.2807 97.4099 42.2563 97.3074 42.1832C96.9036 41.8906 96.4455 42.043 96.0056 42.0064C95.3606 41.9576 94.782 42.1588 94.2998 42.5612C93.673 43.0855 92.9618 43.4635 92.2445 43.8231C91.6719 44.1097 91.0692 44.3413 90.4846 44.6096C89.7553 44.9449 89.026 45.2985 88.2967 45.6399C88.2123 45.6826 88.1038 45.7131 88.0134 45.6948C87.9049 45.6704 87.7361 45.6155 87.7181 45.5424C87.4649 44.5181 87.4287 43.4817 87.6879 42.4514C87.7301 42.2868 87.7783 42.1527 87.9833 42.1344C88.1098 42.1222 88.2726 42.11 88.3449 42.0308C88.7789 41.537 89.1525 41.6284 89.6408 41.9942C90.0988 42.3417 90.6413 42.4027 91.1235 41.8967C91.2621 41.7503 91.5213 41.7138 91.7262 41.6345C91.9914 41.5248 92.2686 41.4272 92.5218 41.3053C92.8412 41.1529 93.1426 40.9639 93.456 40.7993C93.9683 40.531 94.4987 40.2811 95.005 40.0007C95.3968 39.7812 95.6861 39.4093 95.5535 38.9582C95.4149 38.4765 95.5776 38.1351 95.8067 37.7693C95.9814 37.495 96.1743 37.2329 96.3371 36.9524C96.3913 36.861 96.4034 36.6842 96.3551 36.6049C96.0538 36.1416 95.656 36.0136 95.1256 36.1782C95.0352 36.2086 94.9448 36.2513 94.8483 36.2757C94.6554 36.3245 94.5409 36.2391 94.4987 36.0501C94.4505 35.8246 94.4565 35.5807 94.3601 35.3795C94.2094 35.0625 94.0708 34.6358 93.8056 34.5077C93.1486 34.1907 92.4555 33.9164 91.6719 34.209C90.6654 34.5809 89.5865 34.5443 88.5378 34.7028C88.2605 34.7455 87.9652 34.6601 87.6759 34.6236C87.1334 34.5626 86.591 34.5016 86.0425 34.4407C85.6808 34.4041 85.3493 34.465 85.0239 34.6601C84.4874 34.9832 83.9028 35.1357 83.2639 35.093C83.0469 35.0747 82.8179 35.1357 82.6009 35.1722C81.739 35.3125 80.8831 35.4527 80.0273 35.5929C79.6958 35.6478 79.4667 35.5197 79.3281 35.2088C79.1955 34.9101 79.0629 34.6114 78.9122 34.3248C78.4843 33.4896 78.1226 32.63 77.4355 31.935C77.0377 31.5326 76.7725 30.9901 76.5857 30.417C76.4049 29.8805 76.0915 29.533 75.3802 29.5818C74.3978 29.6427 73.5299 29.1123 72.6499 28.7283C72.5836 28.6978 72.5233 28.5637 72.5354 28.4844C72.5414 28.4295 72.68 28.3503 72.7523 28.3564C73.1019 28.3991 73.4515 28.5088 73.8011 28.5149C74.5726 28.521 75.3441 28.4844 76.1156 28.4478C76.2723 28.4417 76.441 28.3991 76.5676 28.3137C76.9654 28.0455 77.3572 27.7589 77.7369 27.4602C77.8333 27.387 77.9298 27.2712 77.9659 27.1554C78.0985 26.6555 78.2131 26.1434 78.3336 25.6373C78.4963 24.9424 78.1829 24.2839 78.195 23.6072C78.201 23.1073 78.0322 22.7293 77.7188 22.3757C77.5259 22.1563 77.3512 21.9246 77.1884 21.6807C77.0498 21.4735 76.881 21.3759 76.6339 21.3454C76.0071 21.2662 75.4043 21.3454 74.8498 21.6563C74.4942 21.8575 74.1326 21.949 73.7348 21.8941C73.6805 21.888 73.5962 21.8514 73.5841 21.8088C73.5721 21.76 73.5962 21.6746 73.6323 21.632C74.0844 21.0833 74.7112 20.815 75.3441 20.5651C75.6394 20.4431 75.9528 20.3395 76.218 20.1627C76.652 19.8823 76.875 19.4616 76.8328 18.919C76.7605 17.9802 76.6882 17.0413 76.6339 16.1025C76.6219 15.8525 76.5194 15.6879 76.3386 15.5233C75.8383 15.0661 75.2235 15.0478 74.6087 15.0478C73.4153 15.0478 72.2219 15.0478 71.0285 15.06C70.8055 15.06 70.5825 15.1087 70.3656 15.1514C70.0823 15.2002 69.799 15.2672 69.5157 15.3038C69.2987 15.3343 69.0757 15.3282 68.8587 15.3343C69.0456 15.2246 69.2264 15.1148 69.4132 15.0112C69.6362 14.8832 69.8653 14.7673 70.0883 14.6393C70.8236 14.2247 71.6916 14.2796 72.457 13.9748C72.5052 13.9565 72.5836 13.9931 72.6439 14.0114C73.0296 14.1272 73.3852 14.0845 73.777 13.9565C74.8739 13.5907 75.9347 13.865 76.9594 14.2735C77.4898 14.4869 77.538 14.5418 77.749 14.0114C78.1829 12.9323 79.0629 12.3531 80.0032 11.8288C80.2021 11.7191 80.4251 11.6642 80.63 11.5728C80.9434 11.4265 80.9615 11.1887 80.6662 10.9997C80.0936 10.64 79.527 10.2742 78.9363 9.95111C78.5446 9.73773 78.1226 9.46339 77.7007 9.43291C76.6821 9.35365 75.76 9.00006 74.8197 8.64037C74.3134 8.44528 73.771 8.31725 73.2345 8.21971C72.6017 8.10997 71.9387 7.92708 71.3239 8.03072C70.6368 8.14655 69.9858 8.04901 69.3168 8.04901C69.0576 8.04901 68.8045 8.0673 68.5453 8.08559C68.1294 8.10997 67.7196 8.14046 67.3037 8.17094C67.1169 8.18923 66.8637 8.15874 66.7612 8.26848C66.3695 8.68304 65.8632 8.71352 65.3629 8.84765C64.7783 9.00615 64.1575 9.13418 63.7054 9.60361C63.0545 10.2803 62.4156 10.9753 61.7707 11.6581C61.5175 11.9264 61.3668 12.2251 61.3246 12.6031C61.2764 13.0237 61.1499 13.42 60.8304 13.7431C60.523 14.054 60.4085 14.4564 60.3904 14.9014C60.3844 15.1209 60.3543 15.3831 60.2337 15.5538C59.9082 16.011 59.8419 16.5353 59.848 17.0413C59.848 18.2423 59.8962 19.4494 60.0228 20.6443C60.077 21.1381 60.3964 21.6076 60.6014 22.0831C60.6918 22.2904 60.8063 22.4916 60.8847 22.7049C60.9088 22.772 60.8786 22.9305 60.8304 22.9488C60.2759 23.1988 59.7274 23.5524 59.1428 23.6316C58.3351 23.7413 57.5757 24.0035 56.7861 24.162C56.0809 24.3022 55.4059 24.479 54.9478 25.1191C54.8453 25.2655 54.6223 25.3203 54.4596 25.4179C54.0256 25.6739 53.7002 26.0824 53.5977 26.5396C53.4832 27.0212 53.2722 27.4602 53.1698 27.9235C52.995 28.71 52.6876 29.4598 52.6454 30.2951C52.6032 31.0266 52.3561 31.7582 52.1391 32.4654C52.0246 32.8312 51.8859 33.1848 51.7835 33.5628C51.5966 34.2456 51.3375 34.904 51.3797 35.6356C51.3797 35.7209 51.2953 35.8124 51.2712 35.9038C51.2049 36.1843 51.1386 36.4708 51.0843 36.7573C51.0542 36.9158 51.1024 37.1414 51.018 37.2329C50.5358 37.7389 50.5358 38.4278 50.3128 39.0252C50.0717 39.6714 49.9331 40.336 49.9813 41.0371C49.9934 41.226 50.0054 41.4577 49.909 41.604C49.5835 42.0856 49.5172 42.616 49.4811 43.1769C49.463 43.4939 49.3726 43.8353 49.2159 44.1097C48.6855 45.0546 48.8 46.1337 48.5589 47.1396C48.5288 47.2555 48.589 47.3957 48.6372 47.5176C48.8 47.9688 48.7397 48.4077 48.6433 48.8649C48.4263 49.9318 48.6553 51.0048 48.6192 52.0778C48.6192 52.1997 48.7216 52.3155 48.7518 52.4436C48.8844 52.9801 48.9989 53.5165 49.1435 54.0469C49.24 54.3883 49.3123 54.7602 49.5112 55.0285C49.7885 55.4065 49.9693 55.8027 50.0958 56.2478C50.3249 57.0525 50.6745 57.7719 51.464 58.1743C51.5062 58.1925 51.5424 58.284 51.5303 58.3267C51.5183 58.3693 51.446 58.4364 51.4038 58.4364C50.5961 58.4059 49.8367 58.3206 49.1616 57.7292C48.3359 57.0037 47.4378 56.3636 46.9134 55.3455C46.8532 55.2358 46.7507 55.1382 46.6482 55.059C46.148 54.6505 45.8587 54.0957 45.7381 53.48C45.5453 52.4862 44.8823 51.6388 44.8883 50.5902C44.8883 50.5293 44.8581 50.4561 44.816 50.4073C44.3639 49.883 44.4483 49.3527 44.7255 48.7735C44.8823 48.4565 44.9486 48.0907 45.0269 47.7432C45.0872 47.4688 45.2077 47.2616 45.485 47.164C45.9973 46.9811 46.3348 46.5788 46.6724 46.1886C46.7929 46.0484 46.9737 45.7618 46.9315 45.7191C46.6965 45.4631 46.5759 45.8106 46.3891 45.8716C46.0214 45.9935 45.6598 46.1154 45.2981 46.2495C45.0269 46.3471 44.7316 46.4202 44.5025 46.5788C44.1168 46.8409 43.7371 47.036 43.2609 47.0665C43.056 47.0787 42.8511 47.225 42.6642 47.3286C42.387 47.4871 42.1338 47.6944 41.8505 47.8224C41.296 48.0724 40.7174 48.2797 40.1508 48.4991C39.5783 48.7247 39.084 49.0966 38.5597 49.4014C37.8484 49.8221 37.0408 50.0842 36.2633 50.3769C35.4255 50.6939 35.1663 51.0719 35.2145 52.0107C35.2205 52.1387 35.2567 52.2729 35.2447 52.4009C35.2025 52.9862 35.2145 53.5836 35.0759 54.1445C34.8107 55.2662 34.6238 56.3758 34.9252 57.5219C34.9553 57.6439 34.9674 57.7841 34.9553 57.9121C34.871 58.6193 34.7866 59.3326 34.6721 60.0398C34.5575 60.7287 34.8529 61.1128 35.54 61.0945C35.6666 61.0945 35.7931 61.0518 35.9257 61.0396C36.878 60.9482 37.8304 60.7348 38.8007 60.9116C39.1142 60.9664 39.4457 60.9664 39.9098 60.9969C40.0243 60.9847 40.2834 60.9238 40.5366 60.9421C40.9163 60.9664 41.296 61.0457 41.6697 61.1189C41.742 61.131 41.8385 61.2286 41.8505 61.2957C41.8505 61.3505 41.7541 61.4725 41.6878 61.4785C40.627 61.6127 39.5903 61.8139 38.7164 62.5149C38.5958 62.6125 38.415 62.6369 38.2583 62.6735C37.7882 62.7893 37.318 62.9051 36.8419 63.0027C36.432 63.088 36.0222 63.1246 35.7268 63.5026C35.6244 63.6367 35.3893 63.7342 35.2145 63.7342C34.3406 63.7342 33.6896 64.417 32.8398 64.4963C32.6951 64.5085 32.5685 64.6609 32.4299 64.7463C31.3812 65.3986 30.2239 65.8071 29.0667 66.2094C28.2952 66.4777 27.9336 66.8922 27.9818 67.6909C28.0059 68.0749 28.1506 68.2091 28.5484 68.1603C28.8316 68.1237 29.1089 67.9774 29.3922 67.9652C30.3023 67.9286 31.1582 67.7518 31.996 67.3799C32.3033 67.2458 32.7132 67.2092 33.0387 67.2763C33.5811 67.3921 34.0513 67.258 34.5395 67.0812C35.1542 66.8617 35.8293 66.6606 36.4381 66.8617C37.2337 67.1239 38.0232 67.0995 38.8249 67.13C39.3432 67.1544 39.8495 67.13 40.3437 66.9227C40.5426 66.8435 40.7837 66.8252 40.9947 66.8495C41.6034 66.9166 42.2061 67.0202 42.8089 67.1056C43.062 67.1422 43.3212 67.1666 43.5743 67.2214C43.6406 67.2336 43.719 67.3616 43.719 67.4348C43.719 67.4958 43.6045 67.5933 43.5321 67.5994C43.3091 67.6177 43.0801 67.575 42.8571 67.5994C42.4472 67.6482 42.0133 67.6604 41.6336 67.8006C40.85 68.0993 40.0604 68.3615 39.2227 68.4529C38.9333 68.4834 38.6199 68.4895 38.3728 68.6114C37.975 68.8065 37.6254 69.087 37.2517 69.3308C37.5471 69.7149 37.9931 69.788 38.415 69.8978C38.7284 69.977 39.0479 70.0075 39.3673 70.0624C39.5602 70.0929 39.7651 70.0868 39.9339 70.166C41.067 70.7086 42.2303 71.2024 43.3031 71.8548C44.0686 72.3181 44.7075 72.9948 45.3885 73.5922C45.5814 73.7569 45.7803 73.958 45.8768 74.1836C46.0636 74.6287 46.3529 74.9457 46.7326 75.2139C46.9376 75.3602 47.1063 75.5736 47.2691 75.7748C47.3474 75.8662 47.3715 76.0004 47.4197 76.1162C47.3112 76.1589 47.2088 76.232 47.1003 76.2442C46.3951 76.3052 45.6839 76.3662 44.9787 76.3966C44.1288 76.4332 43.3152 76.6283 42.5678 77.0368C41.9229 77.3904 41.3925 77.9756 40.5908 78.0122C40.5366 78.0122 40.4763 78.0732 40.4281 78.1097C39.735 78.5792 39.0238 79.0364 38.3487 79.5302C38.0534 79.7436 37.7882 79.9326 37.4024 79.9631C37.2035 79.9814 36.9624 80.1155 36.8298 80.2801C36.2994 80.9263 35.6244 81.3592 34.889 81.7067C34.4912 81.8957 34.22 82.1761 34.0091 82.5724C33.6354 83.2552 33.2436 83.938 32.7916 84.572C32.5324 84.9439 32.3938 85.2975 32.4239 85.7486C32.4359 85.901 32.4118 86.1327 32.3094 86.1998C31.8453 86.5412 31.8935 87.035 31.8332 87.5166C31.779 87.9982 31.6705 88.4798 31.5861 88.9615C31.562 89.0895 31.4957 89.2358 31.5379 89.3455C31.785 90.0223 31.9297 90.7112 31.8392 91.4366C31.8332 91.4915 31.8935 91.5586 31.9055 91.6195C31.9598 91.9061 32.0502 92.1926 32.0381 92.473C32.0201 93.1132 32.1828 93.6862 32.4601 94.2593C32.7735 94.8994 33.1472 95.5457 33.2737 96.2346C33.4184 97.0149 33.7619 97.6307 34.226 98.2281C35.1482 99.4047 36.0463 100.6 36.9745 101.77C37.1493 101.996 37.3904 102.173 37.6254 102.343C38.3487 102.886 39.084 103.422 39.8133 103.959C39.9158 104.032 40.0182 104.142 40.1328 104.172C41.2177 104.459 42.1941 105.093 43.3453 105.209C43.8576 105.257 44.3398 105.422 44.8521 105.184C45.0691 105.087 45.3584 105.142 45.6116 105.135C46.5398 105.123 47.3233 104.617 48.1852 104.373C48.2153 104.367 48.2334 104.331 48.2575 104.312C48.7819 103.941 49.3123 103.563 49.8367 103.191C50.2586 102.898 50.7347 102.691 51.0421 102.227C51.1687 102.032 51.464 101.953 51.687 101.819C52.127 101.545 52.5911 101.307 52.995 100.984C53.5013 100.581 53.9473 100.106 54.4415 99.6852C54.9056 99.2828 55.4842 98.9841 55.8519 98.5147C56.2196 98.0452 56.3943 97.4173 56.6595 96.8686C56.7319 96.7223 56.8343 96.5943 56.9127 96.454C57.1839 95.9358 57.5998 95.4298 57.5335 94.8385C57.4491 94.1557 58.0338 93.7106 57.9855 93.0705C57.9614 92.7474 57.9614 92.4182 57.9373 92.0951C57.9253 91.967 57.8771 91.839 57.859 91.711C57.7866 91.0891 57.9012 90.8514 58.528 90.7416C59.408 90.577 60.2277 90.0649 61.174 90.2905C61.3126 90.321 61.4814 90.2173 61.632 90.1747C61.9997 90.0649 62.3674 89.9247 62.7411 89.8455C63.0846 89.7723 63.2353 89.6138 63.2172 89.2541C63.175 88.4981 63.2654 87.7544 63.615 87.0716C63.6572 86.9862 63.6693 86.8826 63.6873 86.785C63.7657 86.2851 64.0188 85.8767 64.3443 85.4987C64.6396 85.1573 64.941 84.8098 65.0555 84.3464C65.152 83.938 65.4895 83.8099 65.8451 83.7185C65.9898 83.6819 66.1163 83.7307 66.0982 83.9014C65.9476 85.1146 65.9898 86.3705 65.375 87.4983C65.3268 87.5898 65.3328 87.7666 65.3931 87.858C65.7788 88.4616 65.7004 89.1078 65.604 89.754C65.5498 90.1442 65.5076 90.5405 65.7004 90.9062C65.9717 91.4184 65.9355 91.9792 66.0139 92.5218C66.0982 93.0949 66.2791 93.6497 66.4237 94.2105C66.4297 94.241 66.4237 94.2776 66.4237 94.3081C66.6106 95.6493 66.9722 96.9235 67.7437 98.0513C67.9064 98.2891 68.0571 98.5451 68.1656 98.8134C68.4911 99.5876 68.7322 100.405 69.3469 101.033C69.4795 101.167 69.5699 101.356 69.6483 101.532C69.9014 102.13 70.0883 102.764 70.7332 103.093C70.8538 103.154 70.902 103.361 70.9743 103.508C71.0466 103.654 71.0828 103.825 71.1853 103.947C71.8422 104.709 72.4871 105.477 73.1863 106.202C73.5178 106.55 73.9578 106.794 74.3375 107.092C75.2657 107.818 76.0432 108.781 77.2849 109.019C77.3451 109.031 77.4054 109.074 77.4536 109.116C78.2492 109.842 79.2136 110.159 80.2442 110.33C80.3708 110.348 80.4853 110.415 80.6059 110.464C82.1308 111.043 83.7099 111 85.2891 110.897C85.3855 110.897 85.4819 110.866 85.5663 110.823C86.609 110.311 87.7542 110.067 88.7728 109.47C89.2369 109.196 89.6468 108.921 89.924 108.482C90.5328 107.513 91.4007 106.849 92.3591 106.288C92.8171 106.019 93.1788 105.678 93.5223 105.276C94.113 104.587 94.7459 103.941 95.3847 103.294C95.7042 102.971 96.0236 102.605 96.4154 102.416C97.0603 102.105 97.4943 101.606 97.9162 101.069C97.9765 100.99 98.0247 100.892 98.103 100.85C98.4587 100.63 98.8806 100.49 99.1759 100.209C99.4893 99.9046 99.6762 99.484 100.062 99.1975C100.574 98.8134 101.02 98.3257 101.448 97.844C101.858 97.3868 102.214 96.8808 102.587 96.3931C102.847 96.0578 103.124 95.7347 103.359 95.3872C103.702 94.8751 104.064 94.3751 104.004 93.6923C103.986 93.4851 104.1 93.2473 104.203 93.0461C104.456 92.5279 104.504 91.9975 104.45 91.4305C104.396 90.8819 104.371 90.321 104.444 89.7784C104.498 89.376 104.51 89.0163 104.383 88.6323C104.209 88.108 104.07 87.5715 104.239 86.9984C104.287 86.8277 104.275 86.5838 104.191 86.4314C103.925 85.9437 103.98 85.4194 103.962 84.8951C103.949 84.4684 103.931 84.0416 103.606 83.7063C103.208 83.2917 103.088 82.7553 102.949 82.2127C102.726 81.3043 102.437 80.4081 102.159 79.5119C102.105 79.329 101.991 79.1583 101.894 78.9937C101.472 78.2987 101.038 77.6159 100.628 76.9209C100.484 76.671 100.363 76.3905 100.291 76.1101C100.243 75.9089 100.303 75.6833 100.315 75.47C100.514 75.5553 100.719 75.6346 100.912 75.7382C100.99 75.7809 101.044 75.8784 101.105 75.9516C101.418 76.3235 101.701 76.7197 102.051 77.055C102.575 77.555 102.991 78.1219 103.329 78.7621C103.461 79.0181 103.624 79.2986 103.847 79.4571C104.836 80.1764 105.269 81.225 105.505 82.3529C105.655 83.0662 105.896 83.7246 106.216 84.3708C106.36 84.6574 106.457 84.9683 106.565 85.2731C106.662 85.5535 106.788 85.6084 106.945 85.3828C107.12 85.1268 107.319 84.9378 107.602 84.8403C108.265 84.6086 108.759 84.1453 109.205 83.6149C110.067 82.5967 110.959 81.6091 112.231 81.097C112.291 81.0726 112.364 81.0422 112.394 80.9934C112.713 80.4386 113.213 80.0972 113.744 79.7802C113.798 79.7497 113.834 79.6826 113.858 79.6278C114.033 79.262 114.316 79.012 114.63 78.7682C114.793 78.6462 114.931 78.4146 114.961 78.2134C115.016 77.8354 115.004 77.4391 114.979 77.049C114.949 76.5003 114.889 75.9516 114.835 75.4029C114.781 74.8237 114.847 74.1897 114.642 73.6715C114.286 72.7997 114.033 71.9096 113.852 70.9891C113.834 70.8915 113.792 70.8062 113.768 70.7086C113.714 70.4891 113.647 70.2697 113.617 70.0441C113.605 69.9466 113.671 69.8368 113.702 69.7393C113.768 69.8002 113.87 69.849 113.894 69.9283C114.184 70.8062 114.72 71.5499 115.154 72.3486C115.444 72.8912 115.751 73.4581 115.853 74.0556C116.113 75.5248 116.637 76.9392 116.661 78.4511C116.667 78.8413 116.782 78.8962 117.209 78.9693C118.041 79.1096 118.879 79.0547 119.711 79.134C120.627 79.2193 121.338 78.8901 122.001 78.3231C122.17 78.1768 122.351 78.0305 122.52 77.8781C123.122 77.3416 123.683 76.738 124.34 76.2869C124.997 75.8358 125.431 75.0798 126.256 74.8481C126.365 74.8176 126.455 74.6835 126.534 74.586C127.034 73.9519 127.522 73.3057 128.022 72.6717C128.282 72.3364 128.541 72.0011 128.818 71.6841C129.228 71.2167 129.537 70.6761 129.746 70.0624C129.8 69.91 129.885 69.7637 129.969 69.6295C130.325 69.0748 130.608 68.5017 130.566 67.8067C130.554 67.6238 130.632 67.4165 130.729 67.258C130.952 66.8983 130.928 66.5142 130.916 66.1241C130.903 65.5693 130.879 65.0084 130.958 64.4658C131.012 64.0939 130.988 63.7708 130.885 63.4172L130.897 63.4416ZM63.8019 51.1206C64.1092 51.1328 64.2539 51.3279 64.3383 51.5901C64.4287 51.8644 64.495 52.1509 64.6095 52.4131C64.7602 52.7667 64.5975 53.0471 64.4468 53.3276C64.3986 53.419 64.2479 53.4983 64.1454 53.5044C63.4402 53.5531 62.7652 52.9069 62.7832 52.0412C62.8134 51.9498 62.8857 51.7059 62.9821 51.4742C63.1389 51.1084 63.4704 51.1084 63.8019 51.1206ZM58.0097 44.2499C58.1242 43.5793 58.2869 42.9148 58.4135 42.2442C58.4798 41.8967 58.5401 41.537 58.528 41.1834C58.5099 40.6469 58.5822 40.1592 58.8836 39.6958C59.0403 39.4581 59.0644 39.141 59.185 38.8789C59.2754 38.6777 59.414 38.5009 59.5406 38.3241C59.5587 38.2936 59.6491 38.3119 59.7033 38.3241C59.7214 38.3241 59.7455 38.379 59.7395 38.4034C59.6732 39.1471 59.7093 39.9214 59.5104 40.6286C59.197 41.7625 59.3477 42.8904 59.3115 44.0243C59.3055 44.2438 59.414 44.3962 59.625 44.4633C60.4447 44.7315 61.2403 45.0851 62.1564 44.951C62.5542 44.89 62.9821 45.0059 63.392 45.0729C63.4945 45.0912 63.5728 45.2192 63.6632 45.2985C63.5728 45.3656 63.4884 45.4875 63.392 45.4936C63.0063 45.518 62.6205 45.5058 62.2408 45.5058C62.2408 45.4875 62.2408 45.4753 62.2408 45.457C61.7586 45.4997 61.2825 45.5789 60.8003 45.5728C60.0951 45.5606 59.4019 45.5484 58.7028 45.6521C58.2387 45.7191 58.0699 45.518 58.0157 45.0424C57.9855 44.7864 57.9735 44.5181 58.0157 44.2682L58.0097 44.2499ZM47.6608 96.0334C47.7814 96.3077 47.7452 96.5455 47.5584 96.7589C47.2932 97.0637 47.1847 97.4234 47.1244 97.8257C47.0882 98.0696 46.9436 98.3074 46.805 98.5207C46.2625 99.3316 45.4368 99.8071 44.6291 100.27C44.3217 100.441 43.8817 100.398 43.502 100.398C42.7305 100.398 41.947 100.386 41.3201 99.801C41.2719 99.7583 41.2237 99.6974 41.1634 99.6852C39.9098 99.4718 39.3432 98.283 38.3668 97.6672C38.186 97.5514 37.9991 97.3563 37.9268 97.1612C37.5832 96.259 36.7213 95.7286 36.3537 94.8507C36.3175 94.7592 36.2753 94.6678 36.2512 94.5763C36.0644 93.8204 35.8655 93.0705 35.6907 92.3145C35.546 91.6805 35.4315 91.0343 35.5822 90.3758C35.54 89.7235 35.546 89.0712 35.8896 88.4798C36.0644 88.175 36.2392 87.8641 36.426 87.5654C36.5948 87.2971 36.7997 87.0472 36.9564 86.7728C37.4567 85.8706 38.3909 85.3889 39.4517 85.4926C39.6385 85.5109 39.8495 85.5292 40.0183 85.4621C40.5667 85.2548 41.0429 85.4316 41.4829 85.7242C41.8927 85.9925 42.2905 86.212 42.8089 86.2485C43.3031 86.2851 43.719 86.5899 43.9721 87.035C44.3157 87.6385 44.7918 88.1141 45.274 88.5957C45.8587 89.1748 46.1359 89.9613 46.4614 90.7051C46.7266 91.2964 46.9376 91.9183 47.2449 92.4852C47.6126 93.168 47.5403 93.9423 47.7512 94.6556C47.7693 94.7104 47.7452 94.7958 47.709 94.8446C47.4318 95.2347 47.48 95.6432 47.6548 96.0456L47.6608 96.0334ZM56.4064 92.5462C56.2256 92.9547 56.2075 93.3509 56.3039 93.7838C56.4124 94.241 56.316 94.6983 56.1352 95.125C56.0508 95.3262 55.882 95.6798 55.8037 95.6676C55.5144 95.6127 55.6409 95.3079 55.6048 95.1006C55.3757 93.9484 55.1407 92.8023 54.9056 91.6561C54.8815 91.5281 54.7911 91.4062 54.7971 91.2842C54.8574 90.4673 54.3451 89.8028 54.2306 89.0346C54.2064 88.8822 54.11 88.7298 54.0256 88.5957C53.7484 88.1689 53.5193 88.1019 53.0432 88.3152C52.8684 88.3945 52.7177 88.5225 52.5489 88.6201C52.2174 88.8152 51.8799 89.0102 51.5424 89.1931C51.2049 89.3821 50.8553 89.5406 50.5298 89.7418C49.8126 90.1808 49.4027 90.0893 49.0471 89.3516C48.6975 88.6262 48.1912 87.986 47.9863 87.1813C47.926 86.9435 47.7512 86.657 47.5523 86.5595C46.7989 86.1998 46.365 85.4682 45.714 84.9866C45.3042 84.6878 44.9787 84.255 44.6834 83.8343C44.4664 83.5234 44.2253 83.3344 43.8817 83.182C43.062 82.8223 42.2664 82.3956 41.4588 82.0115C41.29 81.9322 41.0971 81.8896 40.9103 81.853C40.3136 81.7311 39.7169 81.6213 39.1202 81.4994C39.078 81.4933 39.0177 81.4201 39.0177 81.3775C39.0177 81.3226 39.0479 81.2555 39.084 81.2068C39.1202 81.158 39.1805 81.1214 39.2347 81.0848C40.3497 80.3106 41.4407 79.4936 42.6642 78.9145C43.1223 78.695 43.6286 78.5426 44.1228 78.4451C44.7798 78.3109 45.4669 78.1341 46.1118 78.2134C46.8652 78.3048 47.6186 78.567 48.2636 79.0303C48.6855 79.329 49.1013 79.6339 49.6619 79.6278C49.8367 79.6278 50.0657 79.7192 50.1802 79.8472C50.5117 80.2313 50.9336 80.4386 51.3917 80.6215C51.7955 80.7861 52.109 81.0848 52.2416 81.5055C52.4344 82.1029 52.8322 82.5175 53.3385 82.8223C53.8448 83.1271 54.116 83.5905 54.333 84.1087C54.6766 84.95 55.0081 85.7974 55.3335 86.6448C55.3998 86.8216 55.4119 87.0106 55.436 87.1264C55.3094 87.5593 55.4541 87.8519 55.647 88.1202C56.0207 88.6505 56.1231 89.2419 56.105 89.882C56.087 90.6319 56.0267 91.3879 56.4124 92.0829C56.4787 92.1987 56.4667 92.4121 56.4064 92.5401V92.5462ZM56.3702 60.5397C56.1412 59.93 55.9845 59.296 55.7976 58.6742C55.7796 58.6132 55.7253 58.5339 55.7434 58.4913C56.0086 57.7963 55.7434 57.0708 55.8639 56.3758C55.9724 55.7479 56.3642 55.2358 56.8705 54.87C57.2382 54.6078 57.5938 54.3701 57.8469 53.9616C58.1242 53.5165 58.6425 53.3885 59.1187 53.6263C59.4622 53.797 59.7696 53.8519 60.1312 53.7177C60.2759 53.6629 60.5351 53.6263 60.5953 53.6994C61.1257 54.3822 62.2408 54.3274 62.5301 55.3272C62.6326 55.6869 62.958 55.9734 63.1389 56.3148C63.5668 57.1379 63.6753 57.6561 63.6994 58.3084C63.8501 60.2349 63.181 61.3749 62.2348 62.3991C62.1444 62.4967 62.0419 62.5759 61.9696 62.6856C61.7285 63.0453 61.4151 63.21 60.9751 63.1185C60.7882 63.0819 60.5712 63.0697 60.4025 63.1307C59.4622 63.4782 58.6847 62.9661 57.9434 62.582C57.1478 62.1735 56.6837 61.3749 56.3702 60.5397ZM65.7547 75.1651C65.5257 75.6711 65.61 76.1893 65.598 76.7076C65.592 77.0672 65.6161 77.4391 65.3087 77.7013C65.1037 77.872 65.0917 78.0732 65.152 78.317C65.3207 79.0364 65.2424 79.7436 65.0374 80.4386C64.8325 81.1397 64.2057 81.4262 63.6331 81.6823C63.1569 81.8957 62.6868 81.6091 62.3191 81.2677C61.8249 80.8044 61.3488 80.3228 60.8786 79.8289C60.7762 79.7192 60.7159 79.5485 60.6797 79.3961C60.2759 77.7927 59.6792 76.2442 59.3658 74.6165C59.1609 73.5313 58.8233 72.4766 58.5521 71.4036C58.528 71.3061 58.4918 71.2146 58.4918 71.1171C58.4918 69.8917 58.0338 68.7516 57.871 67.5628C57.8228 67.2214 57.6119 66.8069 57.9795 66.5691C58.2749 66.374 58.5883 66.6484 58.8836 66.7703C59.0946 66.8556 59.2995 66.9532 59.5044 67.0446C59.7696 67.1605 59.8962 67.3617 59.8841 67.6604C59.86 68.3554 60.0228 69.0016 60.3603 69.6234C60.5953 70.0502 60.6978 70.5379 60.6375 71.0439C60.5773 71.5621 60.7822 72.0011 61.1016 72.3851C61.1378 72.4278 61.2041 72.4461 61.2583 72.4766C61.2704 72.4156 61.3066 72.3486 61.2945 72.2876C61.2403 71.9645 61.2041 71.6414 61.1137 71.3305C60.957 70.7879 60.9329 70.2514 61.0594 69.6905C61.1981 69.087 61.192 68.4651 61.0353 67.8494C60.8847 67.2702 61.2885 66.5691 61.843 66.5569C62.6567 66.5386 63.2232 66.0814 63.838 65.6729C64.0008 65.5632 64.1454 65.423 64.3142 65.3437C64.6396 65.1852 64.9711 65.4108 64.9832 65.7644C64.9892 65.9899 64.935 66.2399 65.0194 66.4289C65.3026 67.0812 65.3448 67.7396 65.2243 68.4346C65.1881 68.648 65.2122 68.898 65.2785 69.1052C65.4835 69.7393 65.4955 70.3855 65.3629 71.05C65.4292 71.5621 65.5015 72.0742 65.5678 72.5802C65.592 72.7692 65.61 72.9643 65.6221 73.1533C65.6221 73.2813 65.6221 73.4155 65.592 73.5435C65.4835 74.1044 66.0018 74.6104 65.7547 75.1651ZM69.5458 53.3093C69.2565 53.4739 68.9672 53.6019 68.6297 53.5592C68.2319 53.5044 67.8642 53.5775 67.5267 53.8092C67.2374 54.0043 66.9843 53.9494 66.7492 53.7116C66.6106 53.5714 66.4719 53.4312 66.3213 53.3154C65.9476 53.041 65.8572 52.6996 66.0862 52.2973C66.2369 52.0412 66.1887 51.8095 66.0862 51.5535C65.9837 51.2791 65.9174 50.9926 65.8391 50.7122C65.6703 50.1452 65.4533 49.9745 64.8627 49.9989C64.6758 50.005 64.489 50.0842 64.2961 50.1025C64.1213 50.1208 64.0731 49.9928 64.1273 49.8526C64.2479 49.5538 64.4046 49.2734 64.5251 48.9808C64.7662 48.3711 65.2062 47.9322 65.7909 47.7127C66.9059 47.292 68.0451 46.9263 69.1782 46.5483C69.3891 46.4812 69.6242 46.4873 69.7869 46.469C70.0461 46.4934 70.239 46.4995 70.4319 46.5239C70.7995 46.5788 71.0828 46.7312 71.2516 47.1091C71.4083 47.4627 71.6735 47.7676 71.8302 48.1212C72.0893 48.7125 72.3967 49.31 72.5052 49.9379C72.5896 50.4256 72.4209 50.9621 72.3063 51.462C72.2762 51.5962 72.0472 51.7425 71.8844 51.779C71.4866 51.8766 71.1611 52.0229 70.9984 52.4436C70.8839 52.7362 70.6488 52.8764 70.3354 52.9496C70.0582 53.0166 69.799 53.1629 69.5458 53.3032V53.3093ZM69.7447 63.6001C69.7447 63.6001 69.7869 63.5514 69.8171 63.5392C71.1069 62.7954 71.7036 61.4298 72.5715 60.3141C72.891 59.9057 73.1321 59.4484 73.5901 59.1619C73.7288 59.0704 73.7951 58.8571 73.8794 58.6864C73.9518 58.5461 73.9638 58.3572 74.0663 58.2413C74.4038 57.8633 74.6087 57.4671 74.5907 56.9306C74.5907 56.7294 74.7655 56.516 74.8739 56.3209C75.332 55.4857 75.6876 54.6322 75.7178 53.6446C75.7298 53.1995 75.9046 52.7545 75.9709 52.3094C76.0131 52.029 76.0673 51.7059 75.983 51.4498C75.8082 50.9255 76.0191 50.5415 76.3265 50.2001C76.6701 49.816 77.0498 49.4502 77.4657 49.1454C77.7128 48.9625 78.0443 48.8893 78.3517 48.804C78.9424 48.6333 79.533 48.487 79.967 47.987C80.0875 47.8468 80.2804 47.7615 80.4492 47.6761C81.516 47.1457 82.5889 46.6214 83.6617 46.0971C83.7461 46.0545 83.8184 45.9935 83.9028 45.9386C83.8244 45.8472 83.7581 45.7191 83.6557 45.6704C83.4568 45.5667 83.2458 45.4814 83.0288 45.4387C82.4261 45.329 81.8234 45.2375 81.2207 45.1583C80.9374 45.1217 80.642 45.1156 80.4853 45.1034C80.2201 45.1278 80.0875 45.1644 79.967 45.14C78.8761 44.9144 77.7851 45.0912 76.7002 45.1339C76.5254 45.14 76.3506 45.1278 76.3325 44.9205C76.2421 43.9817 75.5852 43.2745 75.3079 42.4149C75.1934 42.0491 75.0608 41.6833 74.9342 41.3175C74.7353 40.7383 74.5364 40.1592 74.3315 39.58C74.3074 39.519 74.2531 39.4703 74.229 39.4154C74.1326 39.141 73.9578 38.8606 73.9638 38.5863C73.9819 37.5621 73.2164 36.6842 73.4696 35.6295C73.4877 35.5441 73.5419 35.4588 73.5841 35.3795C73.6805 35.4344 73.8192 35.471 73.8674 35.5563C74.1145 36.0136 74.3315 36.4891 74.5666 36.9524C74.8257 37.4767 75.103 37.9888 75.3561 38.5131C75.4285 38.6533 75.4948 38.8179 75.4948 38.9703C75.4887 39.33 75.6213 39.5983 75.9106 39.7995C76.1638 39.9702 76.2843 40.2262 76.3928 40.5067C76.6279 41.1285 77.0618 41.4882 77.761 41.5735C78.3215 41.6406 78.8399 41.7564 79.316 41.3419C79.4245 41.2504 79.6415 41.1895 79.7621 41.2382C80.3527 41.4577 80.8651 41.1956 81.3292 40.9395C82.1428 40.4884 83.0168 40.5249 83.8727 40.5554C84.391 40.5737 84.8973 40.6591 85.3915 40.4518C85.5965 40.3664 85.7652 40.3969 85.8737 40.6164C85.934 40.7322 85.9762 40.8664 86.0666 40.9578C86.374 41.2626 86.3137 41.537 86.1389 41.9149C85.8375 42.5673 85.7471 43.2867 85.7773 44.0182C85.7954 44.4694 85.7351 44.9266 85.723 45.3777C85.717 45.6948 85.705 46.0179 85.7411 46.3349C85.8014 46.8836 85.6989 47.1091 85.1806 47.3164C84.825 47.4627 84.4091 47.5054 84.1017 47.7188C83.1916 48.3528 82.1911 48.7918 81.2086 49.2856C80.8048 49.4868 80.3889 49.688 79.9549 49.7855C79.4667 49.8952 79.0448 50.1208 78.653 50.4073C78.4541 50.5537 78.2854 50.7609 78.1528 50.9804C77.3391 52.3399 76.9292 53.8519 76.6821 55.3943C76.5797 56.0405 76.1517 56.5038 76.0071 57.1013C75.9769 57.2232 75.8263 57.3268 75.8263 57.4427C75.7841 58.3998 75.1572 59.0156 74.6148 59.6923C74.434 59.9179 74.3074 60.1861 74.1627 60.4361C74.0844 60.5763 74.0362 60.8262 73.9337 60.8506C73.0899 61.0579 72.9392 62.0089 72.2521 62.3991C71.6132 62.7649 71.0286 63.2343 70.4077 63.6367C70.251 63.7403 70.0521 63.7708 69.8653 63.8257C69.8351 63.8318 69.7749 63.7586 69.7387 63.716C69.7206 63.6977 69.7206 63.6489 69.7387 63.6245L69.7447 63.6001ZM79.744 63.1734C79.521 62.5759 79.8223 62.1126 80.0032 61.5944C80.19 61.0457 80.4853 60.6372 80.9494 60.2897C81.8234 59.6435 81.7812 59.6435 82.5768 60.3995C83.1132 60.9055 83.4447 61.5334 83.7581 62.1674C83.9209 62.4906 83.8787 62.9173 83.9329 63.2953C83.9209 63.8684 83.8305 64.4049 83.5834 64.917C83.4869 65.1181 83.3965 65.3437 83.3784 65.5632C83.3001 66.4899 82.5708 66.6971 81.9017 66.8495C81.2387 67.002 80.5999 66.7886 80.2442 66.1363C79.8585 65.4291 79.4306 64.7219 79.7138 63.8379C79.7801 63.6306 79.8223 63.3624 79.75 63.1673L79.744 63.1734ZM87.8808 97.5331C87.8205 97.8867 87.6337 98.222 87.6276 98.5695C87.6096 99.2584 87.5192 99.8742 87.1153 100.484C86.8321 100.917 86.7718 101.496 86.4584 101.971C85.8797 102.855 85.1324 103.465 84.1379 103.782C83.4568 104.001 82.7817 104.215 82.0524 104.093C81.4919 104.221 80.9735 104.05 80.4492 103.873C80.0212 103.733 79.5692 103.66 79.1533 103.495C78.7073 103.319 78.2794 103.087 77.8635 102.849C77.3632 102.563 76.8871 102.215 76.3808 101.941C75.7539 101.606 75.3441 101.13 75.0065 100.496C74.6087 99.7583 74.0542 99.1121 73.566 98.4293C72.8849 97.4843 72.2641 96.515 71.9748 95.3506C71.7217 94.3447 71.5469 93.3266 71.1491 92.345C70.8477 91.6073 70.8538 90.7477 71.2033 89.9613C71.2696 89.815 71.3842 89.6443 71.354 89.5163C71.1792 88.7481 71.6192 88.047 71.571 87.291C71.565 87.1691 71.5951 86.9862 71.6735 86.9313C72.234 86.5351 72.2762 85.7791 72.7523 85.3402C73.2767 84.8585 73.8252 84.4074 74.3737 83.9502C74.4942 83.8526 74.6509 83.7673 74.8016 83.7429C75.4646 83.6332 76.1397 83.56 76.8027 83.4624C77.2065 83.4015 77.6164 83.2308 78.0021 83.2796C78.4059 83.3283 78.7977 83.4807 79.2136 83.5478C79.979 83.6636 80.6963 84.0111 81.2689 84.5476C81.6004 84.8585 81.956 85.1207 82.3176 85.3889C82.8299 85.773 83.2579 86.2668 83.8365 86.5777C83.9872 86.657 84.1077 86.8704 84.1559 87.0472C84.2885 87.5227 84.5899 87.8336 84.9696 88.108C85.3252 88.364 85.506 88.6993 85.6386 89.1322C85.8315 89.7418 86.0967 90.3759 86.4885 90.8636C87.2057 91.7537 87.3986 92.784 87.5433 93.8569C87.6638 94.7592 87.8145 95.6615 87.923 96.5638C87.9591 96.8808 87.923 97.21 87.8748 97.5209L87.8808 97.5331ZM100.61 83.7734C100.598 84.0416 100.731 84.3525 100.888 84.572C101.165 84.9622 101.291 85.3767 101.31 85.8462C101.316 86.1083 101.291 86.401 101.4 86.6204C101.707 87.2545 101.611 87.8946 101.533 88.5408C101.472 89.059 101.418 89.5589 101.629 90.071C101.78 90.4368 101.701 90.8331 101.527 91.2111C101.249 91.8024 101.093 92.4304 101.038 93.0949C100.984 93.7472 100.809 94.3812 100.279 94.8385C100.231 94.8812 100.164 94.9299 100.158 94.9848C100.026 95.6737 99.5375 96.1553 99.206 96.7284C99.0373 97.0149 98.8806 97.2771 98.5973 97.4661C98.4526 97.5636 98.2598 97.7343 98.2477 97.8806C98.1995 98.5268 97.7655 98.8439 97.3074 99.1609C97.1748 99.2523 97.0483 99.3499 96.9096 99.4352C96.7288 99.545 96.6023 99.4657 96.5962 99.2462C96.5902 98.8865 96.5962 98.5268 96.5962 97.9964C96.765 97.1795 96.3853 96.3138 96.0176 95.4359C95.7886 94.8933 95.5957 94.3386 95.3365 93.8143C95.1979 93.5277 94.9689 93.29 94.77 93.04C94.7459 93.0095 94.6675 93.0217 94.6133 93.0217C94.6072 93.0217 94.5831 93.0827 94.5952 93.101C94.8845 93.5765 94.6494 94.0459 94.6072 94.5215C94.5711 95.0031 94.6796 95.4908 94.7097 95.9785C94.7278 96.3016 94.776 96.643 94.7097 96.954C94.6072 97.4722 94.6434 97.9782 94.6313 98.4903C94.6072 99.4596 94.3842 100.417 94.2396 101.386C93.6609 102.233 93.2873 103.246 92.3711 103.819C92.2807 103.873 92.1481 103.873 92.0396 103.892C92.0577 103.806 92.0697 103.715 92.0939 103.63C92.3048 102.91 92.5218 102.197 92.7327 101.478C92.7508 101.417 92.7749 101.343 92.7569 101.282C92.4977 100.167 92.799 99.0938 92.9558 98.0086C92.9859 97.8014 92.9075 97.5575 92.8111 97.3685C92.6122 96.9722 92.5459 96.5699 92.564 96.137C92.6001 95.2043 92.3771 94.3264 92.0155 93.479C91.913 93.2473 91.7865 92.9608 91.8347 92.7352C91.9432 92.2048 91.7624 91.7719 91.5514 91.3269C91.3706 90.9428 91.2018 90.5648 91.1777 90.1198C91.1657 89.8698 91.0451 89.6138 90.9125 89.3943C90.3942 88.4981 89.9903 87.5532 89.2791 86.7545C88.7789 86.1937 88.5197 85.4133 88.14 84.7366C88.0134 84.5171 87.8687 84.3038 87.7 84.1148C87.4649 83.8526 87.2118 83.6027 86.9526 83.3649C86.4403 82.8833 85.94 82.3956 85.6145 81.7371C85.4819 81.4689 85.1504 81.2921 84.9033 81.0848C84.5598 80.7922 84.2042 80.5057 83.8546 80.2191C83.8064 80.1764 83.7702 80.1094 83.7099 80.0911C82.2815 79.4936 81.1122 78.3597 79.5571 78.0305C79.3402 77.9817 79.0991 77.9268 78.9303 77.7988C78.3758 77.3843 77.749 77.305 77.098 77.2806C77.0016 77.2806 76.8931 77.2989 76.8087 77.2684C75.6997 76.8844 74.5907 77.0429 73.4877 77.2684C73.3008 77.305 73.0899 77.305 72.9271 77.3965C72.3124 77.7501 71.7157 78.128 71.1069 78.4938C70.8296 78.6584 70.5524 78.8291 70.2571 78.9511C70.1305 78.9998 69.8954 78.9937 69.8231 78.9084C69.7447 78.823 69.793 78.6097 69.811 78.4572C69.8171 78.3597 69.8351 78.2256 69.9014 78.1829C70.4439 77.8415 70.5283 77.2136 70.7995 76.7136C71.2516 75.8845 72.0411 75.4151 72.668 74.7689C72.8247 74.6043 73.0718 74.5128 73.1803 74.3299C73.5178 73.7569 74.0964 73.4764 74.6208 73.2265C75.4224 72.8485 76.0915 72.2815 76.8388 71.8426C77.2065 71.6231 77.5621 71.4402 77.9961 71.3914C78.2733 71.3609 78.5626 71.2573 78.7977 71.111C79.1171 70.9098 79.4366 70.7757 79.7982 70.8549C80.3829 70.983 80.8952 70.7757 81.3653 70.4952C81.8174 70.227 82.2453 70.166 82.7456 70.3002C83.0469 70.3855 83.3845 70.355 83.7039 70.3733C84.0535 70.3916 84.4091 70.4282 84.7587 70.3977C85.7833 70.3062 86.8019 70.288 87.7723 70.7086C88.592 70.5257 89.249 70.9586 89.9783 71.2268C91.4067 71.745 92.5881 72.568 93.7272 73.5618C94.559 74.2873 95.433 74.9457 96.096 75.8479C96.2105 76.0065 96.3551 76.1345 96.4998 76.2625C96.9458 76.6527 97.2773 77.1038 97.5063 77.6708C97.6751 78.0793 97.9765 78.4451 98.2598 78.7925C98.8866 79.5546 99.3869 80.3715 99.6521 81.3409C99.7425 81.6762 99.9414 81.9871 100.122 82.2919C100.393 82.7431 100.628 83.182 100.61 83.749V83.7734ZM108.699 70.0685C108.699 70.2575 108.765 70.5013 108.494 70.5318C108.361 70.544 108.175 70.4526 108.09 70.3428C107.928 70.1477 107.759 69.9222 107.704 69.6844C107.494 68.8004 106.975 68.0932 106.505 67.3556C106.33 67.0812 106.089 66.8252 106.017 66.5203C105.782 65.5571 105.167 64.8438 104.57 64.1183C104.263 63.7464 103.871 63.4477 103.763 62.9234C103.726 62.7588 103.534 62.6125 103.389 62.4967C103.003 62.1857 102.702 61.82 102.491 61.3627C102.105 60.5519 101.454 59.9544 100.797 59.3692C100.737 59.3143 100.628 59.3082 100.538 59.2838C100.514 59.3997 100.466 59.5155 100.478 59.6313C100.514 59.9788 100.773 60.1922 100.966 60.4543C101.34 60.9421 101.683 61.4542 102.033 61.9663C102.105 62.0699 102.19 62.1918 102.202 62.3138C102.286 63.1856 102.871 63.8623 103.1 64.6792C103.166 64.9231 103.347 65.1303 103.467 65.362C103.642 65.7095 103.823 66.057 103.98 66.4106C104.058 66.5874 104.07 66.8069 104.173 66.9593C104.932 68.0445 105.004 69.404 105.625 70.5501C105.866 70.9952 105.963 71.5194 106.107 72.0133C106.125 72.0803 106.065 72.2084 105.999 72.251C105.932 72.2998 105.812 72.3059 105.734 72.2815C105.42 72.1657 105.173 71.9584 105.034 71.6414C104.872 71.2695 104.582 71.0439 104.263 70.8001C103.54 70.2636 102.792 69.7454 102.419 68.8553C102.328 68.6358 102.075 68.4773 101.882 68.3188C101.382 67.9103 100.821 67.575 100.52 66.9593C100.43 66.7764 100.188 66.6667 100.002 66.5447C99.2723 66.0631 98.5069 65.6424 97.9704 64.9109C97.862 64.7645 97.6751 64.6182 97.5003 64.5939C97.0543 64.5268 96.7891 64.1915 96.4395 63.9842C95.4752 63.4233 94.7097 62.6369 93.8779 61.9236C93.45 61.5578 92.9618 61.192 92.3651 61.0884C92.2747 61.0701 92.1602 61.0335 92.1059 60.9664C91.6358 60.4178 90.9788 60.2532 90.3459 60.0093C90.0627 59.8996 89.7914 59.6801 89.5865 59.4423C89.2369 59.04 88.8873 58.7595 88.3328 58.6254C87.7241 58.4791 87.1394 58.1377 86.603 57.7902C86.2414 57.5524 85.8978 57.3512 85.4639 57.3025C84.9395 57.2415 84.4935 57.0403 84.0655 56.6928C83.8124 56.4855 83.4206 56.449 83.0831 56.3636C82.5286 56.2234 82.0343 56.01 81.8475 55.4004C81.8113 55.2723 81.8234 55.0468 81.9078 54.9675C82.3297 54.5834 82.5828 53.9982 83.2157 53.8519C83.3483 53.8214 83.4929 53.6812 83.5713 53.5531C83.8305 53.1142 84.2524 52.9679 84.7044 52.8947C85.0661 52.8337 85.3493 52.6569 85.6628 52.4801C86.4041 52.0534 87.1877 51.7059 87.9592 51.3279C88.1882 51.2182 88.4232 51.1145 88.6523 50.9987C88.8512 50.8951 89.0441 50.7731 89.243 50.6634C90.5207 49.9806 91.6599 50.3464 92.7508 51.1267C93.0341 51.3279 93.3355 51.4986 93.6308 51.6876C93.8538 51.2182 93.5404 50.8707 93.3294 50.5354C93.0582 50.1025 92.9738 49.6758 93.004 49.1698C93.0221 48.8588 93.0944 48.6759 93.3415 48.554C94.4083 48.0236 95.3486 47.292 96.4034 46.7373C96.9639 46.4446 97.3858 46.53 97.8439 46.7738C98.2959 47.0177 98.7118 47.3225 99.1397 47.6152C99.2422 47.6822 99.3206 47.798 99.3869 47.9017C100.188 49.1271 101.099 50.2488 102.111 51.3096C102.617 51.84 103.07 52.468 103.401 53.1264C103.793 53.9128 104.136 54.7054 104.757 55.3455C104.781 55.3699 104.805 55.4004 104.811 55.4247C104.938 56.26 105.535 56.8696 105.83 57.6256C105.902 57.8024 105.926 58.0036 105.963 58.1925C105.993 58.3511 105.951 58.5705 106.041 58.6681C106.553 59.2411 106.565 59.9544 106.65 60.6555C106.656 60.7165 106.686 60.7835 106.722 60.8384C107.343 61.8321 107.463 62.9722 107.656 64.0939C107.717 64.4353 107.921 64.7463 108.054 65.0755C108.181 65.4047 108.295 65.74 108.386 65.9777C108.349 66.2216 108.355 66.3618 108.301 66.4716C108.151 66.8008 108.217 67.0995 108.374 67.4104C108.729 68.0932 108.886 68.8126 108.705 69.5808C108.669 69.7332 108.705 69.9039 108.705 70.0685H108.699ZM128.444 61.1859C128.39 61.1981 128.306 61.1798 128.27 61.1432C128.179 61.0579 128.071 60.9603 128.028 60.8445C127.817 60.2714 127.402 59.863 127.01 59.4362C126.618 59.0034 126.612 58.9973 126.148 59.2899C125.961 59.4118 125.804 59.5825 125.605 59.6923C124.804 60.1556 124.056 60.686 123.387 61.3383C122.996 61.7163 122.507 61.9907 122.049 62.2894C121.79 62.454 121.736 62.6552 121.784 62.9478C121.881 63.594 121.965 64.2403 122.001 64.8865C122.019 65.1669 121.935 65.4595 121.863 65.7339C121.838 65.8314 121.718 65.929 121.621 65.9717C121.573 65.9899 121.441 65.8985 121.398 65.8253C121.302 65.6607 121.194 65.4839 121.169 65.301C121.019 64.289 120.524 63.4721 119.807 62.7771C119.379 62.3625 119.084 61.8809 118.909 61.2957C118.734 60.7165 118.409 60.2349 117.818 60.0032C117.493 59.8752 117.3 59.6252 117.137 59.3387C116.709 58.5522 116.131 57.9182 115.389 57.4183C115.022 57.1683 114.744 56.7843 114.443 56.449C114.196 56.1807 113.919 56.0039 113.575 55.8698C112.671 55.5223 111.797 55.1077 111.038 54.4798C110.73 54.2237 110.706 54.1384 111.068 53.9189C111.749 53.5105 112.279 52.8886 113.093 52.6387C113.617 52.4741 114.051 51.9985 114.527 51.6632C115.136 51.2243 115.787 50.889 116.546 50.7853C116.872 50.7426 117.161 50.7061 117.487 50.8219C118.065 51.0292 118.656 51.1511 119.283 51.145C119.795 51.145 120.301 51.2548 120.717 51.6327C120.874 51.7791 121.109 51.8461 121.308 51.9437C121.453 52.0107 121.64 52.0351 121.748 52.1387C122.351 52.7545 123.17 53.0288 123.852 53.5165C124.298 53.8336 124.683 54.2298 125.069 54.62C125.455 55.0102 125.865 55.4004 126.16 55.8576C126.654 56.6075 127.335 57.2415 127.588 58.1499C127.649 58.3632 127.787 58.5583 127.914 58.7473C128.288 59.296 128.571 59.8752 128.511 60.5214C128.535 60.7287 128.565 60.8933 128.565 61.0518C128.565 61.0945 128.505 61.1676 128.462 61.1798L128.444 61.1859Z" fill="#303E30"/>
<path d="M84.4512 90.3328C84.415 90.284 84.409 90.2109 84.3969 90.1438C84.3246 89.6927 84.0473 89.3939 83.7339 89.0952C83.3602 88.7416 83.0348 88.3392 82.6792 87.9612C82.5285 87.8027 82.3657 87.6259 82.1789 87.5162C81.757 87.2723 81.3049 87.0895 80.8891 86.8395C79.997 86.3152 78.9965 86.2298 78.0141 86.0591C77.7428 86.0104 77.5198 86.1079 77.2847 86.242C76.453 86.7298 75.8985 87.504 75.2536 88.1868C75.1933 88.2539 75.1571 88.3575 75.1451 88.449C75.0547 89.3573 74.9763 90.2657 74.8979 91.168C74.916 91.168 74.9341 91.168 74.9522 91.168C74.9823 91.4606 75.0908 91.7776 75.0125 92.0398C74.8919 92.4726 75.0908 92.7775 75.2295 93.1311C75.4103 93.6127 75.6152 94.1065 75.6935 94.6125C75.8382 95.5697 76.2541 96.3317 77.0075 96.917C77.1823 97.0511 77.3631 97.2035 77.4716 97.3925C78.002 98.3375 78.8157 98.8496 79.8343 99.0995C80.425 99.2458 81.0036 99.447 81.5882 99.6299C82.1066 99.7945 82.5887 99.7823 83.0408 99.4043C83.3602 99.1361 83.7219 98.9166 84.0775 98.6971C84.5295 98.4167 84.9454 98.1119 85.1142 97.5815C85.3312 96.8987 85.5301 96.2159 85.7169 95.527C85.8736 94.9356 85.747 94.3747 85.5602 93.8017C85.1865 92.6372 85.2649 91.3326 84.4572 90.3084L84.4512 90.3328Z" fill="#303E30"/>
<path d="M45.6178 91.6863C45.5335 90.9304 45.2502 90.2415 44.7138 89.6745C44.5149 89.4672 44.4003 89.1746 44.2014 88.9734C43.8217 88.5832 43.4541 88.1016 42.9839 87.8943C42.3812 87.6322 41.6941 87.492 40.9949 87.5042C40.0366 87.5285 39.247 87.8334 38.8432 88.8149C38.7709 88.9917 38.6383 89.1441 38.5117 89.2904C38.3309 89.5038 38.2646 89.7416 38.2827 90.0159C38.355 91.0889 38.4695 92.1619 38.8733 93.1617C39.1024 93.7287 39.4459 94.2469 39.7533 94.7772C39.9281 95.0821 40.1511 95.3625 40.3319 95.6673C40.8201 96.4904 41.3988 97.1366 42.4776 97.0208C42.7248 96.9903 42.99 97.0512 43.2371 97.1061C44.2677 97.3256 45.0633 96.8866 45.4431 95.8868C45.66 95.3137 45.9011 94.7407 46.1241 94.1676C46.317 93.6799 46.2989 93.2105 45.9915 92.7715C45.7625 92.4423 45.66 92.0948 45.6178 91.6863Z" fill="#303E30"/>
</g>
<defs>
<clipPath id="clip0_203_3248">
<rect width="103" height="103" fill="white" transform="translate(28 8)"/>
</clipPath>
</defs>
</svg>
