<svg width="80" height="80" viewBox="0 0 80 80" fill="none" xmlns="http://www.w3.org/2000/svg">
<path d="M7.41922 43.12C10.6392 45.82 13.3392 47.16 15.5592 47.16C15.4192 48.56 14.3192 50.84 12.2992 53.98C10.2592 57.12 7.83922 59.76 5.03922 61.9C5.25922 64.56 6.61922 66.6 9.13922 68C14.2392 66.44 19.0392 63.46 23.5592 59.02C28.0592 54.58 31.6392 49.62 34.2592 44.1C36.8792 38.6 38.1992 33.32 38.1992 28.3C38.1992 23.28 36.5992 19.32 33.3792 16.44C30.1592 13.56 26.0392 12.12 21.0192 12.12C15.9992 12.12 11.6592 14.16 8.03922 18.22C4.41922 22.28 2.59922 26.78 2.59922 31.7C2.59922 36.62 4.19922 40.42 7.41922 43.12Z" fill="#D1D1C7"/>
<path d="M47.12 43.12C50.34 45.82 53.06 47.16 55.28 47.16C55.14 48.56 54.04 50.84 52.02 53.98C49.98 57.12 47.6 59.76 44.86 61.9C45.08 64.64 46.46 66.66 48.96 68C56.58 65.64 63.32 60.34 69.2 52.14C75.06 43.96 78 36.68 78 30.32C78 23.96 76.38 19.34 73.12 16.46C69.86 13.58 65.72 12.14 60.7 12.14C55.68 12.14 51.36 14.18 47.72 18.24C44.1 22.3 42.28 26.8 42.28 31.72C42.28 36.64 43.88 40.44 47.1 43.14L47.12 43.12Z" fill="#D1D1C7"/>
</svg>
