<svg width="80" height="80" viewBox="0 0 80 80" fill="none" xmlns="http://www.w3.org/2000/svg">
<path d="M72.5808 36.88C69.3608 34.18 66.6608 32.84 64.4408 32.84C64.5808 31.44 65.6808 29.16 67.7008 26.02C69.7408 22.88 72.1608 20.24 74.9608 18.1C74.7408 15.44 73.3808 13.4 70.8608 12C65.7608 13.56 60.9608 16.54 56.4408 20.98C51.9408 25.42 48.3608 30.38 45.7408 35.9C43.1208 41.4 41.8008 46.68 41.8008 51.7C41.8008 56.72 43.4008 60.68 46.6208 63.56C49.8408 66.44 53.9608 67.88 58.9808 67.88C64.0008 67.88 68.3408 65.84 71.9608 61.78C75.5808 57.72 77.4008 53.22 77.4008 48.3C77.4008 43.38 75.8008 39.58 72.5808 36.88Z" fill="#D1D1C7"/>
<path d="M32.88 36.88C29.66 34.18 26.94 32.84 24.72 32.84C24.86 31.44 25.96 29.16 27.98 26.02C30.02 22.88 32.4 20.24 35.14 18.1C34.92 15.36 33.54 13.34 31.04 12C23.42 14.36 16.68 19.66 10.8 27.86C4.94 36.04 2 43.32 2 49.68C2 56.04 3.62 60.66 6.88 63.54C10.14 66.42 14.28 67.86 19.3 67.86C24.32 67.86 28.64 65.82 32.28 61.76C35.9 57.7 37.72 53.2 37.72 48.28C37.72 43.36 36.12 39.56 32.9 36.86L32.88 36.88Z" fill="#D1D1C7"/>
</svg>
