<svg width="40" height="40" viewBox="0 0 40 40" fill="none" xmlns="http://www.w3.org/2000/svg">
<path d="M19.9992 1.53613C9.80156 1.53613 1.53516 9.80253 1.53516 20.0001C1.53516 30.1977 9.80156 38.4641 19.9992 38.4641C30.1968 38.4641 38.4632 30.1977 38.4632 20.0001C38.4632 9.80253 30.1968 1.53613 19.9992 1.53613ZM26.054 21.0289C25.3124 21.0165 24.6344 21.0381 23.7724 21.0009C23.6324 20.9945 21.3872 21.0281 21.394 21.0689C21.5572 22.0673 21.3228 23.1281 21.3368 24.1377C21.3452 24.7261 21.518 30.0493 21.4384 32.0129L16.9892 32.0537C16.9708 30.3817 17.0524 28.6621 16.98 26.4569C16.9652 26.0037 16.9504 21.2325 16.8976 20.9813C16.8976 20.9813 14.9312 20.9953 14.012 21.0009C14.012 21.0009 13.9996 19.2401 13.9996 18.6445C13.9996 18.0593 13.9996 17.4749 13.9996 16.8897C13.9996 16.8897 16.2948 16.7625 16.9536 16.7053C16.9536 16.7053 17.0208 14.4717 17.112 13.7481C17.2172 12.9217 17.2276 12.0865 17.7128 11.3553C18.602 10.0169 19.4796 8.83733 21.1144 8.48173C21.7328 8.34653 25.8108 7.54493 25.962 8.20453L25.8692 12.1757C24.7604 12.1757 23.4316 12.0633 22.3 12.9037C21.67 13.3725 21.496 13.7629 21.4324 14.5341C21.3944 14.9825 21.3856 16.7973 21.3856 16.7973C21.9832 16.8825 22.8676 16.8449 23.51 16.7973C24.2356 16.7433 26.0984 16.9357 26.0984 16.9357C26.0976 18.1369 26.0496 20.9101 26.054 21.0289Z" fill="#F0EDE4"/>
</svg>
