<svg width="40" height="40" viewBox="0 0 40 40" fill="none" xmlns="http://www.w3.org/2000/svg">
<path d="M21.2553 16.8459C19.6065 16.1195 17.5745 16.9815 16.8717 18.6083C16.4129 19.6703 16.4081 20.7371 16.7829 21.6163C17.2533 22.7199 18.3213 23.5275 19.8393 23.6607C21.5825 23.8131 23.0769 22.5779 23.4785 20.9091C23.8533 19.3491 22.6917 17.4791 21.2553 16.8459Z" fill="#F0EDE4"/>
<path d="M23.6719 11.1845C20.8815 11.0865 18.0935 11.2141 15.3019 11.2893C11.7159 11.3853 11.0055 15.4489 11.0811 18.5985C11.0935 19.1169 11.0827 19.6473 11.0647 20.1833C10.9827 22.6753 11.0507 27.0593 13.4183 28.3445C14.3915 28.8733 15.5611 28.8905 16.6383 28.8505C17.9331 28.8017 19.2175 28.7973 20.5123 28.8633C22.3207 28.9553 24.1095 29.0265 25.8923 28.6025C28.3647 28.0137 28.7899 26.7869 28.9651 24.5869C29.0411 23.6261 28.9639 22.4681 28.9719 21.2785C28.9883 18.6865 29.5611 14.1073 27.3122 12.1717C26.3266 11.3245 24.9111 11.2289 23.6719 11.1845ZM22.9523 24.8281C20.0011 26.9417 15.6511 25.2073 14.6487 21.8313C14.5807 21.6029 14.5279 21.3673 14.4923 21.1241C14.2371 19.3897 14.9567 16.5865 16.6767 15.5185C20.1079 13.3877 22.9575 14.9505 24.1787 16.4061C24.8359 17.1901 25.3227 18.2985 25.4915 19.3189C25.8387 21.4209 24.6347 23.6225 22.9523 24.8281ZM26.1083 15.7201C25.3419 15.9549 24.1935 15.1413 24.7407 13.7789C25.0283 13.0637 25.7503 12.8705 26.6103 13.3337C27.2863 13.6981 27.3907 15.3281 26.1083 15.7201Z" fill="#F0EDE4"/>
<path d="M19.9992 1.53613C9.80156 1.53613 1.53516 9.80253 1.53516 20.0001C1.53516 30.1977 9.80156 38.4641 19.9992 38.4641C30.1968 38.4641 38.4632 30.1977 38.4632 20.0001C38.4632 9.80253 30.1968 1.53613 19.9992 1.53613ZM30.83 20.0689C30.8588 21.4665 30.772 22.8629 30.8108 24.2621C30.8812 26.7957 29.9672 29.2381 27.4092 30.2389C24.3068 31.4525 20.5244 30.7849 17.272 30.7849C15.8636 30.7849 14.416 30.8973 13.0644 30.4965C12.0304 30.1893 11.3636 29.6045 10.6472 28.8021C10.3248 28.4413 10.1144 28.0797 9.94196 27.6381C9.10956 25.5025 9.26956 23.5421 9.17716 21.2949C9.12396 20.0109 9.14756 18.7241 9.15956 17.4385C9.17636 15.6817 9.16396 14.1101 9.81036 12.4469C10.4632 10.7661 12.702 9.44093 14.438 9.32693C17.9984 9.09413 21.748 8.78493 25.2872 9.35373C26.6828 9.57813 28.1532 10.0373 29.1564 11.0805C30.4636 12.4389 30.7824 14.3797 30.842 16.3305C30.882 17.6285 30.8068 18.9305 30.83 20.0689Z" fill="#F0EDE4"/>
</svg>
